<svg xmlns="http://www.w3.org/2000/svg" width="75" height="53" viewBox="0 0 75 53">
    <path fill="#FFF" fill-rule="evenodd" d="M72.103 42.689h-7.42c-.8-3.79-4.17-6.645-8.195-6.645s-7.394 2.855-8.196 6.645h-22.16c-.802-3.79-4.17-6.645-8.195-6.645-4.027 0-7.396 2.855-8.197 6.645H2.8V6.86a4.06 4.06 0 0 1 4.06-4.06h43.826v14.36h13.667a7.75 7.75 0 0 1 7.75 7.752v17.776zm-10.141 2.8c-.5 2.566-2.764 4.512-5.474 4.512a5.585 5.585 0 0 1-5.578-5.58 5.585 5.585 0 0 1 5.578-5.577 5.586 5.586 0 0 1 5.579 5.577c0 .366-.039.723-.105 1.069zm-44.026 4.512a5.587 5.587 0 0 1-5.578-5.58 5.584 5.584 0 0 1 5.579-5.577 5.586 5.586 0 0 1 5.578 5.577c0 .366-.038.723-.105 1.069-.5 2.565-2.763 4.51-5.473 4.51zM64.71 14.36H53.486V2.297A2.296 2.296 0 0 0 51.189 0H6.572A6.571 6.571 0 0 0-.002 6.572v36.745c0 1.2.974 2.173 2.173 2.173h7.462c.526 4.116 4.044 7.31 8.303 7.31 4.256 0 7.774-3.194 8.302-7.31h21.948c.526 4.116 4.044 7.31 8.302 7.31 4.257 0 7.774-3.194 8.301-7.31h7.857a2.256 2.256 0 0 0 2.256-2.256v-18.68c0-5.63-4.564-10.193-10.193-10.193z"/>
</svg>
