<svg xmlns="http://www.w3.org/2000/svg" width="58" height="58" viewBox="0 0 58 58">
    <path fill="#FFF" fill-rule="evenodd" d="M28.566 2.801c-14.208 0-25.767 11.559-25.767 25.766 0 14.208 11.559 25.766 25.767 25.766s25.767-11.558 25.767-25.766c0-14.207-11.559-25.766-25.767-25.766m0 54.333C12.815 57.134 0 44.319 0 28.567 0 12.816 12.815 0 28.566 0s28.566 12.816 28.566 28.567c0 15.752-12.815 28.567-28.566 28.567zm0-14.317a1.5 1.5 0 0 0 1.5-1.5V24.755a1.5 1.5 0 1 0-3 0v16.562a1.5 1.5 0 0 0 1.5 1.5zm1.851-24.498a1.852 1.852 0 1 0-3.704.002 1.852 1.852 0 0 0 3.704-.002z"/>
</svg>
