<svg xmlns="http://www.w3.org/2000/svg" xmlns:xlink="http://www.w3.org/1999/xlink" width="133" height="17" viewBox="0 0 133 17">
    <defs>
        <path id="a" d="M.51.673H11.29v15.326H.511z"/>
    </defs>
    <g fill="none" fill-rule="evenodd">
        <path fill="#231F20" d="M14.843 1.241h-2.485a.765.765 0 0 0-.763.762v13.328c0 .419.344.762.763.762h2.485a.764.764 0 0 0 .762-.762V2.003a.764.764 0 0 0-.762-.762M9.072 12.562H4.01V2.002a.764.764 0 0 0-.762-.76H.762a.763.763 0 0 0-.761.76v13.33c0 .418.342.76.76.76h8.31a.764.764 0 0 0 .763-.76v-2.007a.765.765 0 0 0-.762-.763M42.223 1.241h-8.008a.764.764 0 0 0-.762.762v13.328c0 .419.343.762.762.762h8.008a.764.764 0 0 0 .762-.762v-2.006a.765.765 0 0 0-.762-.763h-4.76v-2.13h4.335a.765.765 0 0 0 .763-.762V7.664a.765.765 0 0 0-.763-.762h-4.335V4.771h4.76a.764.764 0 0 0 .762-.761V2.003a.764.764 0 0 0-.762-.762M89.758 1.241H81.75a.764.764 0 0 0-.762.762v13.328c0 .419.343.762.762.762h8.008a.764.764 0 0 0 .762-.762v-2.006a.765.765 0 0 0-.762-.763h-4.76v-2.13h4.335a.765.765 0 0 0 .763-.762V7.664a.765.765 0 0 0-.763-.762h-4.335V4.771h4.76a.764.764 0 0 0 .762-.761V2.003a.764.764 0 0 0-.762-.762M58.926 1.241H50.918a.764.764 0 0 0-.762.762v13.328c0 .419.343.762.762.762h2.486a.764.764 0 0 0 .762-.762v-4.899h4.335c.42 0 .763-.342.763-.762V7.664a.765.765 0 0 0-.763-.762h-4.335V4.771h4.76a.764.764 0 0 0 .763-.761V2.003a.765.765 0 0 0-.763-.762M65.459 4.75h.941c.454 0 .692.03.907.113.56.215.882.719.883 1.384 0 .666-.322 1.17-.882 1.385-.216.084-.454.113-.908.113h-.942V4.75zm6.96 9.635l-2.49-4.243c.087-.043.174-.087.27-.14 1.258-.76 2.056-2.303 2.056-4.011 0-2.117-1.023-3.723-2.808-4.407-.684-.265-1.438-.358-2.88-.358h-4.354a.764.764 0 0 0-.763.762v13.327c0 .42.343.763.762.763h2.486a.765.765 0 0 0 .763-.763v-4.076h.715l2.215 3.928c.395.677.525.91 1.522.91h1.526c.67 0 .957-.117 1.173-.423.233-.328.163-.657-.194-1.27zM112.328 12.586h-.758V4.749h.758c2.33 0 3.668 1.417 3.668 3.888 0 2.547-1.303 3.949-3.668 3.949m.14-11.345h-4.146a.764.764 0 0 0-.762.762V15.33c0 .419.343.762.762.762h4.147c4.723 0 7.657-2.857 7.657-7.456 0-4.562-2.934-7.396-7.657-7.396M77.55 1.241h-2.486a.765.765 0 0 0-.763.762v13.328c0 .419.344.762.763.762h2.485a.764.764 0 0 0 .762-.762V2.003a.764.764 0 0 0-.762-.762M30.012 1.241h-2.485a.765.765 0 0 0-.763.762v7.243l-4.023-7.138c-.346-.599-.82-.867-1.54-.867h-2.157a.764.764 0 0 0-.76.762v13.328c0 .419.341.762.76.762h2.486a.764.764 0 0 0 .762-.762V8.108l4.043 7.117c.342.592.824.868 1.521.868h2.156a.764.764 0 0 0 .762-.762V2.003a.764.764 0 0 0-.762-.762M104.12 1.241h-2.484a.765.765 0 0 0-.763.762v7.243L96.85 2.108c-.346-.599-.821-.867-1.541-.867h-2.156a.764.764 0 0 0-.761.762v13.328c0 .419.342.762.76.762h2.487a.764.764 0 0 0 .762-.762V8.108l4.043 7.117c.342.592.824.868 1.52.868h2.157a.764.764 0 0 0 .762-.762V2.003a.764.764 0 0 0-.762-.762"/>
        <g transform="translate(121 .327)">
            <mask id="b" fill="#fff">
                <use xlink:href="#a"/>
            </mask>
            <path fill="#231F20" d="M7.704 6.722l-2.09-.747c-.304-.109-.66-.192-.896-.43a.75.75 0 0 1 .02-1.05c.42-.384 1.162-.267 1.683-.164.72.143 2.448.886 2.632.97.27.124.568.262.875.258.358-.005.603-.252.664-.597.012-.072.017-.146.017-.219V2.774c0-.376-.12-.582-.42-.775C8.969 1.213 7.469.672 5.837.672 2.7.672.51 2.513.51 5.148c0 2.993 2.093 4.067 3.673 4.644l1.875.62c1.232.471 1.294.756 1.293 1.05-.001.692-.627.871-1.43.762a10.465 10.465 0 0 1-1.835-.444c-.605-.2-1.174-.473-1.757-.725-.294-.127-.586-.304-.911-.346-.287-.037-.586.083-.708.36-.101.228-.094.505-.094.751v2.038c0 .482.283.702.573.88 1.19.722 3.192 1.261 4.497 1.261 3.352 0 5.603-1.857 5.603-4.624 0-2.252-1.173-3.774-3.586-4.653" mask="url(#b)"/>
        </g>
    </g>
</svg>
