<svg xmlns="http://www.w3.org/2000/svg" width="156" height="156" viewBox="0 0 156 156">
    <g fill="none" fill-rule="evenodd">
        <path fill="#231F20" d="M78 156c43.08 0 78-34.922 78-78S121.08 0 78 0C34.922 0 0 34.922 0 78s34.922 78 78 78z"/>
        <g fill="#FFF">
            <path d="M21.767 105.698h112v-54h-112v54zm2.96-2.989h106.082V54.686H24.726v48.023z"/>
            <path d="M45.449 74.84c-.33.287-.785.43-1.362.43h-4.089v-3.248h4.09c.576 0 1.03.157 1.36.471.332.316.499.702.499 1.164 0 .502-.167.897-.498 1.183zm-5.451-8.634h3.982c.504 0 .91.142 1.22.425.31.285.466.648.466 1.09 0 .444-.152.803-.455 1.08-.303.277-.713.415-1.231.415h-3.982v-3.01zm8.577 5.509c-.534-.684-1.19-1.083-1.967-1.2.706-.145 1.297-.516 1.771-1.112.572-.715.8-1.64.686-2.772-.02-.2-.065-.403-.135-.592-.633-1.714-1.964-2.571-3.986-2.571H36.76V78.02h8.42c1.326 0 2.357-.371 3.091-1.113.736-.742 1.103-1.68 1.103-2.815 0-.9-.267-1.694-.8-2.378zM76.61 74.18c-.785.902-1.816 1.353-3.092 1.353s-2.302-.45-3.08-1.352c-.779-.902-1.168-2.044-1.168-3.427 0-1.381.39-2.523 1.167-3.425.78-.901 1.805-1.352 3.081-1.352s2.307.45 3.092 1.352c.786.902 1.178 2.044 1.178 3.425 0 1.383-.392 2.525-1.178 3.427m2.432-8.836c-1.448-1.411-3.29-2.117-5.524-2.117-2.22 0-4.054.709-5.501 2.127-1.448 1.418-2.173 3.219-2.173 5.4 0 2.182.725 3.982 2.173 5.4 1.447 1.418 3.281 2.127 5.501 2.127 2.235 0 4.076-.705 5.524-2.116 1.448-1.41 2.172-3.214 2.172-5.412 0-2.195-.724-4-2.172-5.41M99.022 78.02l4.508-14.552h-3.796l-2.752 10.516-2.99-10.516H91.36l-3.013 10.516-2.777-10.516h-3.772l4.531 14.553h3.775l2.56-8.832 2.512 8.832zM119.262 63.468h-3.237v8.874l-7.043-8.874h-3.328V78.02H108.89v-9.223l7.249 9.223h3.123V63.468M48.066 93.567l2.578.005v-5.166l5.095-.001v-2.43h-5.095v-2.529h5.599v-2.43h-8.177v12.551zM64.596 86.24c-.339.294-.847.44-1.38.44h-2.418v-3.234h2.419c.532 0 1.04.147 1.38.44.338.294.508.687.508 1.178 0 .49-.17.883-.509 1.176m2.37 1.327c.515-.64.772-1.474.772-2.503 0-1.193-.439-2.166-1.171-2.919-.732-.753-1.722-1.129-2.969-1.129h-5.38v12.556h2.58V89.11H62.4l2.378 4.462h2.96l-2.724-4.781a3.547 3.547 0 0 0 1.952-1.224M69.319 81.016v12.556h2.579V81.017h-2.58zM104.772 90.066c-.678.747-1.592 1.12-2.745 1.12h-2.178v-7.785h2.178c1.188 0 2.112.365 2.772 1.093.66.727.99 1.664.99 2.81 0 1.094-.34 2.016-1.017 2.762m-2.725-9.05H97.27v12.556h4.776c1.913 0 3.462-.574 4.649-1.723 1.187-1.148 1.78-2.663 1.78-4.546 0-1.882-.597-3.4-1.789-4.555-1.193-1.155-2.74-1.732-4.64-1.732M73.873 81.017v12.555h8.571v-2.385h-5.993v-2.81l5.489-.001v-2.4h-5.489v-2.53h5.993v-2.43h-8.57zM95.26 81.016h-2.578v7.657l-5.611-7.657H84.42V93.572H86.997v-7.957l5.775 7.957h2.488V81.016M60.054 69.53c-.403.344-1.008.514-1.642.514h-3.289V66.27h3.29c.633 0 1.238.171 1.641.514.404.342.605.8.605 1.373s-.201 1.03-.605 1.373m3.115 1.528c.613-.741.918-1.708.918-2.901 0-1.382-.521-2.51-1.393-3.383-.871-.872-2.05-1.307-3.533-1.307h-7.274V78.02h3.236v-5.171h2.444l2.831 5.17H64.087s.001 0 0 0l-3.24-5.541a4.229 4.229 0 0 0 2.322-1.419M114.413 93.798c-2.155 0-3.862-.665-5.122-1.995l1.4-2.034c1.04 1.13 2.324 1.695 3.85 1.695.665 0 1.183-.135 1.552-.405.37-.27.554-.6.554-.988 0-.34-.172-.622-.518-.848-.344-.225-.774-.389-1.289-.489-.515-.1-1.075-.245-1.68-.433a13.629 13.629 0 0 1-1.68-.64c-.515-.239-.944-.615-1.29-1.13-.344-.514-.517-1.142-.517-1.883 0-1.079.418-1.985 1.253-2.72.836-.734 1.95-1.1 3.342-1.1 1.925 0 3.499.582 4.722 1.75l-1.435 1.957c-.957-.915-2.131-1.374-3.523-1.374-.545 0-.969.113-1.271.34a1.088 1.088 0 0 0-.454.922c0 .3.172.555.517.762.345.207.775.361 1.29.461.514.1 1.071.248 1.67.443.6.195 1.156.414 1.671.658.514.246.944.629 1.29 1.15.345.52.517 1.145.517 1.872 0 1.205-.415 2.178-1.244 2.918-.83.74-2.031 1.11-3.605 1.11M40.488 85.734c.768-.58 1.348-1.082 1.348-1.653 0-.632-.433-1.03-1.16-1.03-.744 0-1.168.406-1.168 1.108 0 .459.212.779.98 1.575zm1.855 4.943l-2.198-2.234c-.646.554-1.095 1.09-1.095 1.74 0 .822.588 1.333 1.479 1.333.72 0 1.267-.286 1.814-.84zm1.398 1.428c-.833.83-1.92 1.462-3.383 1.462-2.257 0-3.597-1.237-3.597-3.22 0-1.42.924-2.467 1.978-3.323-.956-1.04-1.422-1.818-1.422-2.97 0-1.756 1.34-3.038 3.359-3.038 1.986 0 3.335 1.204 3.335 2.995 0 1.307-1.038 2.268-2.15 3.125l1.732 1.775 1.316-1.466 1.493 1.507-1.329 1.482 1.328 1.336-1.423 1.579-1.237-1.244z"/>
        </g>
    </g>
</svg>
