<svg xmlns="http://www.w3.org/2000/svg" xmlns:xlink="http://www.w3.org/1999/xlink" width="171" height="172" viewBox="0 0 171 172">
    <defs>
        <path id="a" d="M.184.06h8.55v11.33H.184z"/>
        <path id="c" d="M.053.06h8.504v11.33H.053z"/>
    </defs>
    <g fill="none" fill-rule="evenodd">
        <path fill="#231F20" d="M85 170c46.945 0 85-38.056 85-85S131.945 0 85 0C38.057 0 0 38.056 0 85s38.057 85 85 85z"/>
        <path fill="#FFF" d="M138 93.566c-.252-.375-.628-.626-1.319-.626h-1.208v6.26h1.208c.69 0 1.067-.25 1.318-.626.22-.313.298-.61.298-2.504 0-1.878-.078-2.19-.298-2.504m1.883 6.98c-.769.766-1.852 1.095-3.012 1.095h-4.142V90.498h4.142c1.16 0 2.243.33 3.012 1.096 1.302 1.3 1.16 2.723 1.16 4.476 0 1.753.142 3.177-1.16 4.476"/>
        <g transform="translate(141.237 90.345)">
            <mask id="b" fill="#fff">
                <use xlink:href="#a"/>
            </mask>
            <path fill="#FFF" d="M4.42 11.39c-1.71 0-3.107-.313-4.236-1.47L1.94 8.166c.58.58 1.6.783 2.494.783 1.083 0 1.6-.36 1.6-1.002 0-.266-.062-.485-.22-.657-.14-.14-.375-.25-.737-.297L3.73 6.805c-.988-.14-1.741-.47-2.243-.986C.968 5.287.717 4.536.717 3.582.717 1.547 2.254.06 4.797.06c1.6 0 2.807.376 3.764 1.33L6.836 3.113c-.707-.704-1.632-.658-2.118-.658-.957 0-1.35.548-1.35 1.033 0 .141.048.345.22.517.141.14.377.282.769.329l1.35.187c1.003.141 1.725.454 2.196.924.596.579.831 1.408.831 2.441 0 2.27-1.961 3.506-4.314 3.506" mask="url(#b)"/>
        </g>
        <path fill="#FFF" d="M106.522 66.681c3.514 1.8 2.763 6.675 1.369 8.924 0 0-1.459-1.19-4.471-2.849-3.013-1.657-4.707-2.261-4.707-2.261.646-1.866 3.477-6.031 7.809-3.814M65.448 66.681c-3.515 1.8-2.764 6.675-1.37 8.924 0 0 1.459-1.19 4.471-2.849 3.013-1.657 4.707-2.261 4.707-2.261-.646-1.866-3.476-6.031-7.808-3.814"/>
        <path fill="#FFF" d="M52.929 85.65c-.298 0-.603-.16-.782-.517a.7.7 0 0 1 .04-.67c2.493-4.128 5.498-6.764 7.107-8.177l.075-.066c-.885-2.882-.924-5.58-.114-8.03 1.409-4.257 5.71-6.806 10.228-6.061 3.23.533 5.589 2.436 7.192 5.811 2.775-.474 4.817-.747 9.312-.81h.024c4.494.066 6.538.341 9.314.819 1.603-3.375 3.962-5.277 7.196-5.808 4.518-.742 8.817 1.81 10.223 6.07.802 2.429.77 5.098-.093 7.942l.041.148c1.605 1.41 4.602 4.042 7.093 8.163a.701.701 0 0 1 .036.675c-.348.682-1.165.64-1.484.115-2.352-3.868-5.2-6.371-6.732-7.716l-.484-.428a.81.81 0 0 1-.232-.864c.937-2.732 1.034-5.262.29-7.52-.987-2.99-4.184-5.653-8.39-4.962-2.819.463-4.852 2.238-6.216 5.427a.825.825 0 0 1-.9.487c-3.122-.545-4.97-.833-9.674-.903-4.705.066-6.553.352-9.672.894a.825.825 0 0 1-.9-.487c-1.365-3.19-3.397-4.966-6.213-5.43a7.467 7.467 0 0 0-8.393 4.954c-.746 2.253-.65 4.783.283 7.52a.813.813 0 0 1-.234.865c-.144.13-.307.272-.487.43-1.535 1.347-4.393 3.856-6.749 7.732a.824.824 0 0 1-.705.397M80.737 92.47c-.533 0-.706.282-.706.674 0 .328.408.72.596.907.142-.094.377-.266.377-.266.267-.188.44-.407.44-.657 0-.376-.236-.658-.707-.658zm-.863 4.46c-.493.344-.645.659-.658 1.148-.018.674.514 1.217 1.189 1.245.64.026.944-.172 1.21-.405l-1.74-1.987zm4.001 4.617l-.706-.814c-.55.407-1.161.908-2.651.908-2.636 0-3.781-1.299-3.781-3.474 0-1.283.94-2.238 1.773-2.786-.393-.438-1.052-1.19-1.052-2.3 0-1.643 1.145-2.77 3.28-2.77 1.976 0 3.122 1.158 3.122 2.801 0 .845-.409 1.393-1.099 1.91 0 0-.502.39-.784.578l1.318 1.519c.314-.36.47-1.08.518-1.613h2.415c-.11 1.456-.486 2.599-1.302 3.49l2.181 2.551h-3.232zM26.597 97.228h-1.852v1.957h1.852c.753 0 1.004-.517 1.004-.987 0-.469-.251-.97-1.004-.97m-.141-4.272h-1.71v1.815h1.71c.753 0 .988-.47.988-.908 0-.438-.235-.907-.988-.907m.407 8.685H22V90.498h4.628c2.322 0 3.561 1.3 3.561 3.225 0 1.267-.878 1.971-1.223 2.206.455.282 1.38.86 1.38 2.426 0 2.128-1.49 3.286-3.483 3.286M36.074 92.956H34.52v2.253h1.553c.753 0 1.192-.548 1.192-1.127s-.44-1.126-1.192-1.126zm1.349 8.685l-1.977-4.147h-.925v4.147h-2.746V90.498h4.424c2.48 0 3.813 1.754 3.813 3.584 0 1.518-.942 2.473-1.82 2.911l2.416 4.648h-3.185z"/>
        <g transform="translate(41.12 90.345)">
            <mask id="d" fill="#fff">
                <use xlink:href="#c"/>
            </mask>
            <path fill="#FFF" d="M5.403 2.986c-.204-.266-.596-.485-1.098-.485-.502 0-.894.22-1.099.485-.25.33-.408.705-.408 2.74 0 2.034.157 2.394.408 2.722.205.266.597.501 1.099.501s.894-.235 1.098-.5c.251-.33.408-.69.408-2.724 0-2.034-.157-2.41-.408-2.739m2.024 7.153c-.816.813-1.757 1.252-3.122 1.252s-2.307-.439-3.122-1.252C.006 8.965.053 7.399.053 5.725c0-1.674-.047-3.24 1.13-4.413C1.998.498 2.94.06 4.305.06S6.61.498 7.427 1.312c1.177 1.174 1.13 2.739 1.13 4.413 0 1.675.047 3.24-1.13 4.414" mask="url(#d)"/>
        </g>
        <path fill="#FFF" d="M60.974 101.641H58.73l-1.804-5.493-1.804 5.493h-2.228L49.819 90.5h2.871l1.459 5.884 1.804-5.884H57.9l1.804 5.884 1.459-5.884h2.87zM71.016 101.641l-3.577-5.602v5.602h-2.745V90.5h2.4L70.67 96.1V90.5h2.745v11.142zM92.718 92.94v1.956h4.142v2.442h-4.142v4.303h-2.746V90.498h7.594v2.442zM103.151 92.956h-1.553v2.253h1.553c.753 0 1.193-.548 1.193-1.127s-.44-1.126-1.193-1.126zm1.35 8.685l-1.977-4.147h-.926v4.147h-2.745V90.498h4.424c2.479 0 3.812 1.754 3.812 3.584 0 1.518-.941 2.473-1.82 2.911l2.416 4.648h-3.184zM108.612 101.641h2.746V90.498h-2.746zM113.146 101.641V90.5h7.594v2.441h-4.848v1.862h4.142v2.442h-4.142V99.2h4.848v2.441zM128.538 101.641l-3.577-5.602v5.602h-2.746V90.5h2.4l3.578 5.602V90.5h2.745v11.142z"/>
    </g>
</svg>
