<svg xmlns="http://www.w3.org/2000/svg" xmlns:xlink="http://www.w3.org/1999/xlink" width="32" height="32" viewBox="0 0 32 32">
    <defs>
        <path id="a" d="M0 15.954c0 8.738 7.125 15.821 15.914 15.821s15.913-7.083 15.913-15.821S24.703.133 15.914.133C7.125.133 0 7.216 0 15.953"/>
        <path id="c" d="M0 15.954c0 8.738 7.125 15.821 15.914 15.821s15.913-7.083 15.913-15.821S24.703.133 15.914.133C7.125.133 0 7.216 0 15.953z"/>
        <path id="e" d="M0 15.954c0 8.738 7.125 15.821 15.914 15.821s15.913-7.083 15.913-15.821S24.703.133 15.914.133C7.125.133 0 7.216 0 15.953"/>
        <path id="g" d="M0 15.954c0 8.738 7.125 15.821 15.914 15.821s15.913-7.083 15.913-15.821S24.703.133 15.914.133C7.125.133 0 7.216 0 15.953"/>
        <path id="i" d="M0 15.954c0 8.738 7.125 15.821 15.914 15.821s15.913-7.083 15.913-15.821S24.703.133 15.914.133C7.125.133 0 7.216 0 15.953"/>
        <path id="k" d="M0 15.954c0 8.738 7.125 15.821 15.914 15.821s15.913-7.083 15.913-15.821S24.703.133 15.914.133C7.125.133 0 7.216 0 15.953"/>
        <path id="m" d="M0 15.954c0 8.738 7.125 15.821 15.914 15.821s15.913-7.083 15.913-15.821S24.703.133 15.914.133C7.125.133 0 7.216 0 15.953"/>
        <path id="o" d="M0 15.954c0 8.738 7.125 15.821 15.914 15.821s15.913-7.083 15.913-15.821S24.703.133 15.914.133C7.125.133 0 7.216 0 15.953"/>
        <path id="q" d="M0 15.954c0 8.738 7.125 15.821 15.914 15.821s15.913-7.083 15.913-15.821S24.703.133 15.914.133C7.125.133 0 7.216 0 15.953"/>
        <path id="s" d="M0 15.954c0 8.738 7.125 15.821 15.914 15.821s15.913-7.083 15.913-15.821S24.703.133 15.914.133C7.125.133 0 7.216 0 15.953"/>
        <path id="u" d="M0 15.954c0 8.738 7.125 15.821 15.914 15.821s15.913-7.083 15.913-15.821S24.703.133 15.914.133C7.125.133 0 7.216 0 15.953z"/>
        <path id="w" d="M0 15.954c0 8.738 7.125 15.821 15.914 15.821s15.913-7.083 15.913-15.821S24.703.133 15.914.133C7.125.133 0 7.216 0 15.953"/>
        <path id="y" d="M0 15.954c0 8.738 7.125 15.821 15.914 15.821s15.913-7.083 15.913-15.821S24.703.133 15.914.133C7.125.133 0 7.216 0 15.953"/>
        <path id="A" d="M0 15.954c0 8.738 7.125 15.821 15.914 15.821s15.913-7.083 15.913-15.821S24.703.133 15.914.133C7.125.133 0 7.216 0 15.953"/>
        <path id="C" d="M0 15.947C0 24.68 7.122 31.76 15.906 31.76c8.786 0 15.907-7.08 15.907-15.814S24.692.133 15.906.133C7.122.133 0 7.213 0 15.947"/>
    </defs>
    <g fill="none" fill-rule="evenodd">
        <path fill="#FFCA05" d="M15.914.186C7.124.186 0 7.269 0 16.007S7.125 31.83 15.914 31.83s15.913-7.084 15.913-15.822S24.703.186 15.914.186"/>
        <g transform="translate(0 .054)">
            <mask id="b" fill="#fff">
                <use xlink:href="#a"/>
            </mask>
            <path fill="#A76651" d="M18.923 29.947s.352 5.697 2.942 5.648c2.15-.04 2.838-2.063 2.177-5.124-.704-3.261-2.636-5.15-2.636-5.15s-1.024-.59-1.879.78c-.888 1.422-.604 3.846-.604 3.846" mask="url(#b)"/>
        </g>
        <g transform="translate(0 .054)">
            <mask id="d" fill="#fff">
                <use xlink:href="#c"/>
            </mask>
            <path fill="#161112" d="M21.831 35.81c-2.73 0-3.108-5.61-3.123-5.85a.215.215 0 0 1 .202-.227.216.216 0 0 1 .228.2c.003.056.365 5.449 2.694 5.449h.029c.703-.014 1.248-.255 1.617-.719.634-.794.759-2.267.353-4.147-.68-3.155-2.557-5.025-2.576-5.044a.213.213 0 0 1-.002-.302.216.216 0 0 1 .304-.002c.08.079 1.986 1.972 2.695 5.258.44 2.037.289 3.593-.436 4.503-.454.569-1.109.865-1.947.88h-.038z" mask="url(#d)"/>
        </g>
        <g transform="translate(0 .054)">
            <mask id="f" fill="#fff">
                <use xlink:href="#e"/>
            </mask>
            <path fill="#A76651" d="M12.905 29.947s-.352 5.697-2.942 5.648c-2.15-.04-2.838-2.063-2.177-5.124.704-3.261 2.635-5.15 2.635-5.15s1.024-.59 1.88.78c.888 1.422.604 3.846.604 3.846" mask="url(#f)"/>
        </g>
        <g transform="translate(0 .054)">
            <mask id="h" fill="#fff">
                <use xlink:href="#g"/>
            </mask>
            <path fill="#161112" d="M9.996 35.81H9.96c-.839-.016-1.494-.312-1.947-.88-.725-.91-.876-2.467-.437-4.504.71-3.286 2.615-5.18 2.696-5.258a.216.216 0 0 1 .304.002.213.213 0 0 1-.002.302c-.02.02-1.896 1.89-2.577 5.044-.405 1.88-.28 3.353.353 4.147.37.464.914.705 1.618.718h.028c2.33.001 2.691-5.392 2.695-5.447a.215.215 0 0 1 .43.026c-.016.24-.393 5.85-3.124 5.85" mask="url(#h)"/>
        </g>
        <g transform="translate(0 .054)">
            <mask id="j" fill="#fff">
                <use xlink:href="#i"/>
            </mask>
            <path fill="#A76651" d="M21.374 40.826c.724-4.61.185-12.046.185-12.046l-.788-3.727h-9.913l-.59 3.727s-.539 7.436.186 12.046c0 0-.76.756-.465 1.833.294 1.078 1.62 1.22 2.832 1.22 1.363 0 3.093-.715 3.093-2.228 0 1.513 1.729 2.228 3.092 2.228 1.212 0 2.539-.142 2.833-1.22.294-1.077-.465-1.833-.465-1.833" mask="url(#j)"/>
        </g>
        <g transform="translate(0 .054)">
            <mask id="l" fill="#fff">
                <use xlink:href="#k"/>
            </mask>
            <path fill="#161112" d="M12.821 44.093c-1.24 0-2.707-.157-3.04-1.377-.268-.982.243-1.715.445-1.957-.697-4.588-.177-11.92-.172-11.995a.216.216 0 0 1 .23-.198.215.215 0 0 1 .2.23c-.006.073-.53 7.464.182 11.997a.213.213 0 0 1-.06.185c-.027.027-.666.686-.41 1.625.256.936 1.47 1.062 2.625 1.062 1.195 0 2.877-.625 2.877-2.014v-5.114c0-.118.097-.214.216-.214s.215.096.215.214v5.114c0 1.586-1.704 2.442-3.308 2.442" mask="url(#l)"/>
        </g>
        <g transform="translate(0 .054)">
            <mask id="n" fill="#fff">
                <use xlink:href="#m"/>
            </mask>
            <path fill="#161112" d="M19.006 44.093c-1.603 0-3.308-.856-3.308-2.442v-5.114c0-.118.097-.214.216-.214s.215.096.215.214v5.114c0 1.389 1.683 2.014 2.877 2.014 1.155 0 2.37-.126 2.625-1.062.258-.947-.403-1.618-.41-1.625a.213.213 0 0 1-.06-.185c.712-4.533.189-11.924.183-11.998a.215.215 0 0 1 .2-.229c.119-.006.221.08.23.198.005.075.525 7.407-.172 11.995.202.242.712.975.444 1.957-.333 1.22-1.8 1.377-3.04 1.377" mask="url(#n)"/>
        </g>
        <g transform="translate(0 .054)">
            <mask id="p" fill="#fff">
                <use xlink:href="#o"/>
            </mask>
            <path fill="#A76651" d="M23.604 10.695c.16-.466.417-1.392.086-2.392-.358-1.08-1.48-1.857-2.786-1.643-1.24.202-1.78 1.135-2.048 1.762-.908-.158-1.485-.252-2.939-.273-1.454.02-2.03.113-2.938.27-.27-.626-.806-1.56-2.047-1.763-1.306-.214-2.428.562-2.787 1.64-.333 1.001-.076 1.926.084 2.393-.801.714-3.6 2.898-3.423 7.355.178 4.5 4.732 9.132 11.094 9.11 6.373.037 10.939-4.597 11.121-9.101.18-4.457-2.617-6.643-3.417-7.358" mask="url(#p)"/>
        </g>
        <g transform="translate(0 .054)">
            <mask id="r" fill="#fff">
                <use xlink:href="#q"/>
            </mask>
            <path fill="#7A4938" d="M22.062 7.77c1.052.537.827 1.989.41 2.659 0 0-.437-.355-1.339-.849-.901-.494-1.409-.674-1.409-.674.194-.555 1.04-1.796 2.338-1.136" mask="url(#r)"/>
        </g>
        <g transform="translate(0 .054)">
            <mask id="t" fill="#fff">
                <use xlink:href="#s"/>
            </mask>
            <path fill="#7A4938" d="M9.765 7.77c-1.052.537-.828 1.989-.41 2.659 0 0 .437-.355 1.339-.849.902-.494 1.409-.674 1.409-.674-.194-.555-1.041-1.796-2.338-1.136" mask="url(#t)"/>
        </g>
        <g transform="translate(0 .054)">
            <mask id="v" fill="#fff">
                <use xlink:href="#u"/>
            </mask>
            <path fill="#161112" d="M15.9 26.94h.073c6.269 0 10.659-4.587 10.833-8.896.167-4.118-2.28-6.257-3.2-7.062l-.146-.128a.214.214 0 0 1-.06-.228c.281-.82.31-1.578.085-2.256a2.268 2.268 0 0 0-2.546-1.5c-.856.14-1.473.675-1.885 1.636a.215.215 0 0 1-.235.127c-.937-.163-1.492-.25-2.905-.27-1.407.02-1.961.105-2.898.267a.216.216 0 0 1-.235-.127c-.413-.96-1.03-1.496-1.884-1.636A2.268 2.268 0 0 0 8.35 8.364c-.225.677-.197 1.436.084 2.256a.214.214 0 0 1-.06.229l-.146.128c-.922.804-3.37 2.941-3.206 7.059.17 4.307 4.563 8.904 10.834 8.904h.044zm.074.428h-.12c-2.996 0-5.822-1.034-7.962-2.913-2.007-1.761-3.21-4.095-3.301-6.403-.172-4.32 2.388-6.556 3.352-7.397l.038-.033c-.27-.86-.283-1.664-.04-2.392.416-1.254 1.69-2.004 3.026-1.785.963.158 1.665.726 2.14 1.735.842-.144 1.451-.226 2.807-.245 1.361.02 1.971.103 2.814.247.475-1.008 1.177-1.576 2.141-1.734 1.336-.219 2.61.533 3.025 1.788.243.73.228 1.534-.042 2.392l.037.033c.964.841 3.522 3.078 3.348 7.4-.094 2.31-1.301 4.645-3.313 6.406-2.139 1.872-4.96 2.901-7.95 2.901z" mask="url(#v)"/>
        </g>
        <g transform="translate(0 .054)">
            <mask id="x" fill="#fff">
                <use xlink:href="#w"/>
            </mask>
            <path fill="#FCD5B4" d="M18.264 20.664c0 1.585-1.053 2.87-2.35 2.87-1.298 0-2.35-1.285-2.35-2.87 0-1.585 1.052-2.87 2.35-2.87 1.297 0 2.35 1.285 2.35 2.87" mask="url(#x)"/>
        </g>
        <g transform="translate(0 .054)">
            <mask id="z" fill="#fff">
                <use xlink:href="#y"/>
            </mask>
            <path fill="#161112" d="M15.22 22.399a.214.214 0 0 1-.199-.296l.678-1.62V19.14c0-.118.096-.214.215-.214.12 0 .215.096.215.214v1.308l.824 1.01a.213.213 0 0 1-.032.3.216.216 0 0 1-.302-.03l-.645-.79-.555 1.328a.215.215 0 0 1-.199.132" mask="url(#z)"/>
        </g>
        <g transform="translate(0 .054)">
            <mask id="B" fill="#fff">
                <use xlink:href="#A"/>
            </mask>
            <path fill="#161112" d="M15.914 19.584c-.428 0-.944-.75-.873-1.051.072-.3.533-.295.873-.295.34 0 .8-.006.872.295.072.3-.444 1.05-.872 1.05" mask="url(#B)"/>
        </g>
        <g transform="translate(0 .054)">
            <mask id="D" fill="#fff">
                <use xlink:href="#C"/>
            </mask>
            <path fill="#161112" d="M18.02 17.008a.738.738 0 0 1-.74.736c-.409 0-.74-.33-.74-.736 0-.407.331-.737.74-.737.41 0 .74.33.74.737" mask="url(#D)"/>
        </g>
        <path fill="#161112" d="M15.289 17.061a.739.739 0 0 1-.741.736c-.41 0-.74-.33-.74-.736 0-.407.33-.736.74-.736.409 0 .74.33.74.736"/>
    </g>
</svg>
