<svg xmlns="http://www.w3.org/2000/svg" xmlns:xlink="http://www.w3.org/1999/xlink" width="171" height="172" viewBox="0 0 171 172">
    <defs>
        <path id="a" d="M0 .072h170.078V170.15H0z"/>
        <path id="c" d="M0 85.113c0 46.965 38.074 85.037 85.039 85.037 46.967 0 85.039-38.072 85.039-85.037 0-46.968-38.072-85.04-85.039-85.04C38.074.073 0 38.145 0 85.113z"/>
        <path id="e" d="M0 85.113c0 46.965 38.074 85.037 85.039 85.037 46.967 0 85.039-38.072 85.039-85.037 0-46.968-38.072-85.04-85.039-85.04C38.074.073 0 38.145 0 85.113"/>
        <path id="g" d="M0 85.113c0 46.965 38.074 85.037 85.039 85.037 46.967 0 85.039-38.072 85.039-85.037 0-46.968-38.072-85.04-85.039-85.04C38.074.073 0 38.145 0 85.113z"/>
        <path id="i" d="M0 85.113c0 46.965 38.074 85.037 85.039 85.037 46.967 0 85.039-38.072 85.039-85.037 0-46.968-38.072-85.04-85.039-85.04C38.074.073 0 38.145 0 85.113"/>
        <path id="k" d="M0 85.113c0 46.965 38.074 85.037 85.039 85.037 46.967 0 85.039-38.072 85.039-85.037 0-46.968-38.072-85.04-85.039-85.04C38.074.073 0 38.145 0 85.113"/>
        <path id="m" d="M0 85.113c0 46.965 38.074 85.037 85.039 85.037 46.967 0 85.039-38.072 85.039-85.037 0-46.968-38.072-85.04-85.039-85.04C38.074.073 0 38.145 0 85.113"/>
        <path id="o" d="M0 85.113c0 46.965 38.074 85.037 85.039 85.037 46.967 0 85.039-38.072 85.039-85.037 0-46.968-38.072-85.04-85.039-85.04C38.074.073 0 38.145 0 85.113z"/>
        <path id="q" d="M0 85.113c0 46.965 38.074 85.037 85.039 85.037 46.967 0 85.039-38.072 85.039-85.037 0-46.968-38.072-85.04-85.039-85.04C38.074.073 0 38.145 0 85.113z"/>
        <path id="s" d="M0 85.113c0 46.965 38.074 85.037 85.039 85.037 46.967 0 85.039-38.072 85.039-85.037 0-46.968-38.072-85.04-85.039-85.04C38.074.073 0 38.145 0 85.113"/>
        <path id="u" d="M0 85.113c0 46.965 38.074 85.037 85.039 85.037 46.967 0 85.039-38.072 85.039-85.037 0-46.968-38.072-85.04-85.039-85.04C38.074.073 0 38.145 0 85.113"/>
        <path id="w" d="M0 85.113c0 46.965 38.074 85.037 85.039 85.037 46.967 0 85.039-38.072 85.039-85.037 0-46.968-38.072-85.04-85.039-85.04C38.074.073 0 38.145 0 85.113"/>
        <path id="y" d="M0 85.113c0 46.965 38.074 85.037 85.039 85.037 46.967 0 85.039-38.072 85.039-85.037 0-46.968-38.072-85.04-85.039-85.04C38.074.073 0 38.145 0 85.113"/>
        <path id="A" d="M0 85.113c0 46.965 38.074 85.037 85.039 85.037 46.967 0 85.039-38.072 85.039-85.037 0-46.968-38.072-85.04-85.039-85.04C38.074.073 0 38.145 0 85.113"/>
        <path id="C" d="M0 85.113c0 46.965 38.074 85.037 85.039 85.037 46.967 0 85.039-38.072 85.039-85.037 0-46.968-38.072-85.04-85.039-85.04C38.074.073 0 38.145 0 85.113"/>
        <path id="E" d="M0 85.113c0 46.965 38.074 85.037 85.039 85.037 46.967 0 85.039-38.072 85.039-85.037 0-46.968-38.072-85.04-85.039-85.04C38.074.073 0 38.145 0 85.113z"/>
        <path id="G" d="M0 85.113c0 46.965 38.074 85.037 85.039 85.037 46.967 0 85.039-38.072 85.039-85.037 0-46.968-38.072-85.04-85.039-85.04C38.074.073 0 38.145 0 85.113"/>
        <path id="I" d="M0 85.113c0 46.965 38.074 85.037 85.039 85.037 46.967 0 85.039-38.072 85.039-85.037 0-46.968-38.072-85.04-85.039-85.04C38.074.073 0 38.145 0 85.113"/>
        <path id="K" d="M0 85.113c0 46.965 38.074 85.037 85.039 85.037 46.967 0 85.039-38.072 85.039-85.037 0-46.968-38.072-85.04-85.039-85.04C38.074.073 0 38.145 0 85.113"/>
        <path id="M" d="M0 85.113c0 46.965 38.074 85.037 85.039 85.037 46.967 0 85.039-38.072 85.039-85.037 0-46.968-38.072-85.04-85.039-85.04C38.074.073 0 38.145 0 85.113"/>
        <path id="O" d="M0 85.113c0 46.965 38.074 85.037 85.039 85.037 46.967 0 85.039-38.072 85.039-85.037 0-46.968-38.072-85.04-85.039-85.04C38.074.073 0 38.145 0 85.113"/>
        <path id="Q" d="M0 85.113c0 46.965 38.074 85.037 85.039 85.037 46.967 0 85.039-38.072 85.039-85.037 0-46.968-38.072-85.04-85.039-85.04C38.074.073 0 38.145 0 85.113"/>
        <path id="S" d="M0 85.113c0 46.965 38.074 85.037 85.039 85.037 46.967 0 85.039-38.072 85.039-85.037 0-46.968-38.072-85.04-85.039-85.04C38.074.073 0 38.145 0 85.113"/>
        <path id="U" d="M0 85.113c0 46.965 38.074 85.037 85.039 85.037 46.967 0 85.039-38.072 85.039-85.037 0-46.968-38.072-85.04-85.039-85.04C38.074.073 0 38.145 0 85.113z"/>
        <path id="W" d="M0 85.113c0 46.965 38.074 85.037 85.039 85.037 46.967 0 85.039-38.072 85.039-85.037 0-46.968-38.072-85.04-85.039-85.04C38.074.073 0 38.145 0 85.113"/>
        <path id="Y" d="M0 85.113c0 46.965 38.074 85.037 85.039 85.037 46.967 0 85.039-38.072 85.039-85.037 0-46.968-38.072-85.04-85.039-85.04C38.074.073 0 38.145 0 85.113"/>
        <path id="aa" d="M0 85.113c0 46.965 38.074 85.037 85.039 85.037 46.967 0 85.039-38.072 85.039-85.037 0-46.968-38.072-85.04-85.039-85.04C38.074.073 0 38.145 0 85.113"/>
        <path id="ac" d="M0 85.113c0 46.965 38.074 85.037 85.039 85.037 46.967 0 85.039-38.072 85.039-85.037 0-46.968-38.072-85.04-85.039-85.04C38.074.073 0 38.145 0 85.113"/>
        <path id="ae" d="M0 85.113c0 46.965 38.074 85.037 85.039 85.037 46.967 0 85.039-38.072 85.039-85.037 0-46.968-38.072-85.04-85.039-85.04C38.074.073 0 38.145 0 85.113"/>
        <path id="ag" d="M0 85.113c0 46.965 38.074 85.037 85.039 85.037 46.967 0 85.039-38.072 85.039-85.037 0-46.968-38.072-85.04-85.039-85.04C38.074.073 0 38.145 0 85.113"/>
        <path id="ai" d="M0 85.113c0 46.965 38.074 85.037 85.039 85.037 46.967 0 85.039-38.072 85.039-85.037 0-46.968-38.072-85.04-85.039-85.04C38.074.073 0 38.145 0 85.113"/>
        <path id="ak" d="M0 85.113c0 46.965 38.074 85.037 85.039 85.037 46.967 0 85.039-38.072 85.039-85.037 0-46.968-38.072-85.04-85.039-85.04C38.074.073 0 38.145 0 85.113"/>
        <path id="am" d="M0 85.113c0 46.965 38.074 85.037 85.039 85.037 46.967 0 85.039-38.072 85.039-85.037 0-46.968-38.072-85.04-85.039-85.04C38.074.073 0 38.145 0 85.113"/>
        <path id="ao" d="M0 85.113c0 46.965 38.074 85.037 85.039 85.037 46.967 0 85.039-38.072 85.039-85.037 0-46.968-38.072-85.04-85.039-85.04C38.074.073 0 38.145 0 85.113"/>
        <path id="aq" d="M0 85.113c0 46.965 38.074 85.037 85.039 85.037 46.967 0 85.039-38.072 85.039-85.037 0-46.968-38.072-85.04-85.039-85.04C38.074.073 0 38.145 0 85.113"/>
        <path id="as" d="M0 85.113c0 46.965 38.074 85.037 85.039 85.037 46.967 0 85.039-38.072 85.039-85.037 0-46.968-38.072-85.04-85.039-85.04C38.074.073 0 38.145 0 85.113"/>
        <path id="au" d="M0 85.113c0 46.965 38.074 85.037 85.039 85.037 46.967 0 85.039-38.072 85.039-85.037 0-46.968-38.072-85.04-85.039-85.04C38.074.073 0 38.145 0 85.113"/>
        <path id="aw" d="M0 85.113c0 46.965 38.074 85.037 85.039 85.037 46.967 0 85.039-38.072 85.039-85.037 0-46.968-38.072-85.04-85.039-85.04C38.074.073 0 38.145 0 85.113"/>
        <path id="ay" d="M0 85.113c0 46.965 38.074 85.037 85.039 85.037 46.967 0 85.039-38.072 85.039-85.037 0-46.968-38.072-85.04-85.039-85.04C38.074.073 0 38.145 0 85.113"/>
        <path id="aA" d="M0 85.113c0 46.965 38.074 85.037 85.039 85.037 46.967 0 85.039-38.072 85.039-85.037 0-46.968-38.072-85.04-85.039-85.04C38.074.073 0 38.145 0 85.113"/>
        <path id="aC" d="M0 85.113c0 46.965 38.074 85.037 85.039 85.037 46.967 0 85.039-38.072 85.039-85.037 0-46.968-38.072-85.04-85.039-85.04C38.074.073 0 38.145 0 85.113"/>
        <path id="aE" d="M0 85.113c0 46.965 38.074 85.037 85.039 85.037 46.967 0 85.039-38.072 85.039-85.037 0-46.968-38.072-85.04-85.039-85.04C38.074.073 0 38.145 0 85.113"/>
    </defs>
    <g fill="none" fill-rule="evenodd">
        <g transform="translate(-1 .928)">
            <mask id="b" fill="#fff">
                <use xlink:href="#a"/>
            </mask>
            <path fill="#00AEA4" d="M85.04.072C38.072.072 0 38.145 0 85.112c0 46.965 38.073 85.038 85.04 85.038 46.965 0 85.038-38.073 85.038-85.039S132.005.072 85.04.072" mask="url(#b)"/>
        </g>
        <g transform="translate(-1 .928)">
            <mask id="d" fill="#fff">
                <use xlink:href="#c"/>
            </mask>
            <path fill="#FEFEFE" d="M47.092 200.954c-13.62 1.39-17.58-15.926-13.671-38.094 3.909-22.169 14.574-32.96 22.258-40.415h9.279l-10.95 75.396-6.916 3.113z" mask="url(#d)"/>
        </g>
        <g transform="translate(-1 .928)">
            <mask id="f" fill="#fff">
                <use xlink:href="#e"/>
            </mask>
            <path fill="#161112" d="M45.574 202.198c-3.604 0-6.639-1.3-9.034-3.877-5.639-6.064-7.193-19.063-4.267-35.663 4.07-23.078 15.667-34.327 22.595-41.049a1.165 1.165 0 0 1 1.622 1.672c-7.16 6.947-17.983 17.446-21.922 39.781-2.758 15.641-1.384 28.23 3.678 33.672 2.226 2.396 5.162 3.428 8.727 3.062a1.164 1.164 0 0 1 .238 2.316c-.559.058-1.104.086-1.637.086" mask="url(#f)"/>
        </g>
        <g transform="translate(-1 .928)">
            <mask id="h" fill="#fff">
                <use xlink:href="#g"/>
            </mask>
            <path fill="#FEFEFE" d="M122.985 200.954c13.621 1.39 17.581-15.926 13.672-38.094-3.909-22.169-14.575-32.96-22.259-40.415h-9.278l10.948 75.396 6.917 3.113z" mask="url(#h)"/>
        </g>
        <g transform="translate(-1 .928)">
            <mask id="j" fill="#fff">
                <use xlink:href="#i"/>
            </mask>
            <path fill="#161112" d="M124.504 202.198c-.533 0-1.08-.028-1.637-.086a1.164 1.164 0 0 1-1.04-1.276 1.155 1.155 0 0 1 1.277-1.04c3.567.364 6.502-.666 8.729-3.062 5.06-5.443 6.436-18.03 3.677-33.672-3.938-22.333-14.761-32.833-21.922-39.78a1.165 1.165 0 0 1 1.622-1.672c6.929 6.722 18.524 17.973 22.595 41.048 2.927 16.6 1.372 29.598-4.266 35.662-2.396 2.577-5.431 3.878-9.035 3.878" mask="url(#j)"/>
        </g>
        <g transform="translate(-1 .928)">
            <mask id="l" fill="#fff">
                <use xlink:href="#k"/>
            </mask>
            <path fill="#FEFEFE" d="M85.024 187.816c27.49 0 41.075-5.736 41.168-5.775 3.14-13.213-1.096-25.75-4.768-31.45l-.837-8.432-6.189-19.714h-58.72l-6.187 19.714-.838 8.432c-3.823 5.935-8.255 19.285-4.337 33.09a38.887 38.887 0 0 1-.43-1.64c.087.037 13.644 5.775 41.138 5.775" mask="url(#l)"/>
        </g>
        <g transform="translate(-1 .928)">
            <mask id="n" fill="#fff">
                <use xlink:href="#m"/>
            </mask>
            <path fill="#161112" d="M106.955 257c-14.216 0-19.82-3.865-21.916-8.564-2.097 4.699-7.7 8.564-21.916 8.564-12.226 0-16.07-5.142-17.273-8.206-1.807-4.604.03-9.729 2.86-12.652l-3.532-46.682c-7.365-16.394-1.78-32.677 2.343-39.259l.812-8.157a1.16 1.16 0 0 1 1.274-1.043c.64.063 1.108.634 1.043 1.274l-.838 8.433c-.018.183-.08.36-.179.515-4.547 7.057-8.899 22.858-2.249 37.463.056.124.092.257.101.394l3.587 47.426c.027.354-.109.701-.369.942-2.478 2.3-4.196 6.644-2.685 10.494 1.704 4.338 7.07 6.728 15.105 6.728 20.751 0 20.751-8.542 20.751-12.649a1.165 1.165 0 1 1 2.33 0c0 4.107 0 12.649 20.751 12.649 8.037 0 13.401-2.389 15.104-6.728 1.512-3.85-.207-8.194-2.685-10.494a1.164 1.164 0 0 1-.369-.942l3.588-47.427a1.14 1.14 0 0 1 .101-.393c6.65-14.605 2.298-30.406-2.249-37.463a1.177 1.177 0 0 1-.179-.515l-.838-8.433a1.164 1.164 0 1 1 2.318-.231l.811 8.157c4.122 6.582 9.707 22.866 2.343 39.259l-3.53 46.682c2.828 2.924 4.665 8.049 2.857 12.652-1.203 3.064-5.046 8.206-17.272 8.206" mask="url(#n)"/>
        </g>
        <g transform="translate(-1 .928)">
            <mask id="p" fill="#fff">
                <use xlink:href="#o"/>
            </mask>
            <path fill="#CD171E" d="M85.04 181.11l11.39-9.367-5.8-27.208 5.43-8.316-4.27-9.969H78.288l-4.27 9.97 5.43 8.315-5.799 27.208z" mask="url(#p)"/>
        </g>
        <g transform="translate(-1 .928)">
            <mask id="r" fill="#fff">
                <use xlink:href="#q"/>
            </mask>
            <path fill="#161112" d="M74.936 171.293l10.103 8.309 10.105-8.309-5.654-26.515a1.16 1.16 0 0 1 .165-.88l5.09-7.793-3.723-8.691H79.056l-3.724 8.691 5.09 7.793c.17.26.23.577.165.88l-5.651 26.515zm10.103 10.98c-.263 0-.526-.087-.74-.264l-11.39-9.366a1.163 1.163 0 0 1-.399-1.143l5.697-26.733-5.165-7.911a1.163 1.163 0 0 1-.097-1.095l4.273-9.97a1.165 1.165 0 0 1 1.07-.706H91.79c.466 0 .886.277 1.072.706l4.27 9.97c.153.358.117.769-.096 1.095l-5.166 7.911 5.698 26.733c.091.426-.063.867-.398 1.143l-11.392 9.366a1.16 1.16 0 0 1-.739.264z" mask="url(#r)"/>
        </g>
        <g transform="translate(-1 .928)">
            <mask id="t" fill="#fff">
                <use xlink:href="#s"/>
            </mask>
            <path fill="#161112" d="M90.628 145.7a1.16 1.16 0 0 1-.607-.172c-.047-.027-2.004-1.179-5.004-1.179-3.014 0-4.933 1.163-4.952 1.174a1.168 1.168 0 0 1-1.602-.373 1.16 1.16 0 0 1 .363-1.599c.1-.063 2.467-1.532 6.19-1.532 3.719 0 6.126 1.463 6.226 1.526a1.164 1.164 0 0 1-.614 2.155" mask="url(#t)"/>
        </g>
        <g transform="translate(-1 .928)">
            <mask id="v" fill="#fff">
                <use xlink:href="#u"/>
            </mask>
            <path fill="#FEFEFE" d="M111.637 127.484l-15.835 17.027-10.763-14.69-10.761 14.69-15.837-17.027" mask="url(#v)"/>
        </g>
        <g transform="translate(-1 .928)">
            <mask id="x" fill="#fff">
                <use xlink:href="#w"/>
            </mask>
            <path fill="#161112" d="M95.802 145.677l-.067-.003a1.158 1.158 0 0 1-.872-.474l-9.824-13.408-9.823 13.408a1.154 1.154 0 0 1-.871.474 1.144 1.144 0 0 1-.92-.37l-15.837-17.026a1.165 1.165 0 0 1 1.705-1.586l14.877 15.995 9.93-13.554c.437-.6 1.44-.6 1.878 0l9.93 13.554 14.875-15.995a1.165 1.165 0 1 1 1.707 1.586l-15.834 17.027a1.169 1.169 0 0 1-.854.372" mask="url(#x)"/>
        </g>
        <g transform="translate(-1 .928)">
            <mask id="z" fill="#fff">
                <use xlink:href="#y"/>
            </mask>
            <path fill="#FCD1AF" d="M134.782 93.09c3.896-2.083 7.224-9.484 4.45-15.668-2.773-6.185-8.406-6.206-12.136-4.363 0 0-4.468 1.636-4.468 13.36 0 11.725 12.154 6.672 12.154 6.672" mask="url(#z)"/>
        </g>
        <g transform="translate(-1 .928)">
            <mask id="B" fill="#fff">
                <use xlink:href="#A"/>
            </mask>
            <path fill="#161112" d="M134.782 94.256a1.164 1.164 0 0 1-.55-2.191c3.343-1.788 6.468-8.525 3.937-14.166-.994-2.22-2.434-3.68-4.279-4.343-1.9-.686-4.19-.486-6.278.548a1.165 1.165 0 0 1-1.03-2.09c2.65-1.31 5.6-1.548 8.096-.651 2.43.874 4.371 2.804 5.616 5.582 2.91 6.486-.335 14.699-4.963 17.173a1.156 1.156 0 0 1-.549.138" mask="url(#B)"/>
        </g>
        <g transform="translate(-1 .928)">
            <mask id="D" fill="#fff">
                <use xlink:href="#C"/>
            </mask>
            <path fill="#161112" d="M135.749 78.88c-.202 0-.405-.052-.592-.161-2.33-1.378-5.429-.907-6.837-.288a1.165 1.165 0 0 1-.94-2.131c1.903-.84 5.86-1.423 8.963.414a1.164 1.164 0 0 1-.594 2.167" mask="url(#D)"/>
        </g>
        <g transform="translate(-1 .928)">
            <mask id="F" fill="#fff">
                <use xlink:href="#E"/>
            </mask>
            <path fill="#161112" d="M132.476 84.636a1.165 1.165 0 0 1-1.135-.904c-.445-1.945-.844-5.111-.702-7.148a1.164 1.164 0 1 1 2.323.161c-.106 1.539.185 4.44.65 6.466a1.166 1.166 0 0 1-.875 1.396l-.261.029z" mask="url(#F)"/>
        </g>
        <g transform="translate(-1 .928)">
            <mask id="H" fill="#fff">
                <use xlink:href="#G"/>
            </mask>
            <path fill="#FCD1AF" d="M35.296 93.09c-3.896-2.083-7.224-9.484-4.45-15.668 2.773-6.185 8.405-6.206 12.136-4.363 0 0 4.468 1.636 4.468 13.36 0 11.725-12.154 6.672-12.154 6.672" mask="url(#H)"/>
        </g>
        <g transform="translate(-1 .928)">
            <mask id="J" fill="#fff">
                <use xlink:href="#I"/>
            </mask>
            <path fill="#161112" d="M35.295 94.256c-.185 0-.373-.044-.548-.138-4.628-2.474-7.873-10.687-4.963-17.173 1.245-2.778 3.187-4.708 5.615-5.582 2.494-.897 5.445-.66 8.098.652a1.165 1.165 0 1 1-1.032 2.089c-2.088-1.033-4.374-1.23-6.277-.55-1.844.665-3.285 2.126-4.28 4.345-2.53 5.64.595 12.378 3.938 14.166a1.164 1.164 0 0 1-.551 2.19" mask="url(#J)"/>
        </g>
        <g transform="translate(-1 .928)">
            <mask id="L" fill="#fff">
                <use xlink:href="#K"/>
            </mask>
            <path fill="#161112" d="M34.33 78.88a1.164 1.164 0 0 1-.596-2.166c3.104-1.837 7.061-1.254 8.964-.414a1.165 1.165 0 0 1-.94 2.13c-1.407-.62-4.507-1.088-6.838.289-.186.109-.39.162-.59.162" mask="url(#L)"/>
        </g>
        <g transform="translate(-1 .928)">
            <mask id="N" fill="#fff">
                <use xlink:href="#M"/>
            </mask>
            <path fill="#161112" d="M37.602 84.636l-.26-.03a1.166 1.166 0 0 1-.875-1.395c.465-2.028.755-4.93.65-6.466a1.164 1.164 0 1 1 2.323-.161c.142 2.034-.258 5.2-.703 7.148a1.166 1.166 0 0 1-1.135.904" mask="url(#N)"/>
        </g>
        <g transform="translate(-1 .928)">
            <mask id="P" fill="#fff">
                <use xlink:href="#O"/>
            </mask>
            <path fill="#FCD1AF" d="M85.04 34.442c-30.631 0-42.036 23.986-43.61 51.488-19.624 16.89-11.426 49.39 43.61 48.79 55.036.6 63.23-31.9 43.608-48.79-1.574-27.502-12.979-51.488-43.608-51.488" mask="url(#P)"/>
        </g>
        <g transform="translate(-1 .928)">
            <mask id="R" fill="#fff">
                <use xlink:href="#Q"/>
            </mask>
            <path fill="#FEFEFE" d="M50.278 60.387c2.592-.86 3.842-4.008 2.811-7.03-.363-1.062-.97-1.7-1.57-2.295-1.845 2.722-3.413 5.702-4.72 8.892 1.085.529 2.376.799 3.48.433" mask="url(#R)"/>
        </g>
        <g transform="translate(-1 .928)">
            <mask id="T" fill="#fff">
                <use xlink:href="#S"/>
            </mask>
            <path fill="#FEFEFE" d="M57.07 50.76c.976 0 1.948-.403 2.65-1.194 5.148-5.8 10.881-8.704 18.595-9.411 1.956-.181 3.396-1.921 3.218-3.89a3.527 3.527 0 0 0-.599-1.653c-12.213.917-21.075 5.938-27.275 13.55a3.54 3.54 0 0 0 3.411 2.599" mask="url(#T)"/>
        </g>
        <g transform="translate(-1 .928)">
            <mask id="V" fill="#fff">
                <use xlink:href="#U"/>
            </mask>
            <path fill="#161112" d="M85.04 35.607c-18.048 0-40.063 8.742-42.447 50.39a1.161 1.161 0 0 1-.403.817c-8.185 7.045-11.24 16.803-7.972 25.465 5.137 13.614 24.1 21.545 50.81 21.277 26.707.265 45.695-7.663 50.833-21.276 3.267-8.662.214-18.42-7.973-25.466a1.164 1.164 0 0 1-.402-.817c-2.384-41.648-24.398-50.39-42.446-50.39zm-1.575 100.287c-38.617.002-48.821-15.89-51.427-22.793-3.571-9.468-.407-20.05 8.258-27.727 2.066-33.6 17.943-52.096 44.744-52.096 26.8 0 42.677 18.496 44.743 52.096 8.665 7.678 11.829 18.26 8.256 27.729-2.64 6.994-13.09 23.185-53.011 22.783-.524.005-1.05.008-1.563.008z" mask="url(#V)"/>
        </g>
        <g transform="translate(-1 .928)">
            <mask id="X" fill="#fff">
                <use xlink:href="#W"/>
            </mask>
            <path fill="#F9B392" d="M85.038 91.206c-7.256 0-9.286 6.171-15.102 5.071-5.814-1.1-2.269-13.609 15.102-13.609 17.372 0 20.916 12.51 15.102 13.61-5.814 1.1-7.844-5.072-15.102-5.072" mask="url(#X)"/>
        </g>
        <g transform="translate(-1 .928)">
            <mask id="Z" fill="#fff">
                <use xlink:href="#Y"/>
            </mask>
            <path fill="#161112" d="M90.978 82.552a1.16 1.16 0 0 1-.673-.215c-1.356-.963-3.423-1.584-5.265-1.584-1.843 0-3.91.62-5.267 1.584a1.166 1.166 0 0 1-1.348-1.9c1.751-1.242 4.285-2.014 6.615-2.014s4.863.772 6.612 2.014a1.165 1.165 0 0 1-.674 2.115" mask="url(#Z)"/>
        </g>
        <g transform="translate(-1 .928)">
            <mask id="ab" fill="#fff">
                <use xlink:href="#aa"/>
            </mask>
            <path fill="#14B0E6" d="M107.702 82.273a9.203 9.203 0 1 1-18.406 0 9.203 9.203 0 0 1 18.406 0" mask="url(#ab)"/>
        </g>
        <g transform="translate(-1 .928)">
            <mask id="ad" fill="#fff">
                <use xlink:href="#ac"/>
            </mask>
            <path fill="#FEFEFE" d="M103.74 74.713a9.161 9.161 0 0 0-5.24-1.642 9.202 9.202 0 0 0-9.203 9.203c0 .875.13 1.719.356 2.52 4.222.627 12.7-5.573 14.086-10.081" mask="url(#ad)"/>
        </g>
        <g transform="translate(-1 .928)">
            <mask id="af" fill="#fff">
                <use xlink:href="#ae"/>
            </mask>
            <path fill="#161112" d="M98.499 74.236c-4.433 0-8.038 3.605-8.038 8.037 0 4.433 3.605 8.038 8.038 8.038s8.039-3.605 8.039-8.038c0-4.432-3.606-8.037-8.039-8.037m0 18.405c-5.717 0-10.367-4.65-10.367-10.368 0-5.717 4.65-10.367 10.367-10.367 5.717 0 10.368 4.65 10.368 10.367 0 5.717-4.651 10.368-10.368 10.368" mask="url(#af)"/>
        </g>
        <g transform="translate(-1 .928)">
            <mask id="ah" fill="#fff">
                <use xlink:href="#ag"/>
            </mask>
            <path fill="#14B0E6" d="M80.782 82.273a9.203 9.203 0 1 1-18.406 0 9.203 9.203 0 0 1 18.406 0" mask="url(#ah)"/>
        </g>
        <g transform="translate(-1 .928)">
            <mask id="aj" fill="#fff">
                <use xlink:href="#ai"/>
            </mask>
            <path fill="#FEFEFE" d="M76.818 74.713a9.158 9.158 0 0 0-5.239-1.642 9.203 9.203 0 0 0-9.203 9.203 9.2 9.2 0 0 0 .358 2.52c4.9.524 13.032-5.206 14.084-10.081" mask="url(#aj)"/>
        </g>
        <g transform="translate(-1 .928)">
            <mask id="al" fill="#fff">
                <use xlink:href="#ak"/>
            </mask>
            <path fill="#161112" d="M71.58 74.236c-4.434 0-8.04 3.605-8.04 8.037 0 4.433 3.606 8.038 8.04 8.038 4.432 0 8.037-3.605 8.037-8.038 0-4.432-3.605-8.037-8.038-8.037m0 18.405c-5.717 0-10.368-4.65-10.368-10.368 0-5.717 4.651-10.367 10.368-10.367 5.717 0 10.368 4.65 10.368 10.367 0 5.717-4.65 10.368-10.368 10.368" mask="url(#al)"/>
        </g>
        <g transform="translate(-1 .928)">
            <mask id="an" fill="#fff">
                <use xlink:href="#am"/>
            </mask>
            <path fill="#FCD1AF" d="M92.02 94.848c-1.965-3.001-4.245-5.575-6.965-5.575-2.723 0-5 2.574-6.966 5.575" mask="url(#an)"/>
        </g>
        <g transform="translate(-1 .928)">
            <mask id="ap" fill="#fff">
                <use xlink:href="#ao"/>
            </mask>
            <path fill="#161112" d="M92.022 96.012c-.38 0-.754-.185-.977-.526-2.255-3.444-4.157-5.048-5.99-5.048-1.833 0-3.736 1.604-5.992 5.048a1.165 1.165 0 1 1-1.948-1.277c1.86-2.84 4.444-6.1 7.94-6.1 3.495 0 6.08 3.26 7.94 6.1a1.167 1.167 0 0 1-.337 1.614 1.176 1.176 0 0 1-.636.189" mask="url(#ap)"/>
        </g>
        <g transform="translate(-1 .928)">
            <mask id="ar" fill="#fff">
                <use xlink:href="#aq"/>
            </mask>
            <path fill="#161112" d="M74.235 99.09c.77-1.012 2.434-.776 3.08.046.652-1.005 2.243-.852 2.625-.222.344-.386 1.634-.538 2.065.184.384-.482 1.69-.778 2.32-.214.765-.598 2.348-.664 3.164.384.94-1.235 3.05-.83 3.64-.063.86-1.076 2.376-.874 2.75.274.352-1.173 2.032-1.1 2.597-.184 1.41-1.475 2.175.188 2.175.188s1.074-1.052 1.428.187c.937 3.284-.66 4.208-1.93 3.29-.446.588-1.474.662-1.998.06-.158.168-1.399.502-1.805-.23-.16.378-.954.83-1.4-.022-.24.55-1.854 1.163-2.716.312-.087.252-1.906.434-2.544-.09-.214.438-1.274.803-1.97.21-.292.492-2.193.734-2.769-.296-.43.285-1.677.476-2.33-.316-.395.855-2.585 1.294-3.409.539-.248.473-1.56.577-1.975-.008-.198.413-1.283.45-1.405-.064-.224.529-1.647.41-2.16.108-.516-.302-1.302-1.461-.245-3.814.537-1.193 2.252-1.256 2.812-.26" mask="url(#ar)"/>
        </g>
        <g transform="translate(-1 .928)">
            <mask id="at" fill="#fff">
                <use xlink:href="#as"/>
            </mask>
            <path fill="#161112" d="M67.877 61.506a1.166 1.166 0 0 1-1.06-1.648c.739-1.62 2.29-2.925 4.258-3.585 1.991-.668 4.056-.552 5.663.315a1.165 1.165 0 0 1-1.107 2.05c-1.026-.555-2.453-.612-3.815-.157-1.337.45-2.415 1.325-2.878 2.343-.197.429-.62.682-1.061.682" mask="url(#at)"/>
        </g>
        <g transform="translate(-1 .928)">
            <mask id="av" fill="#fff">
                <use xlink:href="#au"/>
            </mask>
            <path fill="#161112" d="M102.201 61.506c-.442 0-.864-.253-1.06-.682-.465-1.018-1.542-1.893-2.879-2.343-1.363-.455-2.788-.398-3.815.157a1.164 1.164 0 1 1-1.107-2.05c1.608-.868 3.672-.982 5.663-.315 1.967.66 3.52 1.966 4.258 3.585a1.166 1.166 0 0 1-1.06 1.648" mask="url(#av)"/>
        </g>
        <g transform="translate(-1 .928)">
            <mask id="ax" fill="#fff">
                <use xlink:href="#aw"/>
            </mask>
            <path fill="#9E191D" d="M85.04 111.093c-2.14 0-4.878-1.354-5.756-3.618a1.166 1.166 0 0 1 2.173-.842c.432 1.115 2.14 2.13 3.582 2.13 1.46 0 3.105-.987 3.591-2.156a1.165 1.165 0 1 1 2.152.894c-.85 2.048-3.32 3.592-5.743 3.592" mask="url(#ax)"/>
        </g>
        <g transform="translate(-1 .928)">
            <mask id="az" fill="#fff">
                <use xlink:href="#ay"/>
            </mask>
            <path fill="#161112" d="M119.384 68.574c.196 3.446 1.282 21.495 1.383 23.568.037.715 1.042 1.585 1.945.412.914-1.209 3.823-4.796 5.888-7.33-.501-7.879-1.822-15.45-4.18-22.235a612.241 612.241 0 0 0-3.603 1.998c-1.87 1.08-1.596.756-1.433 3.587" mask="url(#az)"/>
        </g>
        <g transform="translate(-1 .928)">
            <mask id="aB" fill="#fff">
                <use xlink:href="#aA"/>
            </mask>
            <path fill="#161112" d="M124.16 63.665a598.983 598.983 0 0 0-3.11 1.725l-.286.163c-1.084.621-1.084.621-.98 2.014.02.279.043.601.065.981.073 1.285.27 4.601.494 8.362.367 6.196.825 13.907.888 15.21a.65.65 0 0 0 .414.526c.272.084.53-.157.698-.376.698-.925 2.643-3.348 5.78-7.199-.519-7.949-1.852-15.146-3.964-21.406m-2.402 29.929c-.163 0-.299-.031-.388-.058-.577-.181-1.036-.768-1.068-1.369-.064-1.3-.52-9.008-.889-15.201-.223-3.762-.42-7.08-.494-8.365-.02-.374-.045-.692-.065-.964-.138-1.868-.056-2.032 1.45-2.892l.28-.161a595.57 595.57 0 0 1 3.611-2.003.466.466 0 0 1 .666.256c2.261 6.507 3.675 14.029 4.204 22.357a.474.474 0 0 1-.103.324c-3.198 3.924-5.175 6.386-5.877 7.318-.475.615-.97.758-1.327.758" mask="url(#aB)"/>
        </g>
        <g transform="translate(-1 .928)">
            <mask id="aD" fill="#fff">
                <use xlink:href="#aC"/>
            </mask>
            <path fill="#161112" d="M50.688 68.574c-.197 3.446-1.282 21.495-1.383 23.568-.036.715-1.042 1.585-1.944.412-.914-1.209-3.823-4.796-5.889-7.33.502-7.879 1.822-15.45 4.18-22.235 1.606.887 3.35 1.851 3.603 1.998 1.87 1.08 1.596.756 1.433 3.587" mask="url(#aD)"/>
        </g>
        <g transform="translate(-1 .928)">
            <mask id="aF" fill="#fff">
                <use xlink:href="#aE"/>
            </mask>
            <path fill="#161112" d="M41.95 85.071c2.175 2.67 4.896 6.03 5.781 7.203.165.215.421.454.696.372.231-.072.403-.336.413-.528.064-1.32.531-9.18.906-15.496.217-3.642.405-6.822.477-8.074.022-.379.046-.702.067-.979.102-1.395.102-1.395-.984-2.016l-.284-.164c-.227-.13-1.658-.922-3.108-1.724-2.113 6.257-3.445 13.454-3.965 21.406m6.364 8.522c-.356 0-.85-.14-1.322-.754-.896-1.186-3.69-4.636-5.88-7.322a.462.462 0 0 1-.103-.323c.53-8.332 1.944-15.854 4.204-22.358a.47.47 0 0 1 .274-.283.476.476 0 0 1 .392.028c1.61.888 3.356 1.855 3.611 2.003l.28.161c1.506.86 1.587 1.023 1.45 2.892-.02.273-.044.591-.065.963-.072 1.252-.262 4.435-.477 8.077-.375 6.314-.842 14.17-.906 15.488-.032.602-.49 1.19-1.067 1.37a1.33 1.33 0 0 1-.39.058" mask="url(#aF)"/>
        </g>
    </g>
</svg>
