<svg xmlns="http://www.w3.org/2000/svg" xmlns:xlink="http://www.w3.org/1999/xlink" width="171" height="172" viewBox="0 0 171 172">
    <defs>
        <path id="a" d="M0 .182h170.078V170.26H0z"/>
        <path id="c" d="M0 85.22c0 46.968 38.074 85.04 85.039 85.04 46.967 0 85.039-38.072 85.039-85.04 0-46.965-38.072-85.037-85.039-85.037C38.074.183 0 38.255 0 85.22"/>
        <path id="e" d="M0 85.22c0 46.968 38.074 85.04 85.039 85.04 46.967 0 85.039-38.072 85.039-85.04 0-46.965-38.072-85.037-85.039-85.037C38.074.183 0 38.255 0 85.22"/>
        <path id="g" d="M0 85.22c0 46.968 38.074 85.04 85.039 85.04 46.967 0 85.039-38.072 85.039-85.04 0-46.965-38.072-85.037-85.039-85.037C38.074.183 0 38.255 0 85.22"/>
        <path id="i" d="M0 85.22c0 46.968 38.074 85.04 85.039 85.04 46.967 0 85.039-38.072 85.039-85.04 0-46.965-38.072-85.037-85.039-85.037C38.074.183 0 38.255 0 85.22"/>
        <path id="k" d="M0 85.22c0 46.968 38.074 85.04 85.039 85.04 46.967 0 85.039-38.072 85.039-85.04 0-46.965-38.072-85.037-85.039-85.037C38.074.183 0 38.255 0 85.22"/>
        <path id="m" d="M0 85.22c0 46.968 38.074 85.04 85.039 85.04 46.967 0 85.039-38.072 85.039-85.04 0-46.965-38.072-85.037-85.039-85.037C38.074.183 0 38.255 0 85.22"/>
        <path id="o" d="M0 85.22c0 46.968 38.074 85.04 85.039 85.04 46.967 0 85.039-38.072 85.039-85.04 0-46.965-38.072-85.037-85.039-85.037C38.074.183 0 38.255 0 85.22"/>
        <path id="q" d="M0 85.22c0 46.968 38.074 85.04 85.039 85.04 46.967 0 85.039-38.072 85.039-85.04 0-46.965-38.072-85.037-85.039-85.037C38.074.183 0 38.255 0 85.22"/>
        <path id="s" d="M0 85.22c0 46.968 38.074 85.04 85.039 85.04 46.967 0 85.039-38.072 85.039-85.04 0-46.965-38.072-85.037-85.039-85.037C38.074.183 0 38.255 0 85.22"/>
        <path id="u" d="M0 85.22c0 46.968 38.074 85.04 85.039 85.04 46.967 0 85.039-38.072 85.039-85.04 0-46.965-38.072-85.037-85.039-85.037C38.074.183 0 38.255 0 85.22"/>
        <path id="w" d="M0 85.22c0 46.968 38.074 85.04 85.039 85.04 46.967 0 85.039-38.072 85.039-85.04 0-46.965-38.072-85.037-85.039-85.037C38.074.183 0 38.255 0 85.22"/>
        <path id="y" d="M0 85.22c0 46.968 38.074 85.04 85.039 85.04 46.967 0 85.039-38.072 85.039-85.04 0-46.965-38.072-85.037-85.039-85.037C38.074.183 0 38.255 0 85.22z"/>
        <path id="A" d="M0 85.22c0 46.968 38.074 85.04 85.039 85.04 46.967 0 85.039-38.072 85.039-85.04 0-46.965-38.072-85.037-85.039-85.037C38.074.183 0 38.255 0 85.22"/>
        <path id="C" d="M0 85.22c0 46.968 38.074 85.04 85.039 85.04 46.967 0 85.039-38.072 85.039-85.04 0-46.965-38.072-85.037-85.039-85.037C38.074.183 0 38.255 0 85.22"/>
        <path id="E" d="M0 85.22c0 46.968 38.074 85.04 85.039 85.04 46.967 0 85.039-38.072 85.039-85.04 0-46.965-38.072-85.037-85.039-85.037C38.074.183 0 38.255 0 85.22"/>
        <path id="G" d="M0 85.22c0 46.968 38.074 85.04 85.039 85.04 46.967 0 85.039-38.072 85.039-85.04 0-46.965-38.072-85.037-85.039-85.037C38.074.183 0 38.255 0 85.22"/>
        <path id="I" d="M0 85.22c0 46.968 38.074 85.04 85.039 85.04 46.967 0 85.039-38.072 85.039-85.04 0-46.965-38.072-85.037-85.039-85.037C38.074.183 0 38.255 0 85.22"/>
        <path id="K" d="M0 85.22c0 46.968 38.074 85.04 85.039 85.04 46.967 0 85.039-38.072 85.039-85.04 0-46.965-38.072-85.037-85.039-85.037C38.074.183 0 38.255 0 85.22"/>
        <path id="M" d="M0 85.22c0 46.968 38.074 85.04 85.039 85.04 46.967 0 85.039-38.072 85.039-85.04 0-46.965-38.072-85.037-85.039-85.037C38.074.183 0 38.255 0 85.22"/>
        <path id="O" d="M0 85.22c0 46.968 38.074 85.04 85.039 85.04 46.967 0 85.039-38.072 85.039-85.04 0-46.965-38.072-85.037-85.039-85.037C38.074.183 0 38.255 0 85.22"/>
        <path id="Q" d="M0 85.22c0 46.968 38.074 85.04 85.039 85.04 46.967 0 85.039-38.072 85.039-85.04 0-46.965-38.072-85.037-85.039-85.037C38.074.183 0 38.255 0 85.22"/>
        <path id="S" d="M0 85.22c0 46.968 38.074 85.04 85.039 85.04 46.967 0 85.039-38.072 85.039-85.04 0-46.965-38.072-85.037-85.039-85.037C38.074.183 0 38.255 0 85.22"/>
        <path id="U" d="M0 85.22c0 46.968 38.074 85.04 85.039 85.04 46.967 0 85.039-38.072 85.039-85.04 0-46.965-38.072-85.037-85.039-85.037C38.074.183 0 38.255 0 85.22"/>
        <path id="W" d="M0 85.22c0 46.968 38.074 85.04 85.039 85.04 46.967 0 85.039-38.072 85.039-85.04 0-46.965-38.072-85.037-85.039-85.037C38.074.183 0 38.255 0 85.22"/>
        <path id="Y" d="M0 85.22c0 46.968 38.074 85.04 85.039 85.04 46.967 0 85.039-38.072 85.039-85.04 0-46.965-38.072-85.037-85.039-85.037C38.074.183 0 38.255 0 85.22"/>
    </defs>
    <g fill="none" fill-rule="evenodd">
        <g transform="translate(-1 .818)">
            <mask id="b" fill="#fff">
                <use xlink:href="#a"/>
            </mask>
            <path fill="#F7C1D8" d="M85.04.182C38.072.182 0 38.255 0 85.22s38.073 85.039 85.04 85.039c46.965 0 85.038-38.073 85.038-85.04 0-46.965-38.073-85.038-85.039-85.038" mask="url(#b)"/>
        </g>
        <g transform="translate(-1 .818)">
            <mask id="d" fill="#fff">
                <use xlink:href="#c"/>
            </mask>
            <path fill="#E09975" d="M60.138 129.81s-12.953 13.248-15.89 26.964c-2.936 13.719 1.19 19.464 8.35 20.001 9.085.683 13.343-14.877 15.607-24.819" mask="url(#d)"/>
        </g>
        <g transform="translate(-1 .818)">
            <mask id="f" fill="#fff">
                <use xlink:href="#e"/>
            </mask>
            <path fill="#161112" d="M53.207 177.964c-.229 0-.461-.01-.697-.026-3.441-.26-6.09-1.6-7.874-3.984-2.713-3.625-3.226-9.486-1.528-17.423 2.974-13.887 15.659-26.984 16.197-27.534a1.165 1.165 0 0 1 1.666 1.628c-.127.13-12.754 13.173-15.584 26.394-1.552 7.25-1.178 12.477 1.113 15.539 1.363 1.822 3.444 2.85 6.185 3.056 7.839.562 11.982-13.366 14.385-23.917a1.157 1.157 0 0 1 1.395-.876c.627.143 1.019.767.876 1.395-2.745 12.048-7.054 25.746-16.134 25.748" mask="url(#f)"/>
        </g>
        <g transform="translate(-1 .818)">
            <mask id="h" fill="#fff">
                <use xlink:href="#g"/>
            </mask>
            <path fill="#E09975" d="M109.94 129.81s12.954 13.248 15.891 26.964c2.935 13.719-1.192 19.464-8.35 20.001-9.086.683-13.344-14.877-15.607-24.819" mask="url(#h)"/>
        </g>
        <g transform="translate(-1 .818)">
            <mask id="j" fill="#fff">
                <use xlink:href="#i"/>
            </mask>
            <path fill="#161112" d="M116.871 177.964c-9.082 0-13.388-13.7-16.133-25.748a1.164 1.164 0 0 1 .877-1.395 1.158 1.158 0 0 1 1.394.876c2.404 10.55 6.53 24.5 14.384 23.917 2.741-.206 4.822-1.234 6.185-3.056 2.291-3.062 2.666-8.29 1.114-15.54-2.834-13.234-15.457-26.263-15.585-26.393a1.165 1.165 0 0 1 1.666-1.628c.538.55 13.224 13.647 16.197 27.534 1.7 7.937 1.185 13.798-1.527 17.423-1.784 2.385-4.433 3.725-7.875 3.984a9.633 9.633 0 0 1-.697.026" mask="url(#j)"/>
        </g>
        <g transform="translate(-1 .818)">
            <mask id="l" fill="#fff">
                <use xlink:href="#k"/>
            </mask>
            <path fill="#EE447E" d="M109.73 131.651l1.805 20.61 11.066 30.376s-12.463 7.2-37.552 7.2c-25.088 0-37.57-7.2-37.57-7.2l11.063-30.377 1.806-20.609" mask="url(#l)"/>
        </g>
        <g transform="translate(-1 .818)">
            <mask id="n" fill="#fff">
                <use xlink:href="#m"/>
            </mask>
            <path fill="#161112" d="M85.05 191c-25.11 0-37.633-7.053-38.153-7.353a1.166 1.166 0 0 1-.514-1.408l11.014-30.233 1.792-20.456c.056-.641.637-1.106 1.262-1.059a1.165 1.165 0 0 1 1.059 1.262l-1.807 20.609a1.177 1.177 0 0 1-.065.298l-10.713 29.409c3.21 1.544 15.324 6.602 36.125 6.602 20.799 0 32.897-5.058 36.104-6.601l-10.712-29.41a1.225 1.225 0 0 1-.067-.298l-1.805-20.609a1.165 1.165 0 0 1 1.059-1.262 1.178 1.178 0 0 1 1.262 1.059l1.792 20.456 11.013 30.233a1.164 1.164 0 0 1-.513 1.407c-.52.301-13.022 7.354-38.133 7.354" mask="url(#n)"/>
        </g>
        <g transform="translate(-1 .818)">
            <mask id="p" fill="#fff">
                <use xlink:href="#o"/>
            </mask>
            <path fill="#FEFEFE" d="M108.24 126.518c-.49 15.346-6.74 22.932-12.743 22.932-5.367 0-8.773-5.016-10.458-8.54-1.685 3.524-5.09 8.54-10.458 8.54-6.002 0-12.253-7.586-12.743-22.932" mask="url(#p)"/>
        </g>
        <g transform="translate(-1 .818)">
            <mask id="r" fill="#fff">
                <use xlink:href="#q"/>
            </mask>
            <path fill="#161112" d="M95.497 150.614c-5.104 0-8.503-3.927-10.458-7.23-1.955 3.303-5.353 7.23-10.458 7.23-6.327 0-13.379-7.529-13.907-24.06a1.165 1.165 0 0 1 1.127-1.2c.642-.042 1.18.483 1.201 1.126.458 14.315 6.172 21.804 11.58 21.804 4.907 0 8-4.936 9.406-7.878.387-.809 1.715-.809 2.102 0 1.407 2.942 4.5 7.878 9.407 7.878 5.408 0 11.122-7.489 11.58-21.804.02-.643.55-1.167 1.2-1.127a1.166 1.166 0 0 1 1.127 1.201c-.528 16.531-7.579 24.06-13.907 24.06" mask="url(#r)"/>
        </g>
        <g transform="translate(-1 .818)">
            <mask id="t" fill="#fff">
                <use xlink:href="#s"/>
            </mask>
            <path fill="#E09975" d="M122.094 61.19c.773-2.262 2.015-6.748.415-11.596-1.724-5.23-7.131-9-13.424-7.964-5.976.984-8.571 5.505-9.87 8.54-4.372-.762-7.152-1.218-14.16-1.32-7.004.098-9.784.547-14.156 1.308-1.297-3.033-3.883-7.558-9.864-8.546-6.295-1.039-11.702 2.724-13.43 7.953-1.604 4.851-.365 9.332.406 11.595-3.862 3.461-17.35 14.05-16.496 35.648.86 21.812 22.804 44.26 53.459 44.153 30.707.178 52.709-22.278 53.588-44.11.87-21.602-12.608-32.199-16.468-35.66" mask="url(#t)"/>
        </g>
        <g transform="translate(-1 .818)">
            <mask id="v" fill="#fff">
                <use xlink:href="#u"/>
            </mask>
            <path fill="#C96B4E" d="M114.665 47.014c5.071 2.599 3.989 9.638 1.977 12.883 0 0-2.105-1.715-6.45-4.112-4.345-2.392-6.791-3.264-6.791-3.264.932-2.694 5.016-8.708 11.264-5.507" mask="url(#v)"/>
        </g>
        <g transform="translate(-1 .818)">
            <mask id="x" fill="#fff">
                <use xlink:href="#w"/>
            </mask>
            <path fill="#C96B4E" d="M55.414 47.014c-5.072 2.599-3.989 9.638-1.977 12.883 0 0 2.104-1.715 6.45-4.112 4.345-2.392 6.79-3.264 6.79-3.264-.932-2.694-5.016-8.708-11.263-5.507" mask="url(#x)"/>
        </g>
        <g transform="translate(-1 .818)">
            <mask id="z" fill="#fff">
                <use xlink:href="#y"/>
            </mask>
            <path fill="#161112" d="M84.97 139.796h.357c30.134.002 51.232-22.17 52.07-42.991.803-19.91-10.958-30.242-15.385-34.133l-.696-.614a1.166 1.166 0 0 1-.325-1.244c1.349-3.942 1.488-7.594.412-10.854-1.426-4.326-6.05-8.184-12.128-7.181-4.076.672-7.017 3.24-8.988 7.85a1.168 1.168 0 0 1-1.271.689c-4.52-.79-7.192-1.205-13.977-1.303-6.778.095-9.442.509-13.94 1.29a1.166 1.166 0 0 1-1.271-.69c-1.973-4.611-4.912-7.18-8.982-7.853-6.086-1.007-10.707 2.847-12.135 7.169-1.076 3.255-.941 6.907.403 10.853.15.443.022.932-.326 1.243l-.702.62c-4.43 3.888-16.193 14.217-15.407 34.116.822 20.817 21.933 43.034 52.076 43.034l.215-.001zm.36 2.33h-.582c-14.463 0-28.112-5.02-38.448-14.15-9.692-8.561-15.506-19.905-15.95-31.121-.828-21.008 11.543-31.87 16.199-35.958l.118-.105c-1.28-4.158-1.338-8.055-.168-11.593 2.03-6.134 8.224-9.807 14.726-8.736 4.657.77 8.056 3.519 10.365 8.395 4.005-.686 6.947-1.082 13.449-1.172 6.51.093 9.462.492 13.487 1.183 2.308-4.873 5.708-7.62 10.37-8.387 6.502-1.071 12.696 2.608 14.719 8.748 1.169 3.543 1.109 7.44-.177 11.594l.11.099c4.656 4.09 17.025 14.956 16.178 35.976-.452 11.229-6.285 22.578-16.003 31.135-10.328 9.095-23.95 14.092-38.392 14.092z" mask="url(#z)"/>
        </g>
        <g transform="translate(-1 .818)">
            <mask id="B" fill="#fff">
                <use xlink:href="#A"/>
            </mask>
            <path fill="#FCDBC5" d="M96.362 108.198c0 7.682-5.072 13.91-11.325 13.91-6.252 0-11.323-6.228-11.323-13.91s5.071-13.91 11.323-13.91c6.253 0 11.325 6.228 11.325 13.91" mask="url(#B)"/>
        </g>
        <g transform="translate(-1 .818)">
            <mask id="D" fill="#fff">
                <use xlink:href="#C"/>
            </mask>
            <path fill="#161112" d="M81.696 116.731a1.165 1.165 0 0 1-1.075-1.611l3.254-7.83v-6.476a1.164 1.164 0 1 1 2.33 0v6.296l3.94 4.858a1.164 1.164 0 0 1-1.808 1.467l-2.972-3.662-2.593 6.24a1.165 1.165 0 0 1-1.076.718" mask="url(#D)"/>
        </g>
        <g transform="translate(-1 .818)">
            <mask id="F" fill="#fff">
                <use xlink:href="#E"/>
            </mask>
            <path fill="#161112" d="M85.037 102.96c-2.063 0-4.545-3.638-4.202-5.094.345-1.456 2.566-1.429 4.202-1.429 1.64 0 3.862-.027 4.204 1.429.344 1.456-2.14 5.094-4.204 5.094" mask="url(#F)"/>
        </g>
        <g transform="translate(-1 .818)">
            <mask id="H" fill="#fff">
                <use xlink:href="#G"/>
            </mask>
            <path fill="#161112" d="M95.19 90.475a3.566 3.566 0 0 1-3.568 3.566 3.566 3.566 0 1 1 0-7.135 3.569 3.569 0 0 1 3.568 3.569" mask="url(#H)"/>
        </g>
        <g transform="translate(-1 .818)">
            <mask id="J" fill="#fff">
                <use xlink:href="#I"/>
            </mask>
            <path fill="#161112" d="M82.025 90.475a3.567 3.567 0 0 1-3.57 3.566 3.567 3.567 0 1 1 0-7.135 3.57 3.57 0 0 1 3.57 3.569" mask="url(#J)"/>
        </g>
        <g transform="translate(-1 .818)">
            <mask id="L" fill="#fff">
                <use xlink:href="#K"/>
            </mask>
            <path fill="#EE447E" d="M87.403 45.163c3.764-4.283 10.65-9.174 16.806-8.817 6.156.358 9.62 6.36 5.965 14.773 2.928 9.981-.228 12.965-4.884 14.34-4.27 1.255-12.387-2.096-16.37-5.64" mask="url(#L)"/>
        </g>
        <g transform="translate(-1 .818)">
            <mask id="N" fill="#fff">
                <use xlink:href="#M"/>
            </mask>
            <path fill="#161112" d="M103.14 66.9c-5.028 0-11.688-3.27-14.995-6.21a1.165 1.165 0 1 1 1.549-1.74c3.758 3.342 11.546 6.484 15.267 5.39 3.508-1.035 7.007-2.97 4.096-12.893a1.167 1.167 0 0 1 .05-.792c1.73-3.987 1.848-7.7.319-10.185-1.092-1.775-2.968-2.827-5.285-2.962-5.533-.314-12.102 4.142-15.862 8.424a1.164 1.164 0 1 1-1.75-1.537c4.26-4.85 11.404-9.582 17.748-9.212 3.098.18 5.632 1.624 7.134 4.067 1.908 3.101 1.903 7.33-.002 11.943 2.465 8.726.67 13.476-5.79 15.382-.756.222-1.592.324-2.48.324" mask="url(#N)"/>
        </g>
        <g transform="translate(-1 .818)">
            <mask id="P" fill="#fff">
                <use xlink:href="#O"/>
            </mask>
            <path fill="#EE447E" d="M82.679 45.163c-3.764-4.283-10.65-9.174-16.805-8.817-6.156.358-9.62 6.36-5.966 14.773-2.927 9.981.228 12.965 4.885 14.34 4.27 1.255 12.387-2.096 16.37-5.64" mask="url(#P)"/>
        </g>
        <g transform="translate(-1 .818)">
            <mask id="R" fill="#fff">
                <use xlink:href="#Q"/>
            </mask>
            <path fill="#161112" d="M66.889 66.888c-.897 0-1.713-.104-2.425-.312-6.46-1.907-8.255-6.657-5.79-15.382-1.905-4.614-1.91-8.843-.001-11.945 1.502-2.441 4.035-3.885 7.133-4.065 6.346-.39 13.487 4.36 17.748 9.212a1.163 1.163 0 0 1-.106 1.643 1.162 1.162 0 0 1-1.644-.106c-3.762-4.282-10.307-8.737-15.862-8.424-2.316.135-4.194 1.186-5.285 2.96-1.53 2.486-1.412 6.198.32 10.187.108.25.126.53.05.792-2.911 9.922.588 11.858 4.096 12.893 1.978.584 5.314.009 8.92-1.536 2.467-1.057 4.78-2.461 6.347-3.854a1.163 1.163 0 0 1 1.645.095 1.167 1.167 0 0 1-.097 1.645c-1.747 1.553-4.29 3.104-6.978 4.256-2.978 1.275-5.79 1.94-8.071 1.94" mask="url(#R)"/>
        </g>
        <g transform="translate(-1 .818)">
            <mask id="T" fill="#fff">
                <use xlink:href="#S"/>
            </mask>
            <path fill="#EE447E" d="M91.491 52.973c0 5.328-2.888 8.289-6.45 8.289-3.563 0-6.449-3.184-6.449-8.29 0-5.103 2.886-8.287 6.45-8.287 3.561 0 6.45 2.96 6.45 8.288" mask="url(#T)"/>
        </g>
        <g transform="translate(-1 .818)">
            <mask id="V" fill="#fff">
                <use xlink:href="#U"/>
            </mask>
            <path fill="#161112" d="M85.041 45.849c-3.111 0-5.285 2.93-5.285 7.124 0 4.195 2.174 7.124 5.285 7.124 3.211 0 5.286-2.796 5.286-7.124 0-4.327-2.075-7.124-5.286-7.124m0 16.578c-4.412 0-7.614-3.975-7.614-9.454 0-5.478 3.202-9.453 7.614-9.453 3.791 0 7.615 2.923 7.615 9.453 0 6.53-3.824 9.454-7.615 9.454" mask="url(#V)"/>
        </g>
        <g transform="translate(-1 .818)">
            <mask id="X" fill="#fff">
                <use xlink:href="#W"/>
            </mask>
            <path fill="#161112" d="M91.477 53.176c-.485 0-.937-.305-1.103-.788a1.167 1.167 0 0 1 .727-1.48c2.402-.818 4.853-1.07 7.94-.821a1.167 1.167 0 0 1 1.068 1.256 1.167 1.167 0 0 1-1.256 1.066c-2.753-.224-4.914-.006-7 .705a1.176 1.176 0 0 1-.376.062" mask="url(#X)"/>
        </g>
        <g transform="translate(-1 .818)">
            <mask id="Z" fill="#fff">
                <use xlink:href="#Y"/>
            </mask>
            <path fill="#161112" d="M78.606 53.176c-.125 0-.251-.02-.376-.062-2.088-.71-4.246-.927-7-.705a1.168 1.168 0 0 1-1.257-1.066 1.167 1.167 0 0 1 1.067-1.256c3.09-.25 5.538.003 7.941.822.609.207.934.87.728 1.479a1.167 1.167 0 0 1-1.103.788" mask="url(#Z)"/>
        </g>
    </g>
</svg>
