<svg xmlns="http://www.w3.org/2000/svg" xmlns:xlink="http://www.w3.org/1999/xlink" width="171" height="172" viewBox="0 0 171 172">
    <defs>
        <path id="a" d="M0 .203H170.08v170.078H0z"/>
        <path id="c" d="M0 85.001v.477a87.79 87.79 0 0 0 .308 7.103c3.441 41.045 36.347 73.951 77.392 77.392 50.275 4.215 92.378-35.34 92.378-84.731 0-46.965-38.071-85.038-85.039-85.038C38.155.204.132 38.148 0 85.001z"/>
        <path id="e" d="M0 85.001v.477a87.79 87.79 0 0 0 .308 7.103c3.441 41.045 36.347 73.951 77.392 77.392 50.275 4.215 92.378-35.34 92.378-84.731 0-46.965-38.071-85.038-85.039-85.038C38.155.204.132 38.148 0 85.001"/>
        <path id="g" d="M0 85.001v.477a87.79 87.79 0 0 0 .308 7.103c3.441 41.045 36.347 73.951 77.392 77.392 50.275 4.215 92.378-35.34 92.378-84.731 0-46.965-38.071-85.038-85.039-85.038C38.155.204.132 38.148 0 85.001z"/>
        <path id="i" d="M0 85.001v.477a87.79 87.79 0 0 0 .308 7.103c3.441 41.045 36.347 73.951 77.392 77.392 50.275 4.215 92.378-35.34 92.378-84.731 0-46.965-38.071-85.038-85.039-85.038C38.155.204.132 38.148 0 85.001"/>
        <path id="k" d="M0 85.001v.477a87.79 87.79 0 0 0 .308 7.103c3.441 41.045 36.347 73.951 77.392 77.392 50.275 4.215 92.378-35.34 92.378-84.731 0-46.965-38.071-85.038-85.039-85.038C38.155.204.132 38.148 0 85.001"/>
        <path id="m" d="M0 85.001v.477a87.79 87.79 0 0 0 .308 7.103c3.441 41.045 36.347 73.951 77.392 77.392 50.275 4.215 92.378-35.34 92.378-84.731 0-46.965-38.071-85.038-85.039-85.038C38.155.204.132 38.148 0 85.001"/>
        <path id="o" d="M0 85.001v.477a87.79 87.79 0 0 0 .308 7.103c3.441 41.045 36.347 73.951 77.392 77.392 50.275 4.215 92.378-35.34 92.378-84.731 0-46.965-38.071-85.038-85.039-85.038C38.155.204.132 38.148 0 85.001"/>
        <path id="q" d="M0 85.001v.477a87.79 87.79 0 0 0 .308 7.103c3.441 41.045 36.347 73.951 77.392 77.392 50.275 4.215 92.378-35.34 92.378-84.731 0-46.965-38.071-85.038-85.039-85.038C38.155.204.132 38.148 0 85.001"/>
        <path id="s" d="M0 85.001v.477a87.79 87.79 0 0 0 .308 7.103c3.441 41.045 36.347 73.951 77.392 77.392 50.275 4.215 92.378-35.34 92.378-84.731 0-46.965-38.071-85.038-85.039-85.038C38.155.204.132 38.148 0 85.001"/>
        <path id="u" d="M0 85.001v.477a87.79 87.79 0 0 0 .308 7.103c3.441 41.045 36.347 73.951 77.392 77.392 50.275 4.215 92.378-35.34 92.378-84.731 0-46.965-38.071-85.038-85.039-85.038C38.155.204.132 38.148 0 85.001"/>
        <path id="w" d="M0 85.001v.477a87.79 87.79 0 0 0 .308 7.103c3.441 41.045 36.347 73.951 77.392 77.392 50.275 4.215 92.378-35.34 92.378-84.731 0-46.965-38.071-85.038-85.039-85.038C38.155.204.132 38.148 0 85.001"/>
        <path id="y" d="M0 85.001v.477a87.79 87.79 0 0 0 .308 7.103c3.441 41.045 36.347 73.951 77.392 77.392 50.275 4.215 92.378-35.34 92.378-84.731 0-46.965-38.071-85.038-85.039-85.038C38.155.204.132 38.148 0 85.001"/>
        <path id="A" d="M0 85.001v.477a87.79 87.79 0 0 0 .308 7.103c3.441 41.045 36.347 73.951 77.392 77.392 50.275 4.215 92.378-35.34 92.378-84.731 0-46.965-38.071-85.038-85.039-85.038C38.155.204.132 38.148 0 85.001"/>
        <path id="C" d="M0 85.001v.477a87.79 87.79 0 0 0 .308 7.103c3.441 41.045 36.347 73.951 77.392 77.392 50.275 4.215 92.378-35.34 92.378-84.731 0-46.965-38.071-85.038-85.039-85.038C38.155.204.132 38.148 0 85.001"/>
        <path id="E" d="M0 85.001v.477a87.79 87.79 0 0 0 .308 7.103c3.441 41.045 36.347 73.951 77.392 77.392 50.275 4.215 92.378-35.34 92.378-84.731 0-46.965-38.071-85.038-85.039-85.038C38.155.204.132 38.148 0 85.001"/>
        <path id="G" d="M0 85.001v.477a87.79 87.79 0 0 0 .308 7.103c3.441 41.045 36.347 73.951 77.392 77.392 50.275 4.215 92.378-35.34 92.378-84.731 0-46.965-38.071-85.038-85.039-85.038C38.155.204.132 38.148 0 85.001"/>
        <path id="I" d="M0 85.001v.477a87.79 87.79 0 0 0 .308 7.103c3.441 41.045 36.347 73.951 77.392 77.392 50.275 4.215 92.378-35.34 92.378-84.731 0-46.965-38.071-85.038-85.039-85.038C38.155.204.132 38.148 0 85.001"/>
        <path id="K" d="M0 85.001v.477a87.79 87.79 0 0 0 .308 7.103c3.441 41.045 36.347 73.951 77.392 77.392 50.275 4.215 92.378-35.34 92.378-84.731 0-46.965-38.071-85.038-85.039-85.038C38.155.204.132 38.148 0 85.001"/>
    </defs>
    <g fill="none" fill-rule="evenodd">
        <g transform="translate(0 .797)">
            <mask id="b" fill="#fff">
                <use xlink:href="#a"/>
            </mask>
            <path fill="#F285A7" d="M96.174.911C40.486-6.157-6.36 40.688.708 96.377c4.833 38.074 35.122 68.363 73.196 73.196 55.69 7.068 102.535-39.777 95.466-95.466C164.537 36.033 134.247 5.744 96.174.911" mask="url(#b)"/>
        </g>
        <g transform="translate(0 .797)">
            <mask id="d" fill="#fff">
                <use xlink:href="#c"/>
            </mask>
            <path fill="#FEFEFE" d="M61.685 149.817l-1.193-8.684s-7.56 7.566-10.96 21.073c-3.402 13.506-2.47 23.316-2.47 23.316s-2.692 5.191.998 7.447c1.747 1.068 3.523.826 4.91.275l.002-.012c.467.625 1.144 1.156 2.116 1.501 3.451 1.223 6.471-1.189 6.597-5.303v-39.613z" mask="url(#d)"/>
        </g>
        <g transform="translate(0 .797)">
            <mask id="f" fill="#fff">
                <use xlink:href="#e"/>
            </mask>
            <path fill="#161112" d="M50.676 194.864a6.09 6.09 0 0 1-3.217-.913c-3.475-2.125-2.614-6.417-1.569-8.65-.135-1.86-.579-11.048 2.525-23.376 3.44-13.658 10.945-21.287 11.263-21.604a1.15 1.15 0 0 1 1.63 1.625c-.074.074-7.386 7.532-10.66 20.54-3.316 13.162-2.45 22.831-2.44 22.928.02.218-.023.44-.124.636-.089.173-2.149 4.272.575 5.937 1.138.696 2.446.758 3.886.188a1.153 1.153 0 0 1 1.494.644 1.148 1.148 0 0 1-.644 1.494c-.925.367-1.837.551-2.719.551" mask="url(#f)"/>
        </g>
        <g transform="translate(0 .797)">
            <mask id="h" fill="#fff">
                <use xlink:href="#g"/>
            </mask>
            <path fill="#FEFEFE" d="M108.394 149.817l1.193-8.684s7.56 7.566 10.961 21.073c3.401 13.506 2.47 23.316 2.47 23.316s2.691 5.191-.999 7.447c-1.746 1.068-3.523.826-4.91.275l-.002-.012c-.467.625-1.144 1.156-2.116 1.501-3.45 1.223-6.47-1.189-6.597-5.303v-39.613z" mask="url(#h)"/>
        </g>
        <g transform="translate(0 .797)">
            <mask id="j" fill="#fff">
                <use xlink:href="#i"/>
            </mask>
            <path fill="#161112" d="M119.403 194.864c-.882 0-1.794-.184-2.72-.55a1.15 1.15 0 1 1 .85-2.138c1.44.57 2.749.51 3.887-.189 2.724-1.665.665-5.764.575-5.938a1.164 1.164 0 0 1-.123-.635c.01-.097.867-9.796-2.441-22.928-3.285-13.047-10.585-20.466-10.658-20.539a1.15 1.15 0 1 1 1.628-1.626c.318.317 7.824 7.946 11.263 21.604 3.104 12.327 2.66 21.516 2.526 23.375 1.044 2.234 1.905 6.526-1.57 8.651a6.09 6.09 0 0 1-3.217.913" mask="url(#j)"/>
        </g>
        <g transform="translate(0 .797)">
            <mask id="l" fill="#fff">
                <use xlink:href="#k"/>
            </mask>
            <path fill="#FEFEFE" d="M111.319 220.365c2.876-39.242-.553-60.572-.553-60.572l-1.788-20.112H61.382l-1.892 20.112s-3.43 21.33-.552 60.572c0 0-3.983 4.647-2.03 10.571 1.15 3.48 4.542 4.85 7.76 5.5 3.98.803 9.19.464 12.897-1.185 3.71-1.65 7.564-4.974 7.564-10.262 0 5.288 3.852 8.611 7.562 10.262 3.707 1.65 8.917 1.988 12.897 1.184 3.218-.65 6.61-2.019 7.758-5.499 1.955-5.924-2.027-10.57-2.027-10.57" mask="url(#l)"/>
        </g>
        <g transform="translate(0 .797)">
            <mask id="n" fill="#fff">
                <use xlink:href="#m"/>
            </mask>
            <path fill="#161112" d="M69.048 238c-1.58 0-3.149-.143-4.606-.437-4.727-.955-7.549-3.004-8.625-6.266-1.822-5.518.97-9.971 1.941-11.289-2.796-38.649.561-60.184.595-60.398a1.15 1.15 0 1 1 2.272.366c-.034.211-3.37 21.68-.54 60.305a1.15 1.15 0 0 1-.274.833c-.143.169-3.529 4.251-1.81 9.462.806 2.441 2.998 3.945 6.896 4.732 3.997.807 8.898.362 12.2-1.109 2.068-.92 6.88-3.659 6.88-9.21v-27.683a1.151 1.151 0 0 1 2.301 0v27.683c0 6.901-5.766 10.21-8.247 11.313-2.483 1.105-5.759 1.697-8.983 1.698" mask="url(#n)"/>
        </g>
        <g transform="translate(0 .797)">
            <mask id="p" fill="#fff">
                <use xlink:href="#o"/>
            </mask>
            <path fill="#161112" d="M101.208 237.999c-3.224 0-6.5-.592-8.985-1.697-2.48-1.103-8.245-4.413-8.245-11.313v-27.683a1.151 1.151 0 0 1 2.3 0v27.683c0 5.551 4.812 8.29 6.88 9.21 3.303 1.47 8.207 1.914 12.202 1.109 3.898-.788 6.088-2.292 6.895-4.733 1.719-5.21-1.667-9.292-1.813-9.464a1.159 1.159 0 0 1-.271-.83c2.83-38.625-.506-60.094-.54-60.305a1.15 1.15 0 0 1 2.272-.366c.034.214 3.39 21.749.596 60.398.97 1.318 3.762 5.771 1.94 11.288-1.077 3.263-3.897 5.312-8.624 6.266a23.495 23.495 0 0 1-4.607.437" mask="url(#p)"/>
        </g>
        <g transform="translate(0 .797)">
            <mask id="r" fill="#fff">
                <use xlink:href="#q"/>
            </mask>
            <path fill="#FEFEFE" d="M85.04 150.781c30 0 54.319-20.835 54.317-46.536.002-18.286-12.315-34.113-30.231-41.718 0 0 4.519-40.87-8.403-40.87-8.865 0-11.3 26.587-11.44 36.197a63.25 63.25 0 0 0-4.243-.14c-1.43 0-2.845.046-4.243.14-.14-9.61-2.575-36.197-11.44-36.197-12.921 0-8.403 40.87-8.403 40.87-17.915 7.605-30.232 23.432-30.231 41.718-.001 25.701 24.318 46.536 54.317 46.536" mask="url(#r)"/>
        </g>
        <g transform="translate(0 .797)">
            <mask id="t" fill="#fff">
                <use xlink:href="#s"/>
            </mask>
            <path fill="#F38A93" d="M69.063 27.916c-5.142.479-4.192 25.096-2.931 33.99a66.939 66.939 0 0 1 9.913-1.849c-.232-9.649-1.804-32.625-6.982-32.141" mask="url(#t)"/>
        </g>
        <g transform="translate(0 .797)">
            <mask id="v" fill="#fff">
                <use xlink:href="#u"/>
            </mask>
            <path fill="#F38A93" d="M101.017 27.916c5.142.479 4.191 25.096 2.93 33.99a66.939 66.939 0 0 0-9.913-1.849c.232-9.649 1.804-32.625 6.983-32.141" mask="url(#v)"/>
        </g>
        <g transform="translate(0 .797)">
            <mask id="x" fill="#fff">
                <use xlink:href="#w"/>
            </mask>
            <path fill="#161112" d="M69.357 22.808c-1.345 0-2.489.547-3.497 1.673-7 7.816-3.796 37.62-3.763 37.92.056.506-.226.988-.694 1.186-18.216 7.733-29.531 23.31-29.53 40.659 0 12.088 5.506 23.464 15.506 32.032 10.051 8.61 23.426 13.352 37.661 13.352 14.234 0 27.609-4.742 37.66-13.352 10-8.568 15.507-19.944 15.506-32.032.003-17.348-11.314-32.926-29.53-40.66a1.149 1.149 0 0 1-.694-1.184c.033-.301 3.235-30.108-3.763-37.921-1.008-1.126-2.152-1.673-3.497-1.673-6.673 0-10.084 20.923-10.289 35.063a1.157 1.157 0 0 1-.37.83 1.164 1.164 0 0 1-.857.3 63.657 63.657 0 0 0-8.333 0 1.149 1.149 0 0 1-1.227-1.13c-.205-14.14-3.616-35.063-10.289-35.063M85.04 151.932c-14.784 0-28.69-4.938-39.158-13.906-10.519-9.012-16.311-21.01-16.31-33.78-.002-18.036 11.528-34.228 30.15-42.44-.501-5.128-2.633-30.981 4.424-38.86 1.449-1.618 3.202-2.44 5.211-2.44 10.685 0 12.326 29.736 12.556 36.132 2.071-.1 4.182-.1 6.254 0 .229-6.396 1.871-36.131 12.555-36.131 2.009 0 3.763.82 5.212 2.44 7.055 7.878 4.924 33.73 4.423 38.86 18.623 8.21 30.152 24.403 30.15 42.439.001 12.77-5.791 24.767-16.309 33.78-10.468 8.968-24.375 13.906-39.158 13.906" mask="url(#x)"/>
        </g>
        <g transform="translate(0 .797)">
            <mask id="z" fill="#fff">
                <use xlink:href="#y"/>
            </mask>
            <path fill="#161112" d="M85.039 104.56c-1.761 0-3.248 1.064-3.248 2.322 0 1.257 1.487 2.32 3.248 2.32 1.76 0 3.246-1.063 3.246-2.32 0-1.258-1.486-2.322-3.246-2.322m0 6.942c-3.06 0-5.55-2.072-5.55-4.62 0-2.55 2.49-4.623 5.55-4.623 3.059 0 5.547 2.073 5.547 4.623 0 2.547-2.488 4.62-5.547 4.62" mask="url(#z)"/>
        </g>
        <g transform="translate(0 .797)">
            <mask id="B" fill="#fff">
                <use xlink:href="#A"/>
            </mask>
            <path fill="#161112" d="M85.038 120.353a1.15 1.15 0 0 1-1.15-1.15v-8.85a1.15 1.15 0 1 1 2.301 0l-.001 8.85a1.15 1.15 0 0 1-1.15 1.15" mask="url(#B)"/>
        </g>
        <g transform="translate(0 .797)">
            <mask id="D" fill="#fff">
                <use xlink:href="#C"/>
            </mask>
            <path fill="#161112" d="M85.038 120.353c-7.163 0-10.611-4.503-11.085-6.558a1.15 1.15 0 0 1 .862-1.38 1.149 1.149 0 0 1 1.38.862c.172.742 2.529 4.775 8.843 4.775 5.95 0 8.455-3.607 8.864-4.87a1.152 1.152 0 0 1 2.19.708c-.581 1.798-3.7 6.464-11.054 6.464" mask="url(#D)"/>
        </g>
        <g transform="translate(0 .797)">
            <mask id="F" fill="#fff">
                <use xlink:href="#E"/>
            </mask>
            <path fill="#161112" d="M80.287 98.991a4.004 4.004 0 1 1-8.01 0 4.004 4.004 0 0 1 8.01 0" mask="url(#F)"/>
        </g>
        <g transform="translate(0 .797)">
            <mask id="H" fill="#fff">
                <use xlink:href="#G"/>
            </mask>
            <path fill="#161112" d="M97.8 98.991a4.006 4.006 0 1 1-8.009-.003 4.006 4.006 0 0 1 8.01.003" mask="url(#H)"/>
        </g>
        <g transform="translate(0 .797)">
            <mask id="J" fill="#fff">
                <use xlink:href="#I"/>
            </mask>
            <path fill="#F8BFC6" d="M113.138 107.736c0 2.39-3.108 4.326-6.942 4.326s-6.943-1.936-6.943-4.326c0-2.389 3.11-4.326 6.943-4.326 3.834 0 6.942 1.937 6.942 4.326" mask="url(#J)"/>
        </g>
        <g transform="translate(0 .797)">
            <mask id="L" fill="#fff">
                <use xlink:href="#K"/>
            </mask>
            <path fill="#F8BFC6" d="M70.823 107.736c0 2.39-3.107 4.326-6.942 4.326-3.834 0-6.942-1.936-6.942-4.326 0-2.389 3.108-4.326 6.942-4.326 3.835 0 6.942 1.937 6.942 4.326" mask="url(#L)"/>
        </g>
    </g>
</svg>
