<svg xmlns="http://www.w3.org/2000/svg" xmlns:xlink="http://www.w3.org/1999/xlink" width="171" height="172" viewBox="0 0 171 172">
    <defs>
        <path id="a" d="M0 .921h170.078V171H0z"/>
    </defs>
    <g fill="none" fill-rule="evenodd">
        <g transform="translate(0 .079)">
            <mask id="b" fill="#fff">
                <use xlink:href="#a"/>
            </mask>
            <path fill="#80C243" d="M85.039.921c-46.966 0-85.04 38.074-85.04 85.04 0 46.966 38.074 85.04 85.04 85.04 46.966 0 85.039-38.074 85.039-85.04 0-46.966-38.073-85.04-85.04-85.04" mask="url(#b)"/>
        </g>
        <path fill="#FEFEFE" d="M85.82 112.436c-10.75 0-19.465 2.385-19.465 5.327 0 2.943 8.715 5.328 19.464 5.328 10.75 0 19.465-2.385 19.465-5.328 0-2.942-8.715-5.327-19.465-5.327"/>
        <path fill="#64943A" d="M85.82 112.436c-10.75 0-19.465 2.385-19.465 5.327 0 2.943 8.715 5.328 19.464 5.328 10.75 0 19.465-2.385 19.465-5.328 0-2.942-8.715-5.327-19.465-5.327"/>
        <path fill="#00AB4E" d="M68.657 78.137c-1.792 5.88-2.69 13.647-1.63 20.26.972 6.055 3.36 12.136 8.718 15.595 4.154 2.684 8.408 3.557 13.328 2.985 2.859-.333 6.222-1.401 7.829-3.846 3.233-4.92.322-10.193-4.755-11.54l-.6 2.598c1.82-5.127-.286-10.427-3.255-12.691l-.897 2.99c1.855-4.221 1.653-11.641.018-15.293l-18.756-1.058z"/>
        <path fill="#96CA63" d="M75.745 113.992c4.154 2.684 8.408 3.557 13.328 2.984 1.62-.188 3.396-.626 4.928-1.404-1.841-.747-4.285-2.017-5.935-3.903-3.615-4.132-3.046-9.249-6.56-12.857-2.39-2.453-6.382-2.407-8.718.094-1.904 2.04-2.445 4.844-2.551 7.537-.021.554.02 1.113-.01 1.666 1.353 2.321 3.15 4.354 5.518 5.883"/>
        <path fill="#161112" d="M91.547 105.43a1.238 1.238 0 0 1-1.17-1.656c1.596-4.495-.19-9.27-2.838-11.29a1.241 1.241 0 0 1 1.506-1.972c3.309 2.522 5.72 8.319 3.67 14.093a1.24 1.24 0 0 1-1.168.825"/>
        <path fill="#161112" d="M87.394 95.73a1.241 1.241 0 0 1-1.136-1.739c1.761-4.01 1.451-11.095.022-14.288a1.241 1.241 0 0 1 2.265-1.015c1.703 3.804 2.058 11.582-.013 16.3a1.24 1.24 0 0 1-1.138.742"/>
        <path fill="#161112" d="M86.278 118.387c-4.09 0-7.707-1.092-11.207-3.352-4.909-3.171-8.028-8.703-9.27-16.442-.994-6.2-.354-14.176 1.668-20.818a1.241 1.241 0 1 1 2.374.723c-1.919 6.304-2.529 13.853-1.59 19.703 1.124 7.014 3.872 11.976 8.166 14.749 3.803 2.458 7.777 3.342 12.511 2.794 1.552-.18 5.336-.863 6.934-3.294 1.19-1.812 1.47-3.793.787-5.58-.745-1.951-2.548-3.476-4.822-4.08a1.24 1.24 0 1 1 .636-2.398c3.043.808 5.475 2.897 6.504 5.593.976 2.55.61 5.332-1.03 7.828-2.096 3.186-6.364 4.123-8.723 4.397a25.917 25.917 0 0 1-2.938.177"/>
        <path fill="#161112" d="M76.739 83.666a1.922 1.922 0 1 1-3.84-.123 1.922 1.922 0 0 1 3.84.123M81.876 83.828a1.92 1.92 0 1 1-3.84-.12 1.921 1.921 0 0 1 3.84.121"/>
        <path fill="#DB4D28" d="M79.908 87.357l-5.287-.17c-.152 2.268.072 5.853 2.406 5.979 2.334.125 2.898-3.332 2.881-5.81"/>
        <path fill="#F38A93" d="M77.06 93.166c1.21.052 1.931-.856 2.341-2.086a2.945 2.945 0 0 0-2.137-1.122 2.948 2.948 0 0 0-2.39.937c.333 1.244.983 2.22 2.186 2.271"/>
        <path fill="#161112" d="M75.525 88.157c-.016 1.724.282 3.104.82 3.711a.981.981 0 0 0 .733.357.968.968 0 0 0 .78-.287c.598-.57.995-1.937 1.09-3.67l-3.423-.11zm1.622 5.951l-.17-.005a2.877 2.877 0 0 1-2.04-.988c-1.34-1.513-1.36-4.402-1.255-5.99a.924.924 0 0 1 .97-.877l5.286.17a.939.939 0 0 1 .91.932c.011 1.61-.194 4.521-1.692 5.95a2.853 2.853 0 0 1-2.009.808z"/>
        <path fill="#CD171E" d="M87.413 79.195l-27.701-1.563 10.318-3.42c1.873-6.436 7.1-8.79 12.232-6.984 5.486 1.93 6.31 7.853 5.15 11.967"/>
        <path fill="#FEFEFE" d="M86.062 69.96c-2.515 2.471-3.977 5.971-4.374 8.912l5.725.322c.804-2.854.65-6.578-1.35-9.235"/>
        <path fill="#161112" d="M66.286 76.76l20.15 1.138c.537-3.007.134-7.84-4.586-9.5-2.186-.77-4.401-.673-6.236.27-2.06 1.06-3.58 3.097-4.391 5.892-.115.39-.415.702-.801.83l-4.136 1.37zm21.128 3.677l-.071-.003-27.701-1.562a1.241 1.241 0 0 1-.321-2.416l9.715-3.221c1.055-3.147 2.928-5.481 5.443-6.773 2.45-1.258 5.362-1.4 8.195-.405 5.812 2.045 7.384 8.327 5.934 13.475a1.24 1.24 0 0 1-1.194.905z"/>
    </g>
</svg>
