<svg xmlns="http://www.w3.org/2000/svg" xmlns:xlink="http://www.w3.org/1999/xlink" width="171" height="172" viewBox="0 0 171 172">
    <defs>
        <path id="a" d="M0 .484h170.078v170.078H0z"/>
        <path id="c" d="M0 85.525c0 46.965 38.074 85.038 85.039 85.038 46.967 0 85.039-38.073 85.039-85.038 0-46.967-38.072-85.04-85.039-85.04C38.074.485 0 38.558 0 85.525"/>
        <path id="e" d="M0 85.525c0 46.965 38.074 85.038 85.039 85.038 46.967 0 85.039-38.073 85.039-85.038 0-46.967-38.072-85.04-85.039-85.04C38.074.485 0 38.558 0 85.525"/>
        <path id="g" d="M0 85.525c0 46.965 38.074 85.038 85.039 85.038 46.967 0 85.039-38.073 85.039-85.038 0-46.967-38.072-85.04-85.039-85.04C38.074.485 0 38.558 0 85.525"/>
        <path id="i" d="M0 85.525c0 46.965 38.074 85.038 85.039 85.038 46.967 0 85.039-38.073 85.039-85.038 0-46.967-38.072-85.04-85.039-85.04C38.074.485 0 38.558 0 85.525"/>
        <path id="k" d="M0 85.525c0 46.965 38.074 85.038 85.039 85.038 46.967 0 85.039-38.073 85.039-85.038 0-46.967-38.072-85.04-85.039-85.04C38.074.485 0 38.558 0 85.525z"/>
        <path id="m" d="M0 85.525c0 46.965 38.074 85.038 85.039 85.038 46.967 0 85.039-38.073 85.039-85.038 0-46.967-38.072-85.04-85.039-85.04C38.074.485 0 38.558 0 85.525"/>
        <path id="o" d="M0 85.525c0 46.965 38.074 85.038 85.039 85.038 46.967 0 85.039-38.073 85.039-85.038 0-46.967-38.072-85.04-85.039-85.04C38.074.485 0 38.558 0 85.525"/>
        <path id="q" d="M0 85.525c0 46.965 38.074 85.038 85.039 85.038 46.967 0 85.039-38.073 85.039-85.038 0-46.967-38.072-85.04-85.039-85.04C38.074.485 0 38.558 0 85.525"/>
        <path id="s" d="M0 85.525c0 46.965 38.074 85.038 85.039 85.038 46.967 0 85.039-38.073 85.039-85.038 0-46.967-38.072-85.04-85.039-85.04C38.074.485 0 38.558 0 85.525"/>
        <path id="u" d="M0 85.525c0 46.965 38.074 85.038 85.039 85.038 46.967 0 85.039-38.073 85.039-85.038 0-46.967-38.072-85.04-85.039-85.04C38.074.485 0 38.558 0 85.525z"/>
        <path id="w" d="M0 85.525c0 46.965 38.074 85.038 85.039 85.038 46.967 0 85.039-38.073 85.039-85.038 0-46.967-38.072-85.04-85.039-85.04C38.074.485 0 38.558 0 85.525"/>
        <path id="y" d="M0 85.525c0 46.965 38.074 85.038 85.039 85.038 46.967 0 85.039-38.073 85.039-85.038 0-46.967-38.072-85.04-85.039-85.04C38.074.485 0 38.558 0 85.525z"/>
        <path id="A" d="M0 85.525c0 46.965 38.074 85.038 85.039 85.038 46.967 0 85.039-38.073 85.039-85.038 0-46.967-38.072-85.04-85.039-85.04C38.074.485 0 38.558 0 85.525"/>
        <path id="C" d="M0 85.525c0 46.965 38.074 85.038 85.039 85.038 46.967 0 85.039-38.073 85.039-85.038 0-46.967-38.072-85.04-85.039-85.04C38.074.485 0 38.558 0 85.525"/>
        <path id="E" d="M0 85.525c0 46.965 38.074 85.038 85.039 85.038 46.967 0 85.039-38.073 85.039-85.038 0-46.967-38.072-85.04-85.039-85.04C38.074.485 0 38.558 0 85.525"/>
        <path id="G" d="M0 85.525c0 46.965 38.074 85.038 85.039 85.038 46.967 0 85.039-38.073 85.039-85.038 0-46.967-38.072-85.04-85.039-85.04C38.074.485 0 38.558 0 85.525"/>
        <path id="I" d="M0 85.525c0 46.965 38.074 85.038 85.039 85.038 46.967 0 85.039-38.073 85.039-85.038 0-46.967-38.072-85.04-85.039-85.04C38.074.485 0 38.558 0 85.525"/>
        <path id="K" d="M0 85.525c0 46.965 38.074 85.038 85.039 85.038 46.967 0 85.039-38.073 85.039-85.038 0-46.967-38.072-85.04-85.039-85.04C38.074.485 0 38.558 0 85.525"/>
        <path id="M" d="M0 85.525c0 46.965 38.074 85.038 85.039 85.038 46.967 0 85.039-38.073 85.039-85.038 0-46.967-38.072-85.04-85.039-85.04C38.074.485 0 38.558 0 85.525"/>
        <path id="O" d="M0 85.525c0 46.965 38.074 85.038 85.039 85.038 46.967 0 85.039-38.073 85.039-85.038 0-46.967-38.072-85.04-85.039-85.04C38.074.485 0 38.558 0 85.525"/>
        <path id="Q" d="M0 85.525c0 46.965 38.074 85.038 85.039 85.038 46.967 0 85.039-38.073 85.039-85.038 0-46.967-38.072-85.04-85.039-85.04C38.074.485 0 38.558 0 85.525"/>
    </defs>
    <g fill="none" fill-rule="evenodd">
        <g transform="translate(0 .516)">
            <mask id="b" fill="#fff">
                <use xlink:href="#a"/>
            </mask>
            <path fill="#B0A2CE" d="M85.04.484C38.072.484 0 38.557 0 85.524c0 46.965 38.073 85.038 85.04 85.038 46.965 0 85.038-38.073 85.038-85.039S132.005.484 85.04.484" mask="url(#b)"/>
        </g>
        <g transform="translate(0 .516)">
            <mask id="d" fill="#fff">
                <use xlink:href="#c"/>
            </mask>
            <path fill="#FEFEFE" d="M49.01 182.564c-2.491 5.344.55 9.558 6.034 7.894l.003-.014c.787 1.019 2.16 1.704 4.4 1.704h5.435v-56.712c-10.6 6.756-15.102 19.102-15.872 47.127" mask="url(#d)"/>
        </g>
        <g transform="translate(0 .516)">
            <mask id="f" fill="#fff">
                <use xlink:href="#e"/>
            </mask>
            <path fill="#161112" d="M52.73 191.992c-1.792 0-3.326-.638-4.394-1.868-1.643-1.896-1.82-4.807-.484-7.827.785-27.75 5.239-40.727 16.404-47.842a1.165 1.165 0 0 1 1.251 1.964c-10.435 6.651-14.59 19.166-15.334 46.177a1.197 1.197 0 0 1-.108.46c-1.045 2.243-1.033 4.315.03 5.542.937 1.08 2.619 1.35 4.611.746a1.164 1.164 0 1 1 .676 2.228 9.165 9.165 0 0 1-2.652.42" mask="url(#f)"/>
        </g>
        <g transform="translate(0 .516)">
            <mask id="h" fill="#fff">
                <use xlink:href="#g"/>
            </mask>
            <path fill="#FEFEFE" d="M121.076 182.564c2.491 5.344-.55 9.558-6.035 7.894l-.003-.014c-.786 1.019-2.16 1.704-4.4 1.704h-5.434v-56.712c10.6 6.756 15.102 19.102 15.872 47.127" mask="url(#h)"/>
        </g>
        <g transform="translate(0 .516)">
            <mask id="j" fill="#fff">
                <use xlink:href="#i"/>
            </mask>
            <path fill="#161112" d="M117.356 191.992c-.835 0-1.727-.139-2.653-.42a1.162 1.162 0 0 1-.776-1.452 1.166 1.166 0 0 1 1.451-.776c1.998.604 3.678.333 4.612-.747 1.066-1.227 1.077-3.298.03-5.54a1.179 1.179 0 0 1-.108-.46c-.743-27.01-4.899-39.526-15.334-46.178a1.166 1.166 0 0 1 1.252-1.964c11.166 7.116 15.618 20.093 16.404 47.842 1.336 3.02 1.16 5.931-.483 7.827-1.069 1.23-2.603 1.868-4.395 1.868" mask="url(#j)"/>
        </g>
        <g transform="translate(0 .516)">
            <mask id="l" fill="#fff">
                <use xlink:href="#k"/>
            </mask>
            <path fill="#FEFEFE" d="M109.129 153.12c2.359 12.951 3.045 48.943 1.77 65.131 4.375 5.568 4.433 16.585-9.02 16.585-13.452 0-16.836-7.076-16.836-12.512 0 5.436-3.385 12.512-16.837 12.512-13.453 0-13.394-11.017-9.02-16.585-1.275-16.188-.59-52.18 1.77-65.13l3.588-18.636h40.998l3.587 18.635z" mask="url(#l)"/>
        </g>
        <g transform="translate(0 .516)">
            <mask id="n" fill="#fff">
                <use xlink:href="#m"/>
            </mask>
            <path fill="#161112" d="M110.683 168.036c-5.4 2.141-9.29 7.638-9.29 15.087 0 7.836 4.298 13.518 10.137 15.394.03-10.08-.26-21.245-.847-30.48" mask="url(#n)"/>
        </g>
        <g transform="translate(0 .516)">
            <mask id="p" fill="#fff">
                <use xlink:href="#o"/>
            </mask>
            <path fill="#161112" d="M101.88 236c-10.687 0-15.067-4.284-16.837-8.211-1.77 3.927-6.15 8.211-16.837 8.211-7.435 0-10.532-3.158-11.82-5.809-2.033-4.183-.628-9.203 1.605-12.29-1.233-16.447-.561-51.92 1.82-64.99a1.163 1.163 0 1 1 2.291.418c-2.375 13.04-3.024 48.712-1.754 64.83.022.291-.065.58-.245.811-2.021 2.572-3.227 6.902-1.621 10.203 1.429 2.943 4.792 4.498 9.724 4.498 14.145 0 15.672-7.936 15.672-11.347a1.166 1.166 0 0 1 2.33 0c0 3.411 1.527 11.347 15.672 11.347 4.93 0 8.294-1.555 9.724-4.497 1.605-3.302.4-7.632-1.62-10.204a1.17 1.17 0 0 1-.246-.811c1.27-16.119.62-51.79-1.754-64.83a1.162 1.162 0 0 1 .936-1.354 1.167 1.167 0 0 1 1.355.936c2.38 13.07 3.052 48.543 1.82 64.99 2.233 3.088 3.639 8.107 1.604 12.291-1.288 2.65-4.384 5.808-11.82 5.808" mask="url(#p)"/>
        </g>
        <g transform="translate(0 .516)">
            <mask id="r" fill="#fff">
                <use xlink:href="#q"/>
            </mask>
            <path fill="#FEFEFE" d="M70.42 56.867l-5.917-17.423L52.25 63.53c-12.765 8.662-21.957 24.017-21.593 40.265.366 16.248 13.246 40.076 53.363 37.93 40.117-2.147 52.738-26.585 54.986-43.519 2.247-16.935-4.473-29.12-14.823-38.263l-9.504-24.507-8.62 21.013c-10.434-.718-27.362-.64-35.64.418" mask="url(#r)"/>
        </g>
        <g transform="translate(0 .516)">
            <mask id="t" fill="#fff">
                <use xlink:href="#s"/>
            </mask>
            <path fill="#161112" d="M92.644 55.99c-8.315-.067-16.995.208-22.224.877l-5.917-17.423L52.25 63.53c-12.764 8.662-21.957 24.017-21.592 40.265.11 4.93 1.384 10.558 4.212 15.948 32.809-1.429 55.41-26.867 57.774-63.753" mask="url(#t)"/>
        </g>
        <g transform="translate(0 .516)">
            <mask id="v" fill="#fff">
                <use xlink:href="#u"/>
            </mask>
            <path fill="#161112" d="M64.288 42.435l-11 21.624a1.171 1.171 0 0 1-.385.436c-13.14 8.919-21.417 24.335-21.082 39.274.1 4.442 1.42 15.783 11.484 25.11 9.248 8.572 23.3 12.612 40.652 11.683 11.4-.61 48.98-5.48 53.894-42.51 1.957-14.744-2.766-26.925-14.44-37.236a1.157 1.157 0 0 1-.314-.451l-8.449-21.784-7.51 18.31a1.17 1.17 0 0 1-1.159.72c-9.9-.682-26.88-.68-35.412.413a1.17 1.17 0 0 1-1.25-.781l-5.029-14.808zM79.17 143.022c-15.752 0-28.627-4.26-37.447-12.434-10.718-9.933-12.122-22.028-12.23-26.767-.35-15.615 8.22-31.707 21.855-41.084l12.118-23.821a1.143 1.143 0 0 1 1.121-.633c.468.034.87.343 1.02.787l5.613 16.529c8.668-.966 24.34-.976 34.081-.367l8.301-20.236c.18-.442.614-.764 1.09-.723.476.005.901.299 1.074.743l9.402 24.243c11.975 10.68 17.02 23.833 14.993 39.1-1.303 9.813-9.195 42.02-56.078 44.53a92.164 92.164 0 0 1-4.913.133z" mask="url(#v)"/>
        </g>
        <g transform="translate(0 .516)">
            <mask id="x" fill="#fff">
                <use xlink:href="#w"/>
            </mask>
            <path fill="#161112" d="M95.856 106.998a1.165 1.165 0 0 1-.433-2.246c5.144-2.057 14.965-4.277 21.864-4.277a1.165 1.165 0 1 1 0 2.33c-6.412 0-16.035 2.125-20.998 4.109a1.161 1.161 0 0 1-.433.084" mask="url(#x)"/>
        </g>
        <g transform="translate(0 .516)">
            <mask id="z" fill="#fff">
                <use xlink:href="#y"/>
            </mask>
            <path fill="#161112" d="M110.917 102.132c3.11-6.176 1.906-12.47-1.976-16.39l-.023-.026c-3.309.096-6.244.945-8.791 2.386-3.57 2.642-4.885 14.338-.428 16.424l.003.002c3.355-.991 7.396-1.871 11.212-2.392l.003-.004z" mask="url(#z)"/>
        </g>
        <g transform="translate(0 .516)">
            <mask id="B" fill="#fff">
                <use xlink:href="#A"/>
            </mask>
            <path fill="#FEFEFE" d="M103.185 94.103c-.292 1.238-1.382 2.04-2.432 1.791-1.051-.247-1.668-1.45-1.376-2.688.292-1.237 1.379-2.04 2.432-1.791 1.05.247 1.666 1.45 1.376 2.688" mask="url(#B)"/>
        </g>
        <g transform="translate(0 .516)">
            <mask id="D" fill="#fff">
                <use xlink:href="#C"/>
            </mask>
            <path fill="#161112" d="M90.22 101.826a1.166 1.166 0 0 1-1.095-1.563c4.706-12.935 15.287-18.357 28.307-14.509a1.165 1.165 0 1 1-.661 2.234c-11.702-3.462-21.22 1.425-25.456 13.071a1.166 1.166 0 0 1-1.095.767" mask="url(#D)"/>
        </g>
        <g transform="translate(0 .516)">
            <mask id="F" fill="#fff">
                <use xlink:href="#E"/>
            </mask>
            <path fill="#161112" d="M91.197 101.873a1.164 1.164 0 0 1-1.068-1.628c5.232-12.073 14.35-16.339 27.107-12.677a1.165 1.165 0 0 1-.643 2.239c-11.61-3.329-19.569.384-24.327 11.364-.19.439-.62.702-1.069.702" mask="url(#F)"/>
        </g>
        <g transform="translate(0 .516)">
            <mask id="H" fill="#fff">
                <use xlink:href="#G"/>
            </mask>
            <path fill="#161112" d="M104.776 89.09a1.165 1.165 0 0 1-.812-2c1.285-1.247 2.792-4.315 2.988-6.077.07-.64.65-1.1 1.286-1.03.64.07 1.1.647 1.03 1.286-.256 2.297-2.009 5.868-3.68 7.493a1.16 1.16 0 0 1-.812.329" mask="url(#H)"/>
        </g>
        <g transform="translate(0 .516)">
            <mask id="J" fill="#fff">
                <use xlink:href="#I"/>
            </mask>
            <path fill="#161112" d="M107.865 88.68a1.166 1.166 0 0 1-.632-2.144c1.943-1.251 3.904-4.691 4.296-6.818a1.164 1.164 0 1 1 2.291.422c-.497 2.699-2.755 6.7-5.325 8.354a1.158 1.158 0 0 1-.63.186" mask="url(#J)"/>
        </g>
        <g transform="translate(0 .516)">
            <mask id="L" fill="#fff">
                <use xlink:href="#K"/>
            </mask>
            <path fill="#161112" d="M110.185 88.668c-.521 0-.995-.352-1.13-.879a1.166 1.166 0 0 1 .845-1.415c2.54-.642 6.495-4.984 6.938-7.616a1.165 1.165 0 1 1 2.297.386c-.587 3.492-5.284 8.634-8.664 9.489a1.172 1.172 0 0 1-.286.035" mask="url(#L)"/>
        </g>
        <g transform="translate(0 .516)">
            <mask id="N" fill="#fff">
                <use xlink:href="#M"/>
            </mask>
            <path fill="#161112" d="M81.787 114.685c-.317 0-.62-.13-.84-.36l-4.287-4.472a1.165 1.165 0 1 1 1.682-1.611l3.445 3.595 3.446-3.595a1.165 1.165 0 1 1 1.682 1.61l-4.287 4.474a1.164 1.164 0 0 1-.84.359" mask="url(#N)"/>
        </g>
        <g transform="translate(0 .516)">
            <mask id="P" fill="#fff">
                <use xlink:href="#O"/>
            </mask>
            <path fill="#161112" d="M81.787 120.904a1.164 1.164 0 0 1-1.164-1.165v-6.22a1.164 1.164 0 0 1 2.33 0v6.22c0 .644-.522 1.165-1.166 1.165" mask="url(#P)"/>
        </g>
        <g transform="translate(0 .516)">
            <mask id="R" fill="#fff">
                <use xlink:href="#Q"/>
            </mask>
            <path fill="#9E191D" d="M80.984 120.914c-1.289 0-2.535-.068-3.643-.13l-.832-.044a1.166 1.166 0 0 1 .12-2.327l.84.046c3.936.218 9.882.545 11.781-2.852a1.165 1.165 0 0 1 2.032 1.137c-1.968 3.52-6.334 4.17-10.298 4.17" mask="url(#R)"/>
        </g>
    </g>
</svg>
