<svg xmlns="http://www.w3.org/2000/svg" xmlns:xlink="http://www.w3.org/1999/xlink" width="171" height="172" viewBox="0 0 171 172">
    <defs>
        <path id="a" d="M0 .136h170.078v170.079H0z"/>
        <path id="c" d="M0 85.176c0 46.966 38.074 85.038 85.039 85.038 46.967 0 85.039-38.072 85.039-85.038 0-46.966-38.072-85.039-85.039-85.039C38.074.137 0 38.21 0 85.176"/>
        <path id="e" d="M0 85.176c0 46.966 38.074 85.038 85.039 85.038 46.967 0 85.039-38.072 85.039-85.038 0-46.966-38.072-85.039-85.039-85.039C38.074.137 0 38.21 0 85.176"/>
        <path id="g" d="M0 85.176c0 46.966 38.074 85.038 85.039 85.038 46.967 0 85.039-38.072 85.039-85.038 0-46.966-38.072-85.039-85.039-85.039C38.074.137 0 38.21 0 85.176z"/>
        <path id="i" d="M0 85.176c0 46.966 38.074 85.038 85.039 85.038 46.967 0 85.039-38.072 85.039-85.038 0-46.966-38.072-85.039-85.039-85.039C38.074.137 0 38.21 0 85.176"/>
        <path id="k" d="M0 85.176c0 46.966 38.074 85.038 85.039 85.038 46.967 0 85.039-38.072 85.039-85.038 0-46.966-38.072-85.039-85.039-85.039C38.074.137 0 38.21 0 85.176"/>
        <path id="m" d="M0 85.176c0 46.966 38.074 85.038 85.039 85.038 46.967 0 85.039-38.072 85.039-85.038 0-46.966-38.072-85.039-85.039-85.039C38.074.137 0 38.21 0 85.176"/>
        <path id="o" d="M0 85.176c0 46.966 38.074 85.038 85.039 85.038 46.967 0 85.039-38.072 85.039-85.038 0-46.966-38.072-85.039-85.039-85.039C38.074.137 0 38.21 0 85.176z"/>
    </defs>
    <g fill="none" fill-rule="evenodd">
        <g transform="translate(0 .864)">
            <mask id="b" fill="#fff">
                <use xlink:href="#a"/>
            </mask>
            <path fill="#F37820" d="M85.04.136C38.072.136 0 38.209 0 85.176c0 46.966 38.073 85.039 85.04 85.039 46.965 0 85.038-38.073 85.038-85.04 0-46.966-38.073-85.04-85.039-85.04" mask="url(#b)"/>
        </g>
        <g transform="translate(0 .864)">
            <mask id="d" fill="#fff">
                <use xlink:href="#c"/>
            </mask>
            <path fill="#FCB813" d="M127.654 118.915c3.55-22.003 2.326-47.116-4.802-61.591-7.54-15.311-21.032-21.742-35.31-21.742-14.279 0-29.444 7.67-40.044 28.132-10.602 20.463-9.376 52.121-9.376 52.121s10.655 3.231 30.321 5.544c38.434 4.517 59.211-2.464 59.211-2.464" mask="url(#d)"/>
            <mask id="f" fill="#fff">
                <use xlink:href="#e"/>
            </mask>
            <path fill="#FEFEFE" d="M115.373 124.993s12.023 10.581 15.429 40.67c2.755 24.335.28 42.88.28 42.88s-4.121 1.296-12.216.665" mask="url(#f)"/>
            <mask id="h" fill="#fff">
                <use xlink:href="#g"/>
            </mask>
            <path fill="#161112" d="M123.173 210.546c-1.311 0-2.777-.051-4.397-.178a1.165 1.165 0 0 1-1.071-1.251 1.176 1.176 0 0 1 1.252-1.071c5.85.456 9.577-.127 11.055-.44.387-3.787 1.849-20.687-.368-41.822-2.885-27.496-14.971-39.845-15.093-39.966a1.165 1.165 0 0 1 1.642-1.652c.521.517 12.788 12.982 15.767 41.374 2.541 24.211.301 42.957.278 43.145a1.163 1.163 0 0 1-.807.968c-.142.045-2.913.893-8.258.893z" mask="url(#h)"/>
            <mask id="j" fill="#fff">
                <use xlink:href="#i"/>
            </mask>
            <path fill="#FEFEFE" d="M60.596 124.897s-12.7 10.677-16.105 40.765c-2.755 24.337-.28 42.88-.28 42.88s4.12 1.297 12.215.666" mask="url(#j)"/>
            <mask id="l" fill="#fff">
                <use xlink:href="#k"/>
            </mask>
            <path fill="#161112" d="M52.12 210.546c-5.346 0-8.116-.848-8.259-.893a1.162 1.162 0 0 1-.806-.968c-.023-.188-2.263-18.934.277-43.145 2.98-28.406 15.912-40.967 16.462-41.488a1.164 1.164 0 1 1 1.604 1.689c-.128.122-12.865 12.56-15.749 40.043-2.217 21.135-.756 38.035-.369 41.823 1.476.312 5.201.898 11.055.439.63-.043 1.202.43 1.252 1.07a1.164 1.164 0 0 1-1.07 1.252c-1.62.126-3.086.178-4.397.178" mask="url(#l)"/>
            <mask id="n" fill="#fff">
                <use xlink:href="#m"/>
            </mask>
            <path fill="#FEFEFE" d="M119.397 212.735l-2.237-65.503-1.962-22.535-5.569-9.449-43.431.242-5.32 8.963-2.746 22.744-2.235 65.503c9.902.474 19.706 4.1 19.706 4.1.492-5.868.854-12.06 1.11-18.355 6.363.465 13.896.684 21.883.232.251 6.228.608 12.352 1.093 18.158 0 0 9.806-3.625 19.708-4.1" mask="url(#n)"/>
            <mask id="p" fill="#fff">
                <use xlink:href="#o"/>
            </mask>
            <path fill="#FEFEFE" d="M77.145 134.234h20.922v-10.898H77.145z" mask="url(#p)"/>
            <path fill="#161112" d="M99.69 218a1.166 1.166 0 0 1-1.16-1.067c-3.332-39.705-.487-94.926-.459-95.479a1.164 1.164 0 1 1 2.326.122c-.028.545-2.794 54.246.331 93.669 2.962-.976 10.038-3.078 17.466-3.604l-2.198-64.37a1.165 1.165 0 0 1 1.125-1.204c.657-.059 1.18.482 1.204 1.124l2.234 65.505a1.163 1.163 0 0 1-1.106 1.203c-9.612.46-19.263 3.994-19.36 4.029a1.148 1.148 0 0 1-.404.072M75.603 217.965c-.136 0-.272-.023-.403-.072-.097-.035-9.76-3.57-19.36-4.03a1.164 1.164 0 0 1-1.108-1.203l2.236-65.503c.022-.642.533-1.184 1.203-1.125a1.165 1.165 0 0 1 1.124 1.204l-2.197 64.369c7.43.526 14.505 2.629 17.466 3.605 3.13-39.428.523-93.093.496-93.637a1.166 1.166 0 0 1 1.105-1.221 1.146 1.146 0 0 1 1.221 1.105c.029.553 2.709 55.737-.623 95.44a1.161 1.161 0 0 1-1.16 1.068" mask="url(#p)"/>
            <path fill="#161112" d="M104.942 139.007a1.164 1.164 0 0 1-1.145-.951c-1.64-8.826-5.542-15.904-5.58-15.974a1.166 1.166 0 0 1 2.035-1.134c.153.274 3.46 6.263 5.337 14.31 2.376-2.842 6.831-8.206 8.436-10.38-.818-1.68-3.209-6.42-5.285-8.878a1.164 1.164 0 1 1 1.78-1.504c2.737 3.243 5.78 9.73 5.907 10.004.173.37.14.803-.088 1.142-1.567 2.335-10.142 12.518-10.505 12.95a1.165 1.165 0 0 1-.892.415M70.885 139.249c-.35 0-.685-.156-.91-.436-.357-.446-8.768-10.944-10.326-13.267a1.164 1.164 0 0 1-.088-1.141c.12-.261 3.009-6.423 5.747-9.667a1.164 1.164 0 1 1 1.779 1.503c-2.064 2.446-4.336 6.927-5.126 8.545 1.59 2.199 5.946 7.696 8.29 10.639 1.838-7.896 4.869-13.229 5.01-13.474a1.164 1.164 0 1 1 2.02 1.16c-.036.064-3.614 6.374-5.251 15.187a1.167 1.167 0 0 1-1.145.951M87.584 135.473c-6.982 0-11.662-3.792-11.731-3.851a1.165 1.165 0 1 1 1.49-1.791c.398.33 9.298 7.434 20.857-.081a1.164 1.164 0 1 1 1.27 1.953c-4.344 2.825-8.403 3.77-11.886 3.77" mask="url(#p)"/>
            <path fill="#FEFEFE" d="M110.981 114.178c-16.812 13.675-31.454 12.047-41.104 4.696-9.649-7.35-8.823-34.7-9.025-37.356 0 0 8.941-24.286 24.367-24.286 15.428 0 27.987 18.05 27.987 28.622 0 10.573-2.225 28.324-2.225 28.324" mask="url(#p)"/>
            <path fill="#161112" d="M86.324 125.611c-8.146 0-14.08-3.47-17.152-5.81-8.987-6.847-9.327-29.115-9.438-36.43-.014-.862-.02-1.47-.043-1.766-.05-.64.431-1.2 1.072-1.249a1.176 1.176 0 0 1 1.25 1.073c.025.318.036.977.05 1.905.288 18.881 3.155 30.525 8.52 34.613 11.13 8.478 25.587 6.776 39.663-4.673a1.166 1.166 0 0 1 1.47 1.808c-9.815 7.983-18.415 10.53-25.392 10.53" mask="url(#p)"/>
            <path fill="#161112" d="M81.575 105.674a1.161 1.161 0 0 1-1.115-.832c-.847-2.85-2.88-3.872-2.9-3.882a1.164 1.164 0 0 1-.618-1.397l1.21-3.916a1.162 1.162 0 0 1 1.64-.696c.5.248 1.777.65 2.3.22.623-.628.984-4.86.765-9.05a1.164 1.164 0 0 1 1.103-1.223 1.156 1.156 0 0 1 1.224 1.1c.145 2.777.281 9.4-1.604 10.965-1.109.923-2.54.807-3.564.539l-.586 1.9c.971.716 2.495 2.194 3.262 4.776a1.164 1.164 0 0 1-1.117 1.496" mask="url(#p)"/>
            <path fill="#161112" d="M85.055 103.426a.702.702 0 0 1-.596-.333c-.621-1.008-1.568-1.511-1.946-1.681-.352-.157-.51-.571-.352-.923.159-.352.572-.511.923-.352.496.223 1.74.885 2.566 2.223a.7.7 0 0 1-.595 1.066M83.713 110.543c-1.928 0-3.326-.151-3.477-.169a1.164 1.164 0 0 1-1.025-1.288 1.163 1.163 0 0 1 1.287-1.026c.09.008 9.11.986 12.748-2.138a1.165 1.165 0 0 1 1.518 1.767c-2.792 2.399-7.715 2.854-11.051 2.854M87.02 83.32a1.164 1.164 0 0 1-.963-1.819l7.153-10.536a1.165 1.165 0 0 1 1.928 1.308l-7.153 10.535a1.165 1.165 0 0 1-.966.511M81.067 83.496c-.369 0-.733-.176-.96-.504L71.67 70.745a1.164 1.164 0 1 1 1.918-1.322l8.437 12.247a1.164 1.164 0 0 1-.958 1.826M104.856 87.017a1.155 1.155 0 0 0-1.322-.83c.45-.261.694-.785.545-1.308a1.164 1.164 0 0 0-1.44-.8c-5.67 1.622-12.535 1.22-12.603 1.216a1.175 1.175 0 0 0-1.236 1.09 1.154 1.154 0 0 0 .986 1.207 1.152 1.152 0 0 0-.377.758c-.03.392.15.736.43.97a1.155 1.155 0 0 0-.728.946 1.164 1.164 0 0 0 1.038 1.278c.037.004.194.019.431.036-.01.64.496 1.17 1.136 1.185.047 0 .29.007.69.007 1.72 0 6.32-.097 10.265-1.03a1.166 1.166 0 0 0 .866-1.401l-.049-.105c.489-.257.754-.814.584-1.36a1.145 1.145 0 0 0-.216-.39l.178-.042c.62-.167.988-.806.822-1.427M78.864 85.763c-6.76.387-11.606-.74-11.654-.751a1.165 1.165 0 0 0-.54 2.267l.201.045a1.123 1.123 0 0 0-.365.6 1.13 1.13 0 0 0 .041.574 1.155 1.155 0 0 0-.978.912 1.147 1.147 0 0 0 .645 1.259l-.065.127c-.172.619.19 1.26.81 1.434.162.045 3.122.852 7.243.852 1.37 0 2.868-.09 4.433-.325a1.163 1.163 0 0 0 .98-1.324 1.15 1.15 0 0 0-.384-.681 1.149 1.149 0 0 0-.266-1.585 1.15 1.15 0 0 0 .075-.514 1.15 1.15 0 0 0-.23-.557l.187-.008a1.164 1.164 0 0 0 1.096-1.23 1.16 1.16 0 0 0-1.229-1.095" mask="url(#p)"/>
            <path fill="#FFF100" d="M122.853 57.324c-7.54-15.312-21.032-21.742-35.311-21.742s-29.444 7.67-40.044 28.132c-10.601 20.463-9.375 52.121-9.375 52.121s7.527 2.282 21.599 4.383l-.12-.065s-2.938-17.85 5.533-37.377c6.023-13.88 17.928-21.895 24.807-25.56l.93 1.842c2.326 4.452 8.865 15.96 17.564 22.856 4.27 20.773.734 38.433.333 40.311 12.404-1.135 18.885-3.31 18.885-3.31 3.55-22.003 2.327-47.116-4.801-61.59" mask="url(#p)"/>
            <path fill="#FEFEFE" d="M61.422 50.684c5.144.629 7.057-3.201 10.18-2.207 1.634.52 4.71 4.44 8.158 4.61 3.447.169 6.143-2.686 9.148-2.61 3.663.095 6.719 3.25 10.384 3.308 3.475.053 6.487-2.668 9.913-3.366 2.99-.608 6.052.223 8.92 1.2.603.207 1.174.38 1.73.532-2.57-3.807-5.59-6.882-8.92-9.318-1.08 1.187-2.205 2.422-4.434 2.717-3.885.513-5.99-3.163-9.932-3.486-3.586-.294-6.603 3.286-10.18 2.917-2.68-.277-3.841-3.108-7.271-3.323-3.33-.211-5.69 2.25-8.806 1.732-1.673-.278-2.671-1.037-3.453-1.862-3.102 1.924-6.116 4.355-8.982 7.352.895.937 2.069 1.623 3.545 1.804" mask="url(#p)"/>
            <path fill="#FCB813" d="M59.6 121.318c-.56 0-1.054-.404-1.147-.976-.123-.743-2.896-18.415 5.615-38.029 8.873-20.45 29.827-28.309 30.716-28.634a1.166 1.166 0 0 1 .799 2.188c-.208.076-20.912 7.861-29.38 27.373-8.238 18.991-5.481 36.55-5.452 36.724a1.164 1.164 0 0 1-.961 1.338l-.19.016z" mask="url(#p)"/>
            <path fill="#FCB813" d="M113.536 86.392c-.177 0-.355-.04-.523-.125C99.16 79.279 89.301 58.59 88.888 57.712a1.164 1.164 0 0 1 2.107-.992c.1.208 9.935 20.843 23.065 27.467a1.164 1.164 0 0 1-.524 2.205" mask="url(#p)"/>
            <path fill="#FCB813" d="M108.733 123.564l-.222-.02a1.165 1.165 0 0 1-.923-1.365c4-20.731-.258-39.803-.3-39.993a1.164 1.164 0 1 1 2.27-.52c.044.196 4.41 19.746.318 40.955a1.167 1.167 0 0 1-1.143.944M116.484 82.31a.692.692 0 0 1-.346-.093C104.925 75.81 96.646 58.946 96.3 58.232a.7.7 0 1 1 1.257-.61c.083.17 8.44 17.19 19.274 23.38.336.194.452.62.26.954a.697.697 0 0 1-.607.354M115.373 119.03l-.144-.015a.7.7 0 0 1-.541-.827c2.512-12.002 1.115-29.515 1.1-29.69a.7.7 0 0 1 1.394-.114c.014.177 1.427 17.892-1.125 30.09a.7.7 0 0 1-.684.556M121.911 113.877l-.095-.007a.697.697 0 0 1-.598-.786c1.558-11.467.183-29.717.17-29.899a.696.696 0 0 1 .642-.75.702.702 0 0 1 .75.642c.015.185 1.402 18.583-.178 30.195a.699.699 0 0 1-.69.605M120.323 79.038a.691.691 0 0 1-.416-.139c-9.489-7.049-14.875-18.294-15.1-18.769a.7.7 0 0 1 1.264-.598c.054.113 5.467 11.41 14.67 18.246a.698.698 0 0 1-.418 1.26M120.324 71.746a.69.69 0 0 1-.487-.198c-5.035-4.893-9.8-15.467-10-15.914a.7.7 0 0 1 1.274-.572c.048.108 4.858 10.78 9.7 15.484a.698.698 0 0 1-.487 1.2M54.499 111.974h-.005a.7.7 0 0 1-.694-.704c.237-36.221 19.2-52.467 19.39-52.626a.698.698 0 1 1 .897 1.072c-.046.039-4.719 4-9.358 12.302-4.281 7.66-9.41 20.69-9.532 39.262a.698.698 0 0 1-.698.694M48.027 113.584h-.02a.698.698 0 0 1-.679-.717c.664-25.4 9.07-40.533 9.153-40.683a.7.7 0 0 1 1.217.688c-.083.148-8.318 15.006-8.974 40.031a.698.698 0 0 1-.697.681M44.919 92.558l-.104-.008a.698.698 0 0 1-.588-.794c2.15-14.47 7.669-24.581 11.92-30.517 4.623-6.454 8.692-9.441 8.862-9.565a.698.698 0 1 1 .82 1.13c-.16.119-16.193 12.06-20.22 39.158a.698.698 0 0 1-.69.596" mask="url(#p)"/>
            <path fill="#161112" d="M127.656 120.08l-.187-.015a1.165 1.165 0 0 1-.964-1.336c3.731-23.136 1.844-47.606-4.698-60.89-6.697-13.602-18.867-21.092-34.265-21.092-15.968 0-29.822 9.768-39.01 27.503-10.34 19.958-9.259 51.227-9.246 51.541A1.164 1.164 0 0 1 38.167 117a1.176 1.176 0 0 1-1.209-1.119c-.05-1.305-1.115-32.202 9.506-52.7 9.608-18.548 24.196-28.763 41.078-28.763 16.333 0 29.244 7.953 36.356 22.393 6.842 13.896 8.77 38.347 4.906 62.291a1.164 1.164 0 0 1-1.148.98" mask="url(#p)"/>
        </g>
    </g>
</svg>
