<svg xmlns="http://www.w3.org/2000/svg" xmlns:xlink="http://www.w3.org/1999/xlink" width="171" height="172" viewBox="0 0 171 172">
    <defs>
        <path id="a" d="M0 .276h170.078v170.078H0z"/>
        <path id="c" d="M0 85.317c0 46.965 38.074 85.038 85.039 85.038 46.967 0 85.039-38.073 85.039-85.038 0-46.968-38.072-85.04-85.039-85.04C38.074.277 0 38.349 0 85.317"/>
        <path id="e" d="M0 85.317c0 46.965 38.074 85.038 85.039 85.038 46.967 0 85.039-38.073 85.039-85.038 0-46.968-38.072-85.04-85.039-85.04C38.074.277 0 38.349 0 85.317"/>
        <path id="g" d="M0 85.317c0 46.965 38.074 85.038 85.039 85.038 46.967 0 85.039-38.073 85.039-85.038 0-46.968-38.072-85.04-85.039-85.04C38.074.277 0 38.349 0 85.317"/>
        <path id="i" d="M0 85.317c0 46.965 38.074 85.038 85.039 85.038 46.967 0 85.039-38.073 85.039-85.038 0-46.968-38.072-85.04-85.039-85.04C38.074.277 0 38.349 0 85.317"/>
        <path id="k" d="M0 85.317c0 46.965 38.074 85.038 85.039 85.038 46.967 0 85.039-38.073 85.039-85.038 0-46.968-38.072-85.04-85.039-85.04C38.074.277 0 38.349 0 85.317"/>
        <path id="m" d="M0 85.317c0 46.965 38.074 85.038 85.039 85.038 46.967 0 85.039-38.073 85.039-85.038 0-46.968-38.072-85.04-85.039-85.04C38.074.277 0 38.349 0 85.317"/>
        <path id="o" d="M0 85.317c0 46.965 38.074 85.038 85.039 85.038 46.967 0 85.039-38.073 85.039-85.038 0-46.968-38.072-85.04-85.039-85.04C38.074.277 0 38.349 0 85.317"/>
        <path id="q" d="M0 85.317c0 46.965 38.074 85.038 85.039 85.038 46.967 0 85.039-38.073 85.039-85.038 0-46.968-38.072-85.04-85.039-85.04C38.074.277 0 38.349 0 85.317"/>
        <path id="s" d="M0 85.317c0 46.965 38.074 85.038 85.039 85.038 46.967 0 85.039-38.073 85.039-85.038 0-46.968-38.072-85.04-85.039-85.04C38.074.277 0 38.349 0 85.317"/>
        <path id="u" d="M0 85.317c0 46.965 38.074 85.038 85.039 85.038 46.967 0 85.039-38.073 85.039-85.038 0-46.968-38.072-85.04-85.039-85.04C38.074.277 0 38.349 0 85.317"/>
        <path id="w" d="M0 85.317c0 46.965 38.074 85.038 85.039 85.038 46.967 0 85.039-38.073 85.039-85.038 0-46.968-38.072-85.04-85.039-85.04C38.074.277 0 38.349 0 85.317"/>
        <path id="y" d="M0 85.317c0 46.965 38.074 85.038 85.039 85.038 46.967 0 85.039-38.073 85.039-85.038 0-46.968-38.072-85.04-85.039-85.04C38.074.277 0 38.349 0 85.317"/>
        <path id="A" d="M0 85.317c0 46.965 38.074 85.038 85.039 85.038 46.967 0 85.039-38.073 85.039-85.038 0-46.968-38.072-85.04-85.039-85.04C38.074.277 0 38.349 0 85.317"/>
        <path id="C" d="M0 85.317c0 46.965 38.074 85.038 85.039 85.038 46.967 0 85.039-38.073 85.039-85.038 0-46.968-38.072-85.04-85.039-85.04C38.074.277 0 38.349 0 85.317"/>
        <path id="E" d="M0 85.317c0 46.965 38.074 85.038 85.039 85.038 46.967 0 85.039-38.073 85.039-85.038 0-46.968-38.072-85.04-85.039-85.04C38.074.277 0 38.349 0 85.317"/>
        <path id="G" d="M0 85.317c0 46.965 38.074 85.038 85.039 85.038 46.967 0 85.039-38.073 85.039-85.038 0-46.968-38.072-85.04-85.039-85.04C38.074.277 0 38.349 0 85.317"/>
        <path id="I" d="M0 85.317c0 46.965 38.074 85.038 85.039 85.038 46.967 0 85.039-38.073 85.039-85.038 0-46.968-38.072-85.04-85.039-85.04C38.074.277 0 38.349 0 85.317"/>
        <path id="K" d="M0 85.317c0 46.965 38.074 85.038 85.039 85.038 46.967 0 85.039-38.073 85.039-85.038 0-46.968-38.072-85.04-85.039-85.04C38.074.277 0 38.349 0 85.317"/>
    </defs>
    <g fill="none" fill-rule="evenodd">
        <g transform="translate(0 .724)">
            <mask id="b" fill="#fff">
                <use xlink:href="#a"/>
            </mask>
            <path fill="#005DAB" d="M85.04.276C38.072.276 0 38.35 0 85.316c0 46.965 38.073 85.038 85.04 85.038 46.965 0 85.038-38.073 85.038-85.039S132.005.276 85.04.276" mask="url(#b)"/>
        </g>
        <g transform="translate(0 .724)">
            <mask id="d" fill="#fff">
                <use xlink:href="#c"/>
            </mask>
            <path fill="#00AB4E" d="M61.355 137.943s-5.2 7.896-6.99 19.701c0 0-3.755 2.961-3.269 8.103.468 4.952 4.548 7.217 7.917 7.55 3.471.344 8.625-.867 10.152-7.194.53-2.204-.005-5.016-.707-6.8" mask="url(#d)"/>
        </g>
        <g transform="translate(0 .724)">
            <mask id="f" fill="#fff">
                <use xlink:href="#e"/>
            </mask>
            <path fill="#161112" d="M60.127 174.518c-.414 0-.825-.021-1.229-.061-4.094-.406-8.454-3.222-8.961-8.6-.451-4.768 2.316-7.843 3.341-8.807 1.865-11.685 6.888-19.42 7.104-19.747a1.165 1.165 0 0 1 1.946 1.28c-.051.078-5.084 7.848-6.812 19.237a1.166 1.166 0 0 1-.43.739c-.129.105-3.247 2.662-2.83 7.078.41 4.337 3.958 6.214 6.872 6.502 1.695.17 7.334.207 8.903-6.31.458-1.895 0-4.43-.657-6.1-.234-.6.06-1.273.658-1.51a1.168 1.168 0 0 1 1.511.658c.732 1.865 1.369 4.946.754 7.499-1.454 6.032-6.002 8.142-10.17 8.142" mask="url(#f)"/>
        </g>
        <g transform="translate(0 .724)">
            <mask id="h" fill="#fff">
                <use xlink:href="#g"/>
            </mask>
            <path fill="#00AB4E" d="M108.725 137.943s5.199 7.896 6.989 19.701c0 0 3.754 2.961 3.269 8.103-.468 4.952-4.548 7.217-7.917 7.55-3.472.344-8.626-.867-10.153-7.194-.53-2.204.005-5.016.707-6.8" mask="url(#h)"/>
        </g>
        <g transform="translate(0 .724)">
            <mask id="j" fill="#fff">
                <use xlink:href="#i"/>
            </mask>
            <path fill="#161112" d="M109.951 174.518c-4.168 0-8.716-2.11-10.17-8.142-.615-2.553.022-5.635.754-7.5a1.168 1.168 0 0 1 1.511-.657c.598.237.892.91.658 1.51-.657 1.67-1.115 4.205-.658 6.1 1.57 6.517 7.212 6.475 8.904 6.31 2.915-.288 6.464-2.165 6.873-6.502.421-4.458-2.798-7.053-2.83-7.078a1.17 1.17 0 0 1-.43-.74c-1.733-11.42-6.76-19.157-6.812-19.235a1.165 1.165 0 1 1 1.946-1.281c.215.327 5.24 8.062 7.104 19.747 1.024.964 3.791 4.039 3.341 8.807-.508 5.378-4.868 8.194-8.962 8.6-.404.04-.815.06-1.229.06" mask="url(#j)"/>
        </g>
        <g transform="translate(0 .724)">
            <mask id="l" fill="#fff">
                <use xlink:href="#k"/>
            </mask>
            <path fill="#00AB4E" d="M107.03 186.856c1.053-12.997-.373-35.64-.373-35.64l2.511-19.327H62.014l1.408 19.327s-1.427 22.643-.373 35.64c0 0-2.494 2.548-2.096 6.15.421 3.827 4.342 5.595 10.214 5.811 5.522.202 13.872-1.147 13.872-7.836 0 6.69 8.35 8.038 13.872 7.836 5.872-.216 9.793-1.984 10.215-5.812.397-3.6-2.096-6.149-2.096-6.149" mask="url(#l)"/>
        </g>
        <g transform="translate(0 .724)">
            <mask id="n" fill="#fff">
                <use xlink:href="#m"/>
            </mask>
            <path fill="#161112" d="M72.191 200c-.4 0-.76-.008-1.068-.02-8.776-.321-11.004-3.9-11.328-6.846-.358-3.245 1.292-5.718 2.055-6.67-.975-13.004.396-35.096.41-35.32a1.167 1.167 0 0 1 2.325.146c-.015.226-1.41 22.709-.374 35.472.027.337-.094.668-.33.909-.017.018-2.099 2.224-1.77 5.208.404 3.685 5.171 4.63 9.098 4.773 1.836.067 8.07.062 11.09-2.849 1.06-1.022 1.575-2.272 1.575-3.823v-15.593a1.164 1.164 0 1 1 2.33 0v15.593c0 2.187-.77 4.037-2.288 5.499-3.167 3.053-8.66 3.521-11.725 3.521" mask="url(#n)"/>
        </g>
        <g transform="translate(0 .724)">
            <mask id="p" fill="#fff">
                <use xlink:href="#o"/>
            </mask>
            <path fill="#161112" d="M97.885 200c-3.063 0-8.558-.468-11.725-3.521-1.517-1.462-2.286-3.312-2.286-5.499v-15.593a1.165 1.165 0 1 1 2.329 0v15.593c0 1.551.515 2.801 1.575 3.823 3.02 2.913 9.257 2.924 11.09 2.849 3.928-.143 8.694-1.088 9.1-4.773.33-2.984-1.753-5.19-1.773-5.211a1.174 1.174 0 0 1-.326-.905c1.035-12.767-.36-35.247-.375-35.473a1.166 1.166 0 0 1 1.089-1.236 1.179 1.179 0 0 1 1.237 1.09c.014.224 1.383 22.316.41 35.32.763.952 2.412 3.425 2.054 6.67-.325 2.946-2.553 6.525-11.33 6.846-.307.012-.667.02-1.07.02" mask="url(#p)"/>
        </g>
        <g transform="translate(0 .724)">
            <mask id="r" fill="#fff">
                <use xlink:href="#q"/>
            </mask>
            <path fill="#00AB4E" d="M114.273 94.782c1.115-3.356 1.702-7.115 1.76-11.277-.127-4.69-1.496-8.338-4.107-10.946-2.175-2.14-5.019-3.224-8.528-3.254-3.945.128-6.894 2.273-8.847 6.436-1.462 3.115-2.205 6.887-2.227 11.318v.052c-3.49-.343-10.887-.293-14.615.198-.004-4.535-.753-8.385-2.247-11.552-1.959-4.162-4.91-6.3-8.855-6.423-3.509.035-6.35 1.124-8.523 3.267-2.607 2.612-3.97 6.262-4.09 10.952.064 4.163.657 7.92 1.777 11.274 0 0-14.203 7.994-14.193 21.58.008 11.101 9.398 18.984 17.21 22.63 8.287 3.867 18.453 5.263 26.352 5.27 7.876-.04 17.96-1.457 26.185-5.31 7.805-3.658 17.183-11.556 17.175-22.657-.01-13.585-14.227-21.558-14.227-21.558" mask="url(#r)"/>
        </g>
        <g transform="translate(0 .724)">
            <mask id="t" fill="#fff">
                <use xlink:href="#s"/>
            </mask>
            <path fill="#161112" d="M66.571 70.498c-3.178.033-5.703.992-7.669 2.933-2.37 2.374-3.633 5.793-3.745 10.152.064 3.976.643 7.65 1.72 10.875a1.166 1.166 0 0 1-.535 1.384c-.135.077-13.608 7.836-13.599 20.565.007 10.22 8.547 17.846 16.538 21.575 9.951 4.644 21.4 5.157 25.86 5.162 4.431-.024 15.818-.576 25.69-5.203 7.984-3.741 16.511-11.38 16.504-21.6-.01-12.756-13.494-20.467-13.63-20.543a1.165 1.165 0 0 1-.536-1.384c1.072-3.226 1.643-6.902 1.7-10.925-.119-4.312-1.386-7.727-3.766-10.106-1.964-1.931-4.49-2.886-7.715-2.912-3.455.113-6.014 1.999-7.782 5.765-1.384 2.948-2.096 6.591-2.117 10.828-.002.33-.142.666-.385.886-.243.219-.559.357-.894.32-3.32-.325-10.594-.301-14.349.195a1.166 1.166 0 0 1-1.316-1.155c-.004-4.34-.722-8.06-2.136-11.056-1.772-3.765-4.335-5.647-7.838-5.756m18.575 74.975c-4.622-.005-16.477-.539-26.85-5.38-8.64-4.032-17.874-12.371-17.882-23.685-.01-12.333 10.841-20.114 13.97-22.101-.97-3.229-1.494-6.834-1.555-10.736.128-5.024 1.62-8.975 4.43-11.793 2.391-2.358 5.53-3.57 9.336-3.609 4.45.138 7.771 2.523 9.922 7.092 1.414 2.999 2.2 6.611 2.335 10.753 3.601-.33 8.986-.363 12.332-.159.15-4.101.925-7.651 2.314-10.608 2.143-4.572 5.462-6.963 9.862-7.105 3.853.031 6.994 1.237 9.384 3.586 2.821 2.821 4.318 6.77 4.453 11.746-.054 3.944-.57 7.554-1.537 10.785 3.133 1.983 13.994 9.748 14.004 22.081.01 11.311-9.212 19.665-17.845 23.711-10.29 4.823-22.082 5.398-26.673 5.422" mask="url(#t)"/>
        </g>
        <g transform="translate(0 .724)">
            <mask id="v" fill="#fff">
                <use xlink:href="#u"/>
            </mask>
            <path fill="#FEFEFE" d="M64.991 73.948c-1.363.112-2.585.815-3.59 1.928 3.216.9 5.855 4.711 6.25 9.485.388 4.673-1.497 8.794-4.415 10.296 1.12.822 2.364 1.245 3.644 1.14 4.02-.335 6.855-5.717 6.334-12.027-.522-6.307-4.205-11.153-8.223-10.822" mask="url(#v)"/>
        </g>
        <g transform="translate(0 .724)">
            <mask id="x" fill="#fff">
                <use xlink:href="#w"/>
            </mask>
            <path fill="#161112" d="M67.651 85.361c-.396-4.774-3.034-8.586-6.25-9.485-1.964 2.17-3.093 5.926-2.748 10.1.357 4.3 2.184 7.917 4.583 9.681 2.918-1.502 4.803-5.623 4.415-10.296" mask="url(#x)"/>
        </g>
        <g transform="translate(0 .724)">
            <mask id="z" fill="#fff">
                <use xlink:href="#y"/>
            </mask>
            <path fill="#FEFEFE" d="M104.82 74.03c-1.59-.132-3.123.533-4.436 1.76 2.54 1.497 4.476 4.826 4.807 8.834.432 5.2-1.987 9.718-5.522 10.701.943.892 2.048 1.451 3.264 1.553 4.073.336 7.797-4.504 8.316-10.812.52-6.31-2.36-11.7-6.43-12.036" mask="url(#z)"/>
        </g>
        <g transform="translate(0 .724)">
            <mask id="B" fill="#fff">
                <use xlink:href="#A"/>
            </mask>
            <path fill="#161112" d="M105.191 84.624c-.33-4.008-2.267-7.337-4.807-8.835-2.05 1.914-3.562 5.206-3.879 9.052-.365 4.426.946 8.389 3.164 10.484 3.535-.982 5.954-5.502 5.522-10.701" mask="url(#B)"/>
        </g>
        <g transform="translate(0 .724)">
            <mask id="D" fill="#fff">
                <use xlink:href="#C"/>
            </mask>
            <path fill="#161112" d="M83.82 91.73a1.806 1.806 0 1 1 0 0" mask="url(#D)"/>
        </g>
        <g transform="translate(0 .724)">
            <mask id="F" fill="#fff">
                <use xlink:href="#E"/>
            </mask>
            <path fill="#161112" d="M90.249 91.73a1.806 1.806 0 1 1 0 0" mask="url(#F)"/>
        </g>
        <g transform="translate(0 .724)">
            <mask id="H" fill="#fff">
                <use xlink:href="#G"/>
            </mask>
            <path fill="#161112" d="M76.048 112.676a1.164 1.164 0 0 1-.917-1.883c2.617-3.342 1.988-9.366-.096-13.031a1.165 1.165 0 0 1 2.026-1.15c2.509 4.413 3.16 11.46-.096 15.618-.23.293-.571.446-.917.446" mask="url(#H)"/>
        </g>
        <g transform="translate(0 .724)">
            <mask id="J" fill="#fff">
                <use xlink:href="#I"/>
            </mask>
            <path fill="#161112" d="M94.846 112.676c-.346 0-.688-.153-.918-.447-3.251-4.155-2.602-11.202-.096-15.617a1.165 1.165 0 0 1 2.026 1.15c-2.081 3.666-2.71 9.69-.096 13.032a1.166 1.166 0 0 1-.916 1.882" mask="url(#J)"/>
        </g>
        <g transform="translate(0 .724)">
            <mask id="L" fill="#fff">
                <use xlink:href="#K"/>
            </mask>
            <path fill="#161112" d="M85.447 108.929c-.363 0-.706-.17-.926-.457-1.046-1.37-4.494-3.942-6.934-4.555a1.165 1.165 0 0 1 .567-2.26c2.374.596 5.478 2.618 7.294 4.379 1.816-1.762 4.92-3.784 7.29-4.378a1.165 1.165 0 1 1 .566 2.259c-2.435.612-5.884 3.185-6.932 4.555-.22.289-.563.457-.925.457" mask="url(#L)"/>
        </g>
    </g>
</svg>
