<svg xmlns="http://www.w3.org/2000/svg" xmlns:xlink="http://www.w3.org/1999/xlink" width="171" height="172" viewBox="0 0 171 172">
    <defs>
        <path id="a" d="M0 .385h170.078v170.079H0z"/>
        <path id="c" d="M0 85.425c0 46.966 38.074 85.039 85.039 85.039 46.967 0 85.039-38.073 85.039-85.039S132.006.386 85.039.386C38.074.386 0 38.459 0 85.425"/>
        <path id="e" d="M0 85.425c0 46.966 38.074 85.039 85.039 85.039 46.967 0 85.039-38.073 85.039-85.039S132.006.386 85.039.386C38.074.386 0 38.459 0 85.425"/>
        <path id="g" d="M0 85.425c0 46.966 38.074 85.039 85.039 85.039 46.967 0 85.039-38.073 85.039-85.039S132.006.386 85.039.386C38.074.386 0 38.459 0 85.425"/>
        <path id="i" d="M0 85.425c0 46.966 38.074 85.039 85.039 85.039 46.967 0 85.039-38.073 85.039-85.039S132.006.386 85.039.386C38.074.386 0 38.459 0 85.425"/>
        <path id="k" d="M0 85.425c0 46.966 38.074 85.039 85.039 85.039 46.967 0 85.039-38.073 85.039-85.039S132.006.386 85.039.386C38.074.386 0 38.459 0 85.425"/>
        <path id="m" d="M0 85.425c0 46.966 38.074 85.039 85.039 85.039 46.967 0 85.039-38.073 85.039-85.039S132.006.386 85.039.386C38.074.386 0 38.459 0 85.425"/>
        <path id="o" d="M0 85.425c0 46.966 38.074 85.039 85.039 85.039 46.967 0 85.039-38.073 85.039-85.039S132.006.386 85.039.386C38.074.386 0 38.459 0 85.425z"/>
        <path id="q" d="M0 85.425c0 46.966 38.074 85.039 85.039 85.039 46.967 0 85.039-38.073 85.039-85.039S132.006.386 85.039.386C38.074.386 0 38.459 0 85.425"/>
        <path id="s" d="M0 85.425c0 46.966 38.074 85.039 85.039 85.039 46.967 0 85.039-38.073 85.039-85.039S132.006.386 85.039.386C38.074.386 0 38.459 0 85.425"/>
        <path id="u" d="M0 85.425c0 46.966 38.074 85.039 85.039 85.039 46.967 0 85.039-38.073 85.039-85.039S132.006.386 85.039.386C38.074.386 0 38.459 0 85.425"/>
        <path id="w" d="M0 85.425c0 46.966 38.074 85.039 85.039 85.039 46.967 0 85.039-38.073 85.039-85.039S132.006.386 85.039.386C38.074.386 0 38.459 0 85.425"/>
        <path id="y" d="M0 85.425c0 46.966 38.074 85.039 85.039 85.039 46.967 0 85.039-38.073 85.039-85.039S132.006.386 85.039.386C38.074.386 0 38.459 0 85.425"/>
        <path id="A" d="M0 85.425c0 46.966 38.074 85.039 85.039 85.039 46.967 0 85.039-38.073 85.039-85.039S132.006.386 85.039.386C38.074.386 0 38.459 0 85.425"/>
        <path id="C" d="M0 85.425c0 46.966 38.074 85.039 85.039 85.039 46.967 0 85.039-38.073 85.039-85.039S132.006.386 85.039.386C38.074.386 0 38.459 0 85.425"/>
        <path id="E" d="M0 85.425c0 46.966 38.074 85.039 85.039 85.039 46.967 0 85.039-38.073 85.039-85.039S132.006.386 85.039.386C38.074.386 0 38.459 0 85.425"/>
        <path id="G" d="M0 85.425c0 46.966 38.074 85.039 85.039 85.039 46.967 0 85.039-38.073 85.039-85.039S132.006.386 85.039.386C38.074.386 0 38.459 0 85.425z"/>
        <path id="I" d="M0 85.425c0 46.966 38.074 85.039 85.039 85.039 46.967 0 85.039-38.073 85.039-85.039S132.006.386 85.039.386C38.074.386 0 38.459 0 85.425"/>
        <path id="K" d="M0 85.425c0 46.966 38.074 85.039 85.039 85.039 46.967 0 85.039-38.073 85.039-85.039S132.006.386 85.039.386C38.074.386 0 38.459 0 85.425"/>
        <path id="M" d="M0 85.425c0 46.966 38.074 85.039 85.039 85.039 46.967 0 85.039-38.073 85.039-85.039S132.006.386 85.039.386C38.074.386 0 38.459 0 85.425z"/>
    </defs>
    <g fill="none" fill-rule="evenodd">
        <g transform="translate(0 .615)">
            <mask id="b" fill="#fff">
                <use xlink:href="#a"/>
            </mask>
            <path fill="#00AB6B" d="M85.04.385C38.072.385 0 38.458 0 85.425c0 46.966 38.073 85.039 85.04 85.039 46.965 0 85.038-38.073 85.038-85.04 0-46.966-38.073-85.04-85.039-85.04" mask="url(#b)"/>
        </g>
        <g transform="translate(0 .615)">
            <mask id="d" fill="#fff">
                <use xlink:href="#c"/>
            </mask>
            <path fill="#FEFEFE" d="M60.986 130.264s-10.352 5.966-14.495 24.31c-3.43 15.185-3.754 27.894-3.754 27.894s-3.01 9.588 4.52 14.454c7.246 4.682 14.924-2.026 14.924-2.026" mask="url(#d)"/>
            <mask id="f" fill="#fff">
                <use xlink:href="#e"/>
            </mask>
            <path fill="#161112" d="M52.774 199.732c-1.977 0-4.079-.494-6.15-1.833-7.602-4.913-5.418-14.235-5.047-15.61.051-1.48.56-13.728 3.778-27.972 4.207-18.628 14.608-24.809 15.05-25.064a1.164 1.164 0 1 1 1.166 2.017c-.1.06-9.978 6.002-13.944 23.561-3.364 14.885-3.723 27.54-3.726 27.666a1.174 1.174 0 0 1-.052.317c-.11.358-2.638 8.814 4.04 13.128 6.432 4.16 13.456-1.862 13.526-1.923a1.165 1.165 0 1 1 1.532 1.754c-.062.054-4.618 3.96-10.173 3.96" mask="url(#f)"/>
            <mask id="h" fill="#fff">
                <use xlink:href="#g"/>
            </mask>
            <path fill="#FEFEFE" d="M110.022 130.264s10.352 5.966 14.495 24.31c3.431 15.185 3.755 27.894 3.755 27.894s3.01 9.588-4.52 14.454c-7.246 4.682-14.924-2.026-14.924-2.026" mask="url(#h)"/>
            <mask id="j" fill="#fff">
                <use xlink:href="#i"/>
            </mask>
            <path fill="#161112" d="M118.233 199.732c-5.554 0-10.11-3.905-10.173-3.959a1.165 1.165 0 0 1 1.531-1.756c.288.25 7.117 6.07 13.53 1.925 6.676-4.314 4.15-12.77 4.038-13.127a1.15 1.15 0 0 1-.052-.318c-.004-.126-.363-12.78-3.726-27.666-3.966-17.559-13.843-23.502-13.943-23.56a1.165 1.165 0 0 1 1.166-2.018c.441.255 10.842 6.436 15.05 25.064 3.218 14.244 3.725 26.491 3.776 27.972.373 1.375 2.556 10.697-5.047 15.61-2.07 1.34-4.173 1.833-6.15 1.833" mask="url(#j)"/>
            <mask id="l" fill="#fff">
                <use xlink:href="#k"/>
            </mask>
            <path fill="#FEFEFE" d="M85.343 200.823v35.831c0 7.48-7.724 13.184-16.917 13.182-7.626-.003-13.865-1.253-15.376-7.374-1.635-6.626 2.546-11.263 2.546-11.263-2.534-40.735.559-78.968.559-78.968l3.144-29.069h52.02l3.316 29.07s3.094 38.232.56 78.967c0 0 4.18 4.637 2.544 11.263-1.51 6.121-7.75 7.371-15.375 7.374-9.193.002-16.917-5.703-16.917-13.182v-35.83" mask="url(#l)"/>
            <mask id="n" fill="#fff">
                <use xlink:href="#m"/>
            </mask>
            <path fill="#161112" d="M68.433 251h-.008c-7.154-.002-14.71-.985-16.506-8.259-1.502-6.087 1.46-10.595 2.486-11.925-2.46-40.184.558-78.296.589-78.678a1.172 1.172 0 0 1 1.254-1.068c.642.053 1.12.615 1.068 1.255-.031.382-3.057 38.622-.558 78.802.02.312-.088.619-.297.852-.151.169-3.74 4.29-2.28 10.204 1.137 4.605 5.264 6.485 14.245 6.488h.007c4.233 0 8.207-1.259 11.19-3.545 2.938-2.252 4.555-5.26 4.555-8.472v-35.831a1.166 1.166 0 0 1 2.329 0v35.831c0 3.953-1.941 7.618-5.467 10.321C77.653 249.57 73.175 251 68.433 251" mask="url(#n)"/>
            <mask id="p" fill="#fff">
                <use xlink:href="#o"/>
            </mask>
            <path fill="#161112" d="M102.356 251c-4.743 0-9.22-1.43-12.607-4.025-3.526-2.703-5.467-6.368-5.467-10.321v-35.831a1.165 1.165 0 1 1 2.33 0v35.831c0 3.212 1.617 6.22 4.555 8.472 2.982 2.286 6.956 3.545 11.19 3.545h.006c8.981-.003 13.108-1.883 14.245-6.488 1.471-5.956-2.242-10.162-2.279-10.204a1.162 1.162 0 0 1-.298-.852c2.5-40.18-.527-78.42-.558-78.802a1.167 1.167 0 0 1 1.07-1.255 1.174 1.174 0 0 1 1.253 1.068c.031.382 3.047 38.494.588 78.678 1.026 1.33 3.988 5.838 2.487 11.925-1.797 7.274-9.353 8.257-16.507 8.259h-.008z" mask="url(#p)"/>
            <mask id="r" fill="#fff">
                <use xlink:href="#q"/>
            </mask>
            <path fill="#FEFEFE" d="M139.07 87.556c0 29.84-24.19 54.03-54.032 54.03-29.84 0-54.03-24.19-54.03-54.03s24.19-54.031 54.03-54.031c29.841 0 54.032 24.19 54.032 54.03" mask="url(#r)"/>
            <g>
                <mask id="t" fill="#fff">
                    <use xlink:href="#s"/>
                </mask>
                <path fill="#161112" d="M85.038 34.69c-29.15 0-52.865 23.716-52.865 52.867 0 29.15 23.715 52.864 52.865 52.864 29.15 0 52.867-23.714 52.867-52.864 0-29.151-23.717-52.867-52.867-52.867m0 108.061c-30.435 0-55.194-24.76-55.194-55.195 0-30.434 24.76-55.197 55.194-55.197 30.436 0 55.196 24.762 55.196 55.197 0 30.436-24.76 55.195-55.196 55.195" mask="url(#t)"/>
            </g>
            <g>
                <mask id="v" fill="#fff">
                    <use xlink:href="#u"/>
                </mask>
                <path fill="#161112" d="M88.252 71.894a1.166 1.166 0 0 1-1.054-1.659l8.059-17.193a1.166 1.166 0 0 1 2.11.99l-8.059 17.192a1.167 1.167 0 0 1-1.056.67" mask="url(#v)"/>
            </g>
            <g>
                <mask id="x" fill="#fff">
                    <use xlink:href="#w"/>
                </mask>
                <path fill="#161112" d="M81.871 71.894c-.437 0-.855-.247-1.055-.668l-8.105-17.191a1.163 1.163 0 0 1 .556-1.55 1.161 1.161 0 0 1 1.55.556l8.107 17.192a1.167 1.167 0 0 1-1.053 1.661" mask="url(#x)"/>
            </g>
            <g>
                <mask id="z" fill="#fff">
                    <use xlink:href="#y"/>
                </mask>
                <path fill="#161112" d="M77.887 96.727a1.162 1.162 0 0 1-1.063-1.638c2.307-5.187 4.81-7.77 7.654-7.898 2.914-.144 5.783 2.375 8.73 7.664a1.165 1.165 0 1 1-2.036 1.134c-2.406-4.32-4.697-6.595-6.59-6.47-1.824.08-3.77 2.335-5.631 6.517a1.165 1.165 0 0 1-1.064.69" mask="url(#z)"/>
            </g>
            <g>
                <mask id="B" fill="#fff">
                    <use xlink:href="#A"/>
                </mask>
                <path fill="#F8BFC6" d="M123.254 94.373c0 2.033-3.165 3.68-7.07 3.68-3.903 0-7.07-1.647-7.07-3.68 0-2.032 3.167-3.682 7.07-3.682 3.905 0 7.07 1.65 7.07 3.682" mask="url(#B)"/>
            </g>
            <g>
                <mask id="D" fill="#fff">
                    <use xlink:href="#C"/>
                </mask>
                <path fill="#F8BFC6" d="M60.96 94.373c0 2.033-3.163 3.68-7.066 3.68-3.906 0-7.07-1.647-7.07-3.68 0-2.032 3.164-3.682 7.07-3.682 3.903 0 7.067 1.65 7.067 3.682" mask="url(#D)"/>
            </g>
            <g>
                <mask id="F" fill="#fff">
                    <use xlink:href="#E"/>
                </mask>
                <path fill="#161112" d="M106.675 90.535c-.16 0-.322-.033-.48-.103l-14.72-6.639a1.165 1.165 0 0 1-.345-1.885l13.535-13.558a1.167 1.167 0 0 1 1.648-.002c.455.456.455 1.193 0 1.65L93.97 82.361l13.185 5.946a1.165 1.165 0 0 1-.48 2.227" mask="url(#F)"/>
            </g>
            <g>
                <mask id="H" fill="#fff">
                    <use xlink:href="#G"/>
                </mask>
                <path fill="#161112" d="M91.953 83.897a1.164 1.164 0 0 1-.247-2.303l17.332-3.774a1.168 1.168 0 0 1 1.386.89 1.166 1.166 0 0 1-.89 1.386l-17.332 3.773-.249.028z" mask="url(#H)"/>
            </g>
            <g>
                <mask id="J" fill="#fff">
                    <use xlink:href="#I"/>
                </mask>
                <path fill="#DB4D28" d="M96.616 100.775H73.461s-.485 9.306 1.608 17.18c1.535 5.771 4.45 10.771 9.97 10.771 5.518 0 8.435-5 9.97-10.77 2.092-7.875 1.607-17.18 1.607-17.18" mask="url(#J)"/>
            </g>
            <g>
                <mask id="L" fill="#fff">
                    <use xlink:href="#K"/>
                </mask>
                <path fill="#F38A93" d="M85.038 128.727c5.52 0 8.436-5.002 9.971-10.771-3.059-3.204-7.149-4.017-9.97-4.017-2.82 0-7.272 1.02-9.97 4.017 1.535 5.769 4.45 10.77 9.97 10.77" mask="url(#L)"/>
            </g>
            <mask id="N" fill="#fff">
                <use xlink:href="#M"/>
            </mask>
            <path fill="#FEFEFE" d="M73.552 104.948h22.972v-4.173H73.552z" mask="url(#N)"/>
            <path fill="#161112" d="M74.59 101.94c-.075 4.004.065 17.808 5.342 23.367 1.44 1.518 3.11 2.255 5.106 2.255 1.997 0 3.668-.737 5.109-2.257 5.28-5.565 5.418-19.363 5.34-23.365H74.59zm10.448 27.951c-2.633 0-4.92-1.003-6.797-2.982-6.86-7.23-5.983-25.424-5.943-26.196a1.165 1.165 0 0 1 1.164-1.103h23.154c.62 0 1.13.485 1.164 1.103.04.772.915 18.965-5.944 26.196-1.877 1.98-4.165 2.982-6.798 2.982zM70.945 70.077s-3.3 2.826-3.44 9.298c-.073 3.302-.009 8.651 2.711 9.952 2.676 1.277 4.542-.442 5.295-2.156.752-1.715 2.195-7.732-.458-13.5-1.603-3.486-4.108-3.594-4.108-3.594" mask="url(#N)"/>
            <path fill="#161112" d="M71.33 71.352c-.797.918-2.56 3.46-2.66 8.049-.043 1.932-.17 7.814 2.05 8.876.745.355 1.427.423 2.027.199.687-.256 1.322-.92 1.697-1.773.675-1.536 2.04-7.133-.449-12.545-.884-1.924-2.037-2.582-2.666-2.806m.692 19.582c-.754 0-1.532-.186-2.306-.555-3.153-1.508-3.475-6.422-3.375-11.03.082-3.757 1.168-6.393 2.166-8.037a4.986 4.986 0 0 0-2.223 1.054c-2.298 1.916-2.559 5.485-2.562 5.52-.042.644-.606 1.14-1.239 1.086a1.164 1.164 0 0 1-1.085-1.24c.012-.186.338-4.608 3.395-7.155 1.664-1.388 3.777-1.95 6.284-1.658h.003c.063 0 3.158.19 5.033 4.265 2.86 6.22 1.306 12.544.465 14.455-.632 1.442-1.732 2.542-3.019 3.02a4.392 4.392 0 0 1-1.537.275" mask="url(#N)"/>
        </g>
    </g>
</svg>
