<svg xmlns="http://www.w3.org/2000/svg" xmlns:xlink="http://www.w3.org/1999/xlink" width="171" height="172" viewBox="0 0 171 172">
    <defs>
        <path id="a" d="M0 .59h170.078v170.08H0z"/>
        <path id="c" d="M0 85.63c0 46.966 38.074 85.039 85.039 85.039 46.967 0 85.039-38.073 85.039-85.039S132.006.592 85.039.592C38.074.592 0 38.664 0 85.63"/>
        <path id="e" d="M0 85.63c0 46.966 38.074 85.039 85.039 85.039 46.967 0 85.039-38.073 85.039-85.039S132.006.592 85.039.592C38.074.592 0 38.664 0 85.63"/>
        <path id="g" d="M0 85.63c0 46.966 38.074 85.039 85.039 85.039 46.967 0 85.039-38.073 85.039-85.039S132.006.592 85.039.592C38.074.592 0 38.664 0 85.63"/>
        <path id="i" d="M0 85.63c0 46.966 38.074 85.039 85.039 85.039 46.967 0 85.039-38.073 85.039-85.039S132.006.592 85.039.592C38.074.592 0 38.664 0 85.63z"/>
        <path id="k" d="M0 85.63c0 46.966 38.074 85.039 85.039 85.039 46.967 0 85.039-38.073 85.039-85.039S132.006.592 85.039.592C38.074.592 0 38.664 0 85.63z"/>
        <path id="m" d="M0 85.63c0 46.966 38.074 85.039 85.039 85.039 46.967 0 85.039-38.073 85.039-85.039S132.006.592 85.039.592C38.074.592 0 38.664 0 85.63"/>
        <path id="o" d="M0 85.63c0 46.966 38.074 85.039 85.039 85.039 46.967 0 85.039-38.073 85.039-85.039S132.006.592 85.039.592C38.074.592 0 38.664 0 85.63"/>
        <path id="q" d="M0 85.63c0 46.966 38.074 85.039 85.039 85.039 46.967 0 85.039-38.073 85.039-85.039S132.006.592 85.039.592C38.074.592 0 38.664 0 85.63"/>
        <path id="s" d="M0 85.63c0 46.966 38.074 85.039 85.039 85.039 46.967 0 85.039-38.073 85.039-85.039S132.006.592 85.039.592C38.074.592 0 38.664 0 85.63"/>
        <path id="u" d="M0 85.63c0 46.966 38.074 85.039 85.039 85.039 46.967 0 85.039-38.073 85.039-85.039S132.006.592 85.039.592C38.074.592 0 38.664 0 85.63"/>
        <path id="w" d="M0 85.63c0 46.966 38.074 85.039 85.039 85.039 46.967 0 85.039-38.073 85.039-85.039S132.006.592 85.039.592C38.074.592 0 38.664 0 85.63"/>
        <path id="y" d="M0 85.63c0 46.966 38.074 85.039 85.039 85.039 46.967 0 85.039-38.073 85.039-85.039S132.006.592 85.039.592C38.074.592 0 38.664 0 85.63"/>
        <path id="A" d="M0 85.63c0 46.966 38.074 85.039 85.039 85.039 46.967 0 85.039-38.073 85.039-85.039S132.006.592 85.039.592C38.074.592 0 38.664 0 85.63"/>
        <path id="C" d="M0 85.63c0 46.966 38.074 85.039 85.039 85.039 46.967 0 85.039-38.073 85.039-85.039S132.006.592 85.039.592C38.074.592 0 38.664 0 85.63"/>
        <path id="E" d="M0 85.63c0 46.966 38.074 85.039 85.039 85.039 46.967 0 85.039-38.073 85.039-85.039S132.006.592 85.039.592C38.074.592 0 38.664 0 85.63"/>
        <path id="G" d="M0 85.63c0 46.966 38.074 85.039 85.039 85.039 46.967 0 85.039-38.073 85.039-85.039S132.006.592 85.039.592C38.074.592 0 38.664 0 85.63"/>
        <path id="I" d="M0 85.63c0 46.966 38.074 85.039 85.039 85.039 46.967 0 85.039-38.073 85.039-85.039S132.006.592 85.039.592C38.074.592 0 38.664 0 85.63"/>
        <path id="K" d="M0 85.63c0 46.966 38.074 85.039 85.039 85.039 46.967 0 85.039-38.073 85.039-85.039S132.006.592 85.039.592C38.074.592 0 38.664 0 85.63"/>
        <path id="M" d="M0 85.63c0 46.966 38.074 85.039 85.039 85.039 46.967 0 85.039-38.073 85.039-85.039S132.006.592 85.039.592C38.074.592 0 38.664 0 85.63"/>
        <path id="O" d="M0 85.63c0 46.966 38.074 85.039 85.039 85.039 46.967 0 85.039-38.073 85.039-85.039S132.006.592 85.039.592C38.074.592 0 38.664 0 85.63"/>
        <path id="Q" d="M0 85.63c0 46.966 38.074 85.039 85.039 85.039 46.967 0 85.039-38.073 85.039-85.039S132.006.592 85.039.592C38.074.592 0 38.664 0 85.63"/>
        <path id="S" d="M0 85.63c0 46.966 38.074 85.039 85.039 85.039 46.967 0 85.039-38.073 85.039-85.039S132.006.592 85.039.592C38.074.592 0 38.664 0 85.63"/>
        <path id="U" d="M0 85.63c0 46.966 38.074 85.039 85.039 85.039 46.967 0 85.039-38.073 85.039-85.039S132.006.592 85.039.592C38.074.592 0 38.664 0 85.63"/>
    </defs>
    <g fill="none" fill-rule="evenodd">
        <g transform="translate(0 -.59)">
            <mask id="b" fill="#fff">
                <use xlink:href="#a"/>
            </mask>
            <path fill="#5ACAF4" d="M85.04.59C38.072.59 0 38.664 0 85.63c0 46.966 38.073 85.04 85.04 85.04 46.965 0 85.038-38.074 85.038-85.04 0-46.966-38.073-85.04-85.039-85.04" mask="url(#b)"/>
        </g>
        <g transform="translate(0 -.59)">
            <mask id="d" fill="#fff">
                <use xlink:href="#c"/>
            </mask>
            <path fill="#161112" d="M64.066 173.96c0 7.046-.873 15.897-10.608 15.77-14.067-.187-14.937-16.378-11.314-30.549 3.621-14.172 9.886-22.47 18.777-29.739h3.145" mask="url(#d)"/>
        </g>
        <g transform="translate(0 -.59)">
            <mask id="f" fill="#fff">
                <use xlink:href="#e"/>
            </mask>
            <path fill="#161112" d="M106.01 173.96c0 7.046.874 15.897 10.61 15.77 14.067-.187 14.937-16.378 11.313-30.549-3.62-14.172-9.886-22.47-18.777-29.739h-3.145" mask="url(#f)"/>
        </g>
        <g transform="translate(0 -.59)">
            <mask id="h" fill="#fff">
                <use xlink:href="#g"/>
            </mask>
            <path fill="#161112" d="M53.664 190.895l-.22-.001c-4.589-.061-8.159-1.715-10.612-4.917-5.914-7.722-3.24-21.514-1.816-27.085 3.324-13.01 9.056-22.085 19.17-30.351a1.162 1.162 0 0 1 1.637.166 1.163 1.163 0 0 1-.165 1.638c-9.825 8.03-15.152 16.469-18.386 29.124-2.79 10.916-2.263 20.296 1.41 25.09 1.997 2.607 4.955 3.955 8.793 4.005 2.746.03 4.752-.66 6.238-2.125 2.81-2.773 3.188-7.865 3.188-12.48a1.166 1.166 0 0 1 2.33 0c0 5.096-.462 10.762-3.882 14.138-1.882 1.858-4.467 2.798-7.685 2.798" mask="url(#h)"/>
        </g>
        <g transform="translate(0 -.59)">
            <mask id="j" fill="#fff">
                <use xlink:href="#i"/>
            </mask>
            <path fill="#161112" d="M116.413 190.895c-3.218 0-5.802-.94-7.685-2.798-3.42-3.376-3.88-9.042-3.88-14.138a1.164 1.164 0 1 1 2.328 0c0 4.615.38 9.707 3.188 12.48 1.487 1.466 3.513 2.162 6.24 2.125 3.837-.05 6.796-1.398 8.792-4.004 3.673-4.795 4.2-14.175 1.41-25.091-3.234-12.654-8.56-21.093-18.387-29.124a1.163 1.163 0 0 1-.165-1.638 1.161 1.161 0 0 1 1.638-.166c10.114 8.266 15.846 17.343 19.168 30.35 1.425 5.572 4.1 19.363-1.814 27.085-2.453 3.202-6.023 4.857-10.61 4.918h-.223z" mask="url(#j)"/>
        </g>
        <g transform="translate(0 -.59)">
            <mask id="l" fill="#fff">
                <use xlink:href="#k"/>
            </mask>
            <path fill="#161112" d="M114.95 146.82c2.47 19.918 2.47 51.249-.374 71.468 4.015 4.103 6.497 16.321-10.39 16.543-16.886.22-19.147-8.323-19.147-13.236 0 4.912-2.26 13.457-19.148 13.237-16.885-.222-14.403-12.44-10.389-16.544-2.842-20.22-2.842-51.55-.373-71.468l8.477-12.053h42.862l8.481 12.054z" mask="url(#l)"/>
        </g>
        <g transform="translate(0 -.59)">
            <mask id="n" fill="#fff">
                <use xlink:href="#m"/>
            </mask>
            <path fill="#FEFEFE" d="M116.719 186.272c.187-13.45-.358-27.16-1.587-37.896-4.371-.938-8.383 1.712-11.29 3.22-3.957 2.054-12.347 6.93-18.804 6.93-6.456 0-14.844-4.876-18.802-6.93-2.907-1.508-6.918-4.158-11.29-3.22-1.228 10.738-1.774 24.448-1.586 37.896 6.89 4.627 19.354 10.072 31.678 10.072 12.327 0 24.79-5.445 31.68-10.072" mask="url(#n)"/>
        </g>
        <g transform="translate(0 -.59)">
            <mask id="p" fill="#fff">
                <use xlink:href="#o"/>
            </mask>
            <path fill="#161112" d="M85.038 159.692c-6.046 0-13.475-3.95-17.913-6.31-.522-.276-.999-.53-1.426-.752-.37-.192-.76-.403-1.165-.623-2.648-1.435-5.945-3.224-9.345-2.493a1.164 1.164 0 0 1-.488-2.277c4.24-.91 8.115 1.189 10.943 2.723.392.212.77.417 1.127.603.433.224.918.483 1.45.764 4.245 2.257 11.352 6.035 16.817 6.035 5.468 0 12.576-3.778 16.823-6.037.53-.28 1.013-.538 1.445-.762.36-.187.736-.392 1.128-.604 2.828-1.533 6.704-3.628 10.942-2.722.63.135 1.03.754.894 1.383a1.167 1.167 0 0 1-1.382.894c-3.402-.731-6.696 1.057-9.343 2.492-.405.22-.795.432-1.167.624-.426.22-.903.475-1.423.75-4.439 2.362-11.868 6.312-17.917 6.312" mask="url(#p)"/>
        </g>
        <g transform="translate(0 -.59)">
            <mask id="r" fill="#fff">
                <use xlink:href="#q"/>
            </mask>
            <path fill="#161112" d="M66.524 236c-.215 0-.43-.002-.647-.005-9.178-.12-12.564-3.677-13.788-6.639-1.652-4-.149-8.745 2.183-11.452-2.689-19.689-2.828-50.825-.299-71.227a1.157 1.157 0 0 1 1.3-1.012c.638.08 1.09.66 1.011 1.3-2.53 20.417-2.368 51.675.371 71.16.051.356-.069.718-.32.976-2.016 2.061-3.389 6.228-2.093 9.366 1.372 3.32 5.405 5.117 11.665 5.2 6.966.087 12.011-1.336 14.953-4.238 2-1.975 3.015-4.61 3.015-7.833a1.164 1.164 0 0 1 2.33 0c0 3.224 1.013 5.86 3.013 7.834 2.941 2.902 7.943 4.317 14.952 4.236 6.26-.082 10.294-1.88 11.666-5.199 1.296-3.138-.078-7.305-2.093-9.366a1.169 1.169 0 0 1-.32-.977c2.74-19.484 2.901-50.742.371-71.16a1.163 1.163 0 0 1 1.011-1.299 1.156 1.156 0 0 1 1.3 1.012c2.53 20.401 2.391 51.538-.3 71.227 2.333 2.707 3.835 7.452 2.184 11.451-1.224 2.963-4.61 6.52-13.788 6.64-7.63.105-13.218-1.55-16.618-4.908a11.94 11.94 0 0 1-2.543-3.684 12.003 12.003 0 0 1-2.543 3.684C79.193 234.348 73.821 236 66.524 236" mask="url(#r)"/>
        </g>
        <g transform="translate(0 -.59)">
            <mask id="t" fill="#fff">
                <use xlink:href="#s"/>
            </mask>
            <path fill="#161112" d="M72.203 50.908c-3.698-9.929-13.488-14.375-22.25-10.405-8.76 3.97-11.003 15.705-6.976 25.314" mask="url(#t)"/>
        </g>
        <g transform="translate(0 -.59)">
            <mask id="v" fill="#fff">
                <use xlink:href="#u"/>
            </mask>
            <path fill="#161112" d="M42.978 66.982c-.456 0-.888-.27-1.075-.715-3.962-9.454-2.195-22.398 7.57-26.825 4.336-1.963 9.087-2.062 13.379-.274 4.747 1.975 8.456 6 10.443 11.335a1.165 1.165 0 0 1-2.183.813c-1.758-4.723-5.01-8.273-9.154-9.998-3.69-1.535-7.782-1.448-11.523.247-8.492 3.848-9.925 15.352-6.384 23.802a1.164 1.164 0 0 1-1.073 1.615" mask="url(#v)"/>
        </g>
        <g transform="translate(0 -.59)">
            <mask id="x" fill="#fff">
                <use xlink:href="#w"/>
            </mask>
            <path fill="#161112" d="M97.876 50.908c3.698-9.929 13.488-14.375 22.249-10.405 8.762 3.97 11.004 15.705 6.976 25.314" mask="url(#x)"/>
        </g>
        <g transform="translate(0 -.59)">
            <mask id="z" fill="#fff">
                <use xlink:href="#y"/>
            </mask>
            <path fill="#161112" d="M127.1 66.982a1.164 1.164 0 0 1-1.073-1.615c3.543-8.451 2.11-19.954-6.383-23.802-3.74-1.694-7.831-1.782-11.521-.247-4.145 1.725-7.396 5.275-9.155 9.998a1.165 1.165 0 0 1-2.182-.813c1.986-5.334 5.694-9.36 10.442-11.335 4.292-1.788 9.043-1.69 13.378.274 9.765 4.426 11.532 17.37 7.569 26.825a1.165 1.165 0 0 1-1.075.715" mask="url(#z)"/>
        </g>
        <g transform="translate(0 -.59)">
            <mask id="B" fill="#fff">
                <use xlink:href="#A"/>
            </mask>
            <path fill="#FEFEFE" d="M142.324 95.954c0 26.703-25.647 48.351-57.286 48.351-31.637 0-57.284-21.648-57.284-48.35 0-26.703 25.647-48.352 57.284-48.352 31.64 0 57.286 21.65 57.286 48.351" mask="url(#B)"/>
        </g>
        <g transform="translate(0 -.59)">
            <mask id="D" fill="#fff">
                <use xlink:href="#C"/>
            </mask>
            <path fill="#161112" d="M85.038 48.769c-30.944 0-56.119 21.167-56.119 47.186 0 26.018 25.175 47.186 56.12 47.186 30.944 0 56.12-21.168 56.12-47.186 0-26.02-25.176-47.186-56.12-47.186m0 96.7c-32.23 0-58.45-22.212-58.45-49.514 0-27.303 26.22-49.515 58.45-49.515 32.23 0 58.45 22.212 58.45 49.515 0 27.302-26.22 49.515-58.45 49.515" mask="url(#D)"/>
        </g>
        <g transform="translate(0 -.59)">
            <mask id="F" fill="#fff">
                <use xlink:href="#E"/>
            </mask>
            <path fill="#161112" d="M122.256 90.635c2.186 10.517-3.111 20.485-12.898 22.374-9.241 1.784-17.917-4.45-20.518-14.874-2.602-10.423 3.722-21.368 12.6-23.214 8.877-1.847 18.628 5.195 20.816 15.714" mask="url(#F)"/>
        </g>
        <g transform="translate(0 -.59)">
            <mask id="H" fill="#fff">
                <use xlink:href="#G"/>
            </mask>
            <path fill="#161112" d="M47.822 90.635c-2.186 10.517 3.11 20.485 12.897 22.374 9.242 1.784 17.917-4.45 20.518-14.874 2.603-10.423-3.72-21.368-12.599-23.214-8.877-1.847-18.628 5.195-20.816 15.714" mask="url(#H)"/>
        </g>
        <g transform="translate(0 -.59)">
            <mask id="J" fill="#fff">
                <use xlink:href="#I"/>
            </mask>
            <path fill="#FEFEFE" d="M59.365 101.47a1.166 1.166 0 0 1-.834-1.978c3.36-3.446 11.712-5.972 17.855-4.195.617.179.973.825.793 1.443-.177.618-.82.977-1.442.794-5.288-1.528-12.696.67-15.537 3.584a1.157 1.157 0 0 1-.835.353" mask="url(#J)"/>
        </g>
        <g transform="translate(0 -.59)">
            <mask id="L" fill="#fff">
                <use xlink:href="#K"/>
            </mask>
            <path fill="#FEFEFE" d="M110.713 101.47c-.304 0-.606-.116-.835-.352-2.84-2.914-10.248-5.115-15.536-3.584a1.165 1.165 0 0 1-.649-2.237c6.142-1.78 14.495.748 17.854 4.196a1.166 1.166 0 0 1-.834 1.978" mask="url(#L)"/>
        </g>
        <g transform="translate(0 -.59)">
            <mask id="N" fill="#fff">
                <use xlink:href="#M"/>
            </mask>
            <path fill="#FEFEFE" d="M97.43 111.32c0 7.282-5.547 13.186-12.392 13.186-6.843 0-12.392-5.904-12.392-13.186s5.549-13.184 12.392-13.184c6.845 0 12.392 5.902 12.392 13.184" mask="url(#N)"/>
        </g>
        <g transform="translate(0 -.59)">
            <mask id="P" fill="#fff">
                <use xlink:href="#O"/>
            </mask>
            <path fill="#161112" d="M85.038 99.3c-6.19 0-11.229 5.392-11.229 12.02 0 6.627 5.038 12.02 11.23 12.02 6.19 0 11.227-5.393 11.227-12.02 0-6.628-5.038-12.02-11.228-12.02m0 26.369c-7.476 0-13.558-6.437-13.558-14.349 0-7.913 6.082-14.349 13.558-14.349s13.557 6.436 13.557 14.349c0 7.912-6.08 14.349-13.557 14.349" mask="url(#P)"/>
        </g>
        <g transform="translate(0 -.59)">
            <mask id="R" fill="#fff">
                <use xlink:href="#Q"/>
            </mask>
            <path fill="#161112" d="M85.038 108.795c-2.267 0-4.995-4.1-4.618-5.74.378-1.64 2.818-1.612 4.618-1.612 1.801 0 4.241-.029 4.62 1.612.376 1.64-2.353 5.74-4.62 5.74" mask="url(#R)"/>
        </g>
        <g transform="translate(0 -.59)">
            <mask id="T" fill="#fff">
                <use xlink:href="#S"/>
            </mask>
            <path fill="#161112" d="M85.037 116.846a1.164 1.164 0 0 1-1.165-1.165l.004-9.911c0-.643.521-1.164 1.164-1.164h.001c.643 0 1.164.522 1.164 1.166l-.004 9.91c0 .643-.52 1.164-1.164 1.164" mask="url(#T)"/>
        </g>
        <g transform="translate(0 -.59)">
            <mask id="V" fill="#fff">
                <use xlink:href="#U"/>
            </mask>
            <path fill="#161112" d="M85.038 116.846c-3.166 0-5.775-1.561-6.979-4.175a1.165 1.165 0 1 1 2.116-.973c.812 1.764 2.632 2.819 4.863 2.819 2.233 0 4.052-1.055 4.865-2.82a1.164 1.164 0 1 1 2.115.973c-1.204 2.615-3.813 4.176-6.98 4.176" mask="url(#V)"/>
        </g>
    </g>
</svg>
