<svg xmlns="http://www.w3.org/2000/svg" xmlns:xlink="http://www.w3.org/1999/xlink" width="171" height="172" viewBox="0 0 171 172">
    <defs>
        <path id="a" d="M0 .921h170.078V171H0z"/>
    </defs>
    <g fill="none" fill-rule="evenodd">
        <g transform="translate(0 .079)">
            <mask id="b" fill="#fff">
                <use xlink:href="#a"/>
            </mask>
            <path fill="#5ACAF4" d="M85.039.92C38.073.92-.001 38.995-.001 85.96 0 132.928 38.074 171 85.04 171c46.966 0 85.039-38.073 85.039-85.04 0-46.966-38.073-85.04-85.04-85.04" mask="url(#b)"/>
        </g>
        <path fill="#FEFEFE" d="M85.039 131.53c-14.12 0-25.566 2.642-25.566 5.9 0 3.258 11.446 5.9 25.566 5.9s25.566-2.642 25.566-5.9c0-3.258-11.446-5.9-25.566-5.9"/>
        <path fill="#5199B0" d="M85.039 131.53c-14.12 0-25.566 2.642-25.566 5.9 0 3.258 11.446 5.9 25.566 5.9s25.566-2.642 25.566-5.9c0-3.258-11.446-5.9-25.566-5.9"/>
        <path fill="#F26F21" d="M75.587 121.2l-.25 8.037s-1.735 1.929-.785 4.032c.953 2.11 4.504 2.782 7.48 1.87 3.063-.935 5.48-3.564 5.412-13.698"/>
        <path fill="#DB4D28" d="M79.326 136.85c-2.565 0-5.021-.949-5.967-3.043-.903-1.999-.105-3.954.683-5.045l.237-7.603c.023-.723.663-1.28 1.349-1.268a1.31 1.31 0 0 1 1.267 1.35l-.251 8.037a1.3 1.3 0 0 1-.335.835c-.041.047-1.144 1.335-.565 2.617.616 1.363 3.432 1.914 5.906 1.158 2.369-.725 4.551-2.732 4.486-12.439a1.309 1.309 0 0 1 1.299-1.318h.009a1.31 1.31 0 0 1 1.309 1.301c.062 9.108-1.833 13.582-6.337 14.96a10.65 10.65 0 0 1-3.09.458"/>
        <path fill="#F26F21" d="M85.43 121.812l-.25 8.037s-1.734 1.93-.784 4.031c.953 2.11 4.503 2.783 7.48 1.872 3.063-.936 5.48-3.565 5.41-13.699"/>
        <path fill="#DB4D28" d="M89.169 137.463c-2.565 0-5.021-.95-5.966-3.042-.903-2-.105-3.955.683-5.046l.236-7.603a1.309 1.309 0 1 1 2.616.081l-.25 8.038a1.3 1.3 0 0 1-.335.834c-.041.047-1.144 1.336-.565 2.618.616 1.363 3.43 1.914 5.906 1.159 2.368-.725 4.55-2.733 4.485-12.44a1.308 1.308 0 0 1 1.3-1.317c.725-.061 1.313.576 1.318 1.3.06 9.108-1.834 13.58-6.337 14.96-.986.3-2.047.458-3.091.458"/>
        <path fill="#FFD900" d="M111.354 108.589c-.13 9.805-10.948 16.28-24.454 16.28s-23.25-4.988-24.245-16.28c-1.345-15.26 9.462-24.411 22.967-24.411 13.505 0 25.917 10.399 25.732 24.41"/>
        <path fill="#161112" d="M85.622 85.487c-6.814 0-12.76 2.391-16.734 6.732-3.796 4.146-5.5 9.766-4.93 16.254C65.117 121.6 78.829 123.56 86.9 123.56c13.297 0 23.03-6.303 23.145-14.989.076-5.804-2.196-11.346-6.401-15.605-4.69-4.753-11.26-7.479-18.022-7.479m1.278 40.691c-15.482 0-24.555-6.206-25.55-17.475-.636-7.239 1.302-13.55 5.607-18.25 4.478-4.89 11.107-7.584 18.665-7.584 7.458 0 14.706 3.01 19.886 8.26 4.7 4.76 7.24 10.967 7.155 17.476-.134 10.183-10.97 17.573-25.763 17.573"/>
        <path fill="#161112" d="M104.62 115.564c-2.783 0-5.175-.67-7.146-2.007-4.267-2.892-4.878-7.81-4.902-8.02a1.309 1.309 0 0 1 2.6-.304c.006.04.522 3.974 3.795 6.174 2.624 1.765 6.34 2.013 11.039.74a1.308 1.308 0 1 1 .683 2.526c-2.191.594-4.217.891-6.069.891"/>
        <path fill="#FFD900" d="M109.401 73.095c0 13.995-9.726 26.454-25.34 26.454-15.614 0-25.339-12.46-25.339-26.454s10.625-25.34 25.34-25.34c14.713 0 25.34 11.346 25.34 25.34"/>
        <path fill="#161112" d="M66.717 94.1c-.327 0-.655-.122-.91-.368-5.333-5.148-8.394-12.67-8.394-20.638 0-15.192 11.456-26.648 26.649-26.648 15.192 0 26.648 11.456 26.648 26.648 0 6.938-2.29 13.522-6.45 18.54a1.309 1.309 0 1 1-2.014-1.67c3.77-4.55 5.847-10.54 5.847-16.87 0-13.699-10.331-24.03-24.031-24.03S60.03 59.395 60.03 73.094c0 7.261 2.768 14.098 7.594 18.755a1.307 1.307 0 0 1-.908 2.251"/>
        <path fill="#F26F21" d="M79.252 78.43c-2.526-.22-4.68-1.173-4.568-3.568.104-2.245 2.158-3.981 6.115-4.18 4.297-.22 11.69.222 11.548 7.78-.134 7.124-6.938 7.933-11.193 7.504-4.256-.43-5.66-2.05-5.75-3.917-.087-1.833 1.422-3.1 3.536-3.612"/>
        <path fill="#DB4D28" d="M79.148 79.734c-.703.185-2.506.801-2.436 2.251.072 1.478 1.611 2.38 4.574 2.678 1.613.164 5.608.315 7.947-1.76 1.178-1.044 1.768-2.505 1.804-4.465.037-1.938-.469-3.388-1.545-4.43-1.602-1.55-4.503-2.23-8.626-2.02-2.975.15-4.796 1.247-4.875 2.934-.022.471-.088 1.903 3.374 2.203.72.063 1.253.697 1.19 1.418-.062.716-.692 1.23-1.407 1.191m3.891 7.637c-.757 0-1.445-.045-2.016-.103-5.545-.56-6.826-3.113-6.926-5.157-.062-1.313.453-2.485 1.431-3.386-1.99-1.166-2.195-2.992-2.15-3.924.112-2.45 2.105-5.163 7.355-5.427 4.941-.253 8.406.648 10.58 2.754 1.604 1.553 2.392 3.693 2.342 6.36-.05 2.693-.953 4.838-2.684 6.374-2.296 2.036-5.477 2.51-7.932 2.51"/>
        <path fill="#DB4D28" d="M78.352 79.76a1.309 1.309 0 0 1-.03-2.618l7.661-.186c.671-.034 1.322.554 1.341 1.278a1.311 1.311 0 0 1-1.278 1.34l-7.662.186h-.032z"/>
        <path fill="#161112" d="M81.401 65.151a3.775 3.775 0 1 1-7.552 0 3.776 3.776 0 1 1 7.552 0M91.864 65.151a3.775 3.775 0 1 1-7.55 0 3.776 3.776 0 1 1 7.55 0"/>
    </g>
</svg>
