<svg xmlns="http://www.w3.org/2000/svg" width="96" height="96" viewBox="0 0 96 96">
    <g fill="none" fill-rule="evenodd">
        <path stroke="#333" stroke-linecap="round" stroke-linejoin="round" stroke-width="3" d="M62.12 62.8H51.653V34.594h16.814c.762 0 1.494.298 2.03.828l8.874 8.77c.527.522.824 1.227.824 1.96v13.862c0 1.54-1.278 2.788-2.854 2.788h-3.593M33.58 62.8c0 3.117-2.587 5.642-5.777 5.642s-5.776-2.525-5.776-5.641 2.586-5.642 5.776-5.642 5.776 2.526 5.776 5.642z"/>
        <path stroke="#333" stroke-linecap="round" stroke-linejoin="round" stroke-width="3" d="M73.673 62.8c0 3.117-2.586 5.642-5.776 5.642s-5.777-2.525-5.777-5.641 2.587-5.642 5.777-5.642 5.776 2.526 5.776 5.642zM15.5 56.266V33.064c0-3.08 2.556-5.576 5.708-5.576h24.737c3.152 0 5.708 2.497 5.708 5.576V62.8H33.579M22.027 62.8H15.5v-6.534"/>
        <path fill="#FFF" d="M0 0h96v96H0z" opacity=".2"/>
    </g>
</svg>
