<svg xmlns="http://www.w3.org/2000/svg" width="48" height="48" viewBox="0 0 48 48">
    <g fill="none" fill-rule="evenodd">
        <path stroke="#333" stroke-linecap="round" stroke-linejoin="round" stroke-width="3" d="M13.985 17.19L19.05 34.03l5.065-16.839M24.116 17.19L29.18 34.03l5.066-16.839M10.448 22.233h27.336"/>
        <path fill="#333" d="M0 24c0 13.255 10.746 24 24 24 13.255 0 24-10.745 24-24S37.255 0 24 0C10.746 0 0 10.745 0 24zM24 2.4c11.91 0 21.6 9.689 21.6 21.6 0 11.911-9.69 21.6-21.6 21.6-11.91 0-21.6-9.689-21.6-21.6C2.4 12.089 12.09 2.4 24 2.4"/>
    </g>
</svg>
