<svg xmlns="http://www.w3.org/2000/svg" width="96" height="96" viewBox="0 0 96 96">
    <g fill="none" fill-rule="evenodd">
        <path stroke="#333" stroke-linecap="round" stroke-linejoin="round" stroke-width="3" d="M31.254 65.62c-5.418-.22-9.78-4.642-9.78-10.018v-24.11c0-5.514 4.59-10.027 10.203-10.027h32.695c5.612 0 10.203 4.513 10.203 10.028v24.109c0 5.515-4.591 10.027-10.203 10.027H43.494M31.336 65.629v8.82l12.241-8.82"/>
        <path fill="#333" d="M39.573 43.548c0 1.285-1.061 2.327-2.369 2.327-1.308 0-2.368-1.042-2.368-2.327 0-1.286 1.06-2.328 2.368-2.328 1.308 0 2.369 1.042 2.369 2.328M50.393 43.548c0 1.285-1.061 2.327-2.369 2.327-1.308 0-2.368-1.042-2.368-2.327 0-1.286 1.06-2.328 2.368-2.328 1.308 0 2.369 1.042 2.369 2.328M61.212 43.548c0 1.285-1.06 2.327-2.368 2.327-1.308 0-2.368-1.042-2.368-2.327 0-1.286 1.06-2.328 2.368-2.328 1.308 0 2.368 1.042 2.368 2.328"/>
        <path fill="#FFF" d="M0 0h96v96H0z" opacity=".2"/>
    </g>
</svg>
