<svg xmlns="http://www.w3.org/2000/svg" xmlns:xlink="http://www.w3.org/1999/xlink" width="171" height="172" viewBox="0 0 171 172">
    <defs>
        <path id="a" d="M85 170c46.945 0 85-38.056 85-85S131.945 0 85 0C38.057 0 0 38.056 0 85s38.057 85 85 85z"/>
    </defs>
    <g fill="none" fill-rule="evenodd">
        <mask id="b" fill="#fff">
            <use xlink:href="#a"/>
        </mask>
        <use fill="#231F20" xlink:href="#a"/>
        <g mask="url(#b)">
            <path fill="#231F20" d="M21 117h128V56H21z"/>
            <path fill="#FEFEFE" d="M63.09 76.552h8.644v27.667h8.081V76.552h8.644V68.78H63.09z"/>
            <g fill="#FEFEFE">
                <path d="M50.975 95.722c0 .484-.377.878-.843.878h-8.018v-6.725h6.968c1.045 0 1.893.885 1.893 1.973v3.874zm-8.861-19.17h7.679c.46 0 .832.388.832.866v3.065c0 1.085-.852 1.972-1.892 1.972h-6.62v-5.903zm14.655 9.426c.96-.826 1.796-2.269 1.796-4.63v-5.286c0-4.015-3.134-7.281-6.988-7.281H34.26v35.438h17.666c3.853 0 6.989-3.267 6.989-7.282v-5.955c0-2.357-.8-4.135-2.147-5.004zM133.121 68.781h-11.71v7.77h3.772v19.897h-3.772v7.771h15.48v-7.77h-3.77zM100.57 95.358c0-2.503 2.671-3.456 6.95-5.612 4.539-2.29 8.69-3.631 8.69-8.807v-4.877c0-4.02-3.128-7.281-6.989-7.281h-9.555c-3.86 0-6.989 3.259-6.989 7.28v4.206h7.852v-2.848c0-.479.373-.867.832-.867h6.166c.46 0 .831.388.831.867v2.608c0 2.03-2.754 2.756-7.158 4.733-6.58 2.955-8.28 5.006-8.897 8.45a8.935 8.935 0 0 0-.133 1.587v9.422h24.654v-7.77H100.57v-1.091z"/>
            </g>
        </g>
    </g>
</svg>
