<svg xmlns="http://www.w3.org/2000/svg" width="57" height="57" viewBox="0 0 57 57">
    <path fill="#FFF" fill-rule="evenodd" d="M53.63 53.928H36.531l-.007-14.641c-.004-4.58-3.733-8.306-8.313-8.306s-8.309 3.726-8.312 8.307l-.001 14.64H2.8V28.293L28.48 3.097 53.63 27.28v26.648zm-30.932 0V39.289a5.52 5.52 0 0 1 5.513-5.507 5.52 5.52 0 0 1 5.513 5.507l.007 14.639H22.698zm33.104-28.443L29.891.571a2.043 2.043 0 0 0-2.847.013L.612 26.517c-.391.384-.612.91-.612 1.459v26.709c0 1.129.915 2.044 2.044 2.044h52.342a2.044 2.044 0 0 0 2.044-2.044V26.958c0-.555-.227-1.088-.628-1.473z"/>
</svg>
