<svg xmlns="http://www.w3.org/2000/svg" width="44" height="55" viewBox="0 0 44 55">
    <path fill="#FFF" fill-rule="evenodd" d="M2.8 51.833V41.066c.01-10.35 8.432-18.772 18.78-18.785l.034.002.024-.001c10.343.019 18.759 8.438 18.768 18.786l.02 10.765H2.8zm10.473-40.691c0-4.6 3.742-8.341 8.34-8.341 4.6 0 8.343 3.741 8.343 8.341 0 4.591-3.73 8.327-8.318 8.339l-.035-.002-.023.001c-4.584-.018-8.307-3.751-8.307-8.338zm29.933 29.922c-.01-9.746-6.511-17.994-15.4-20.667 2.983-2.001 4.95-5.402 4.95-9.255C32.756 4.998 27.758 0 21.614 0 15.47 0 10.473 4.998 10.473 11.142c0 3.85 1.964 7.25 4.942 9.252C6.52 23.062.009 31.313 0 41.065L0 52.385a2.25 2.25 0 0 0 2.25 2.249h38.728a2.249 2.249 0 0 0 2.249-2.254l-.021-11.316z"/>
</svg>
