<svg xmlns="http://www.w3.org/2000/svg" width="48" height="48" viewBox="0 0 48 48">
    <path fill="#FFF" fill-rule="evenodd" d="M42.779 9.562a16.3 16.3 0 0 1-5.062 1.867A8.094 8.094 0 0 0 31.9 9c-4.403 0-7.972 3.444-7.972 7.693 0 .605.071 1.192.207 1.756-6.625-.323-12.498-3.386-16.43-8.041a7.454 7.454 0 0 0-1.079 3.869c0 2.666 1.407 5.025 3.546 6.406a8.2 8.2 0 0 1-3.61-.966l-.001.098c0 3.728 2.748 6.839 6.394 7.546a8.335 8.335 0 0 1-3.599.132c1.013 3.055 3.958 5.28 7.445 5.34-2.728 2.065-6.164 3.294-9.899 3.294-.644 0-1.278-.034-1.902-.105a23.148 23.148 0 0 0 12.219 3.455c14.661 0 22.68-11.724 22.68-21.891 0-.334-.008-.664-.024-.994a15.924 15.924 0 0 0 3.978-3.985 16.356 16.356 0 0 1-4.578 1.21c1.645-.951 2.909-2.458 3.504-4.255z"/>
</svg>
