<svg xmlns="http://www.w3.org/2000/svg" width="48" height="48" viewBox="0 0 48 48">
    <path fill="#FFF" fill-rule="evenodd" d="M19.125 29.887l-.002-12.191 11.663 6.116-11.661 6.075zm23.89-18.61C41.374 9.549 39.534 9.54 38.69 9.44 32.65 9 23.59 9 23.59 9h-.019s-9.06 0-15.1.44c-.844.1-2.682.109-4.325 1.837-1.294 1.317-1.715 4.307-1.715 4.307S2 19.097 2 22.607v3.29c0 3.513.431 7.025.431 7.025s.421 2.988 1.715 4.304c1.643 1.729 3.799 1.672 4.76 1.856 3.453.333 14.675.434 14.675.434s9.069-.015 15.109-.449c.844-.104 2.684-.112 4.325-1.841 1.294-1.316 1.716-4.304 1.716-4.304s.431-3.512.431-7.025v-3.29c0-3.51-.431-7.023-.431-7.023s-.422-2.99-1.716-4.307z"/>
</svg>
