<?xml version="1.0" encoding="UTF-8"?>
<svg width="171px" height="172px" viewBox="0 0 171 172" version="1.1" xmlns="http://www.w3.org/2000/svg" xmlns:xlink="http://www.w3.org/1999/xlink">
    <!-- Generator: sketchtool 54.1 (76490) - https://sketchapp.com -->
    <title>61F97BAA-B496-4DA1-A189-0A990570981E</title>
    <desc>Created with sketchtool.</desc>
    <defs>
        <path d="M85,170 C131.94546,170 170,131.944461 170,85 C170,38.0555392 131.94546,2.8643754e-14 85,2.8643754e-14 C38.0565388,2.8643754e-14 0,38.0555392 0,85 C0,131.944461 38.0565388,170 85,170 Z" id="path-1"></path>
    </defs>
    <g id="Symbols" stroke="none" stroke-width="1" fill="none" fill-rule="evenodd">
        <g id="Graphic/Character/BT21/Logo">
            <mask id="mask-2" fill="white">
                <use xlink:href="#path-1"></use>
            </mask>
            <use id="Clip-50" fill="#231F20" xlink:href="#path-1"></use>
            <g id="Graphic/Logo/BT21" mask="url(#mask-2)">
                <g transform="translate(21.000000, 56.000000)" id="ic_logo_bt21">
                    <g>
                        <polygon id="Fill-1" fill="#231F20" points="0 61 128 61 128 0 0 0"></polygon>
                        <polygon id="Fill-2" fill="#FEFEFE" points="42.0900901 20.5517341 50.734346 20.5517341 50.734346 48.2190476 58.8152036 48.2190476 58.8152036 20.5517341 67.4594595 20.5517341 67.4594595 12.7809524 42.0900901 12.7809524"></polygon>
                        <g id="Group-9" transform="translate(13.261261, 12.780952)" fill="#FEFEFE">
                            <path d="M16.7138506,26.941089 C16.7138506,27.4246439 16.3364687,27.8189821 15.8711642,27.8189821 L7.85251242,27.8189821 L7.85251242,21.0944159 L14.8212318,21.0944159 C15.865455,21.0944159 16.7138506,21.9794463 16.7138506,23.0672963 L16.7138506,26.941089 Z M7.85251242,7.77078168 L15.5314634,7.77078168 C15.9910586,7.77078168 16.3633022,8.15917207 16.3633022,8.63737402 L16.3633022,11.7016731 C16.3633022,12.7871439 15.5120519,13.6739587 14.4712543,13.6739587 L7.85251242,13.6739587 L7.85251242,7.77078168 Z M22.5081758,17.1968321 C23.4679019,16.3712794 24.3037372,14.9283467 24.3037372,12.5676706 L24.3037372,7.28127894 C24.3037372,3.26592899 21.1693549,0 17.3156063,0 L0,0 L0,35.4380952 L17.6655838,35.4380952 C21.5187615,35.4380952 24.6542856,32.1709767 24.6542856,28.1562215 L24.6542856,22.200704 C24.6542856,19.8441914 23.8549896,18.0658035 22.5081758,17.1968321 L22.5081758,17.1968321 Z" id="Fill-3"></path>
                            <polygon id="Fill-5" points="98.8599007 0 87.1500327 0 87.1500327 7.77078168 90.9213398 7.77078168 90.9213398 27.6673136 87.1500327 27.6673136 87.1500327 35.4380952 102.630631 35.4380952 102.630631 27.6673136 98.8599007 27.6673136"></polygon>
                            <path d="M66.308739,26.5770845 C66.308739,24.0742564 68.9800386,23.1208264 73.257886,20.9647541 C77.7977822,18.6754515 81.9494579,17.3336311 81.9494579,12.158463 L81.9494579,7.28127894 C81.9494579,3.26057598 78.8208574,0 74.9597762,0 L65.4044136,0 C61.5444741,0 58.4158736,3.25879165 58.4158736,7.28068416 L58.4158736,11.4857685 L66.2682042,11.4857685 L66.2682042,8.6379688 C66.2682042,8.15917207 66.6410101,7.77078168 67.1000237,7.77078168 L73.2658788,7.77078168 C73.7248924,7.77078168 74.0971274,8.15917207 74.0971274,8.6379688 L74.0971274,11.2460727 C74.0971274,13.2760519 71.3430454,14.0016817 66.9390264,15.9787256 C60.3586889,18.9335854 58.6579405,20.9849766 58.041355,24.4299339 C57.9471545,24.9521495 57.9089033,25.4838815 57.9089033,26.0162083 L57.9089033,35.4380952 L82.5631889,35.4380952 L82.5631889,27.6679083 L66.308739,27.6679083 L66.308739,26.5770845 Z" id="Fill-7"></path>
                        </g>
                    </g>
                </g>
            </g>
        </g>
    </g>
</svg>