<?xml version="1.0" encoding="UTF-8"?>
<svg width="171px" height="172px" viewBox="0 0 171 172" version="1.1" xmlns="http://www.w3.org/2000/svg" xmlns:xlink="http://www.w3.org/1999/xlink">
    <!-- Generator: sketchtool 54.1 (76490) - https://sketchapp.com -->
    <title>A6E75185-8B53-475C-9DD4-476D6C58DC15</title>
    <desc>Created with sketchtool.</desc>
    <defs>
        <polygon id="path-1" points="0.183820747 0.0602119205 8.73406141 0.0602119205 8.73406141 11.3907285 0.183820747 11.3907285"></polygon>
        <polygon id="path-3" points="0.0528240468 0.0600794702 8.55684492 0.0600794702 8.55684492 11.3907285 0.0528240468 11.3907285"></polygon>
    </defs>
    <g id="Symbols" stroke="none" stroke-width="1" fill="none" fill-rule="evenodd">
        <g id="Graphic/Character/BF/Logo">
            <path d="M85,170 C131.94546,170 170,131.944461 170,85 C170,38.0555392 131.94546,2.8643754e-14 85,2.8643754e-14 C38.0565388,2.8643754e-14 0,38.0555392 0,85 C0,131.944461 38.0565388,170 85,170 Z" id="Clip-50" fill="#231F20"></path>
            <g id="Graphic/Logo/B&amp;F(w)" transform="translate(22.000000, 62.000000)">
                <g id="ic_logo_b&amp;f">
                    <path d="M115.99915,31.5659603 C115.748461,31.190596 115.371897,30.9402649 114.681441,30.9402649 L113.473407,30.9402649 L113.473407,37.2001325 L114.681441,37.2001325 C115.371897,37.2001325 115.748461,36.9495364 115.99915,36.5739073 C116.219034,36.2613245 116.297374,35.9638411 116.297374,34.0698013 C116.297374,32.1919205 116.219034,31.8790728 115.99915,31.5659603 M117.881972,38.5458278 C117.113175,39.3124503 116.030486,39.6411921 114.869723,39.6411921 L110.728046,39.6411921 L110.728046,28.4984106 L114.869723,28.4984106 C116.030486,28.4984106 117.113175,28.8271523 117.881972,29.5940397 C119.184279,30.8931126 119.042735,32.3172185 119.042735,34.0698013 C119.042735,35.822649 119.184279,37.2470199 117.881972,38.5458278" id="Fill-1" fill="#FFFFFF"></path>
                    <g id="Group-5" transform="translate(119.236515, 28.344636)">
                        <mask id="mask-2" fill="white">
                            <use xlink:href="#path-1"></use>
                        </mask>
                        <g id="Clip-4"></g>
                        <path d="M4.41977095,11.3908079 C2.70982905,11.3908079 1.31324813,11.0774305 0.183820747,9.91954967 L1.94103237,8.16643709 C2.52128133,8.74577483 3.5407668,8.94895364 4.435439,8.94895364 C5.51786224,8.94895364 6.035439,8.58948344 6.035439,7.94736424 C6.035439,7.68140397 5.97303237,7.46233113 5.81582075,7.2904106 C5.6748083,7.14948344 5.43952199,7.03981457 5.07836017,6.99266225 L3.72931452,6.80511258 C2.74116515,6.66418543 1.98777095,6.33570861 1.48559668,5.81941722 C0.968285477,5.28723179 0.71733112,4.53597351 0.71733112,3.58153642 C0.71733112,1.54683444 2.25439336,0.0602119205 4.79606971,0.0602119205 C6.39633527,0.0602119205 7.60436846,0.435576159 8.5614473,1.39054305 L6.83583734,3.11186755 C6.1294473,2.40776159 5.20423568,2.45438411 4.71772946,2.45438411 C3.76065062,2.45438411 3.36841826,3.00219868 3.36841826,3.48723179 C3.36841826,3.62842384 3.41568797,3.83186755 3.58803651,4.00378808 C3.72931452,4.14471523 3.96486639,4.28564238 4.3568332,4.3325298 L5.70640996,4.52007947 C6.71022739,4.66100662 7.43201992,4.9738543 7.90259253,5.44352318 C8.4987751,6.02259603 8.73406141,6.8522649 8.73406141,7.88511258 C8.73406141,10.1545166 6.77263402,11.3908079 4.41977095,11.3908079" id="Fill-3" fill="#FFFFFF" mask="url(#mask-2)"></path>
                    </g>
                    <path d="M84.5216929,4.68111258 C88.0358506,6.48084768 87.2853776,11.3555497 85.8909212,13.6045563 C85.8909212,13.6045563 84.4324647,12.4143576 81.4196846,10.7563444 C78.4074357,9.09912583 76.7128963,8.49488742 76.7128963,8.49488742 C77.3590041,6.62919205 80.18961,2.46362914 84.5216929,4.68111258" id="Fill-6" fill="#FFFFFF"></path>
                    <path d="M43.4480598,4.68111258 C39.933371,6.48084768 40.683844,11.3555497 42.0783004,13.6045563 C42.0783004,13.6045563 43.5367568,12.4143576 46.5492714,10.7563444 C49.5617859,9.09912583 51.2563253,8.49488742 51.2563253,8.49488742 C50.6102174,6.62919205 47.7798772,2.46362914 43.4480598,4.68111258" id="Fill-8" fill="#FFFFFF"></path>
                    <path d="M30.9285975,23.6497219 C30.630639,23.6497219 30.3255104,23.4891921 30.1470539,23.1329007 C30.041361,22.9217748 30.0644647,22.6658808 30.1863568,22.4637616 C32.6804979,18.3352848 35.6845145,15.6989934 37.2943402,14.2860132 C37.3195685,14.2637616 37.3447967,14.2417748 37.3692282,14.2203179 C36.4835851,11.3381987 36.4448133,8.63965563 37.2550373,6.19064901 C38.6635685,1.93316556 42.9656432,-0.61597351 47.4828216,0.128662252 C50.7136266,0.661907285 53.0715353,2.56548344 54.674722,5.94031788 C57.4498257,5.46588079 59.4919834,5.19329801 63.9873859,5.13078146 L64.0110207,5.13078146 C68.505361,5.19647682 70.5488465,5.47117881 73.325278,5.9485298 C74.9281992,2.57422517 77.2871701,0.672238411 80.5214274,0.141112583 C85.0386058,-0.601403974 89.3380249,1.95091391 90.744166,6.21131126 C91.5458921,8.63992053 91.5140249,11.3087947 90.6514855,14.1525033 C90.6647635,14.2015099 90.6785726,14.252106 90.6921162,14.3011126 C92.2966307,15.7109139 95.2937427,18.3434967 97.7846971,22.4642914 C97.907917,22.6682649 97.9294274,22.9268079 97.8213444,23.1389934 C97.4734606,23.8208477 96.6560664,23.7795232 96.3365975,23.2536954 C93.9853278,19.3864106 91.1361328,16.8828344 89.6051784,15.5376689 C89.4264564,15.3805828 89.2641992,15.2380662 89.1210622,15.1095894 C88.8791369,14.8926358 88.7835353,14.5535629 88.8889627,14.2462781 C89.8261245,11.5140927 89.9233195,8.98376159 89.1781577,6.72574834 C88.1918672,3.73660927 84.9945228,1.07276821 80.7893776,1.76362914 C77.9701909,2.2266755 75.9365311,4.00203974 74.5728797,7.19091391 C74.4225726,7.54217219 74.0505228,7.74349669 73.6723651,7.67806623 C70.5512365,7.13263576 68.7021411,6.84468874 63.9985394,6.77528477 C59.2941411,6.84124503 57.4458423,7.12733775 54.3268382,7.6693245 C53.9505394,7.73396026 53.5776929,7.53343046 53.4273859,7.18190728 C52.0624066,3.99223841 50.0298091,2.21607947 47.2140747,1.75144371 C43.0089295,1.05713907 39.8089295,3.71912583 38.8205145,6.7061457 C38.0753527,8.95886093 38.1706888,11.4889272 39.1036017,14.2258808 C39.2087635,14.5339603 39.1123651,14.8735629 38.8699087,15.0910464 C38.7259751,15.220053 38.5629212,15.3630993 38.3834025,15.5207152 C36.8479336,16.8682649 33.9897095,19.3766093 31.6341909,23.2534305 C31.4791037,23.5087947 31.2071701,23.6497219 30.9285975,23.6497219" id="Fill-10" fill="#FFFFFF"></path>
                    <path d="M58.7373411,30.4701457 C58.2038307,30.4701457 58.0312166,30.752 58.0312166,31.1435232 C58.0312166,31.4717351 58.439117,31.8632583 58.6271336,32.0510728 C58.7686772,31.9570331 59.0039635,31.7848477 59.0039635,31.7848477 C59.2708515,31.597298 59.4432,31.3782252 59.4432,31.1276291 C59.4432,30.752 59.2079137,30.4701457 58.7373411,30.4701457 L58.7373411,30.4701457 Z M57.8742705,34.930543 C57.3811253,35.2738543 57.2294905,35.5885563 57.216478,36.0783576 C57.1984199,36.752 57.7298058,37.2947815 58.4048598,37.322596 C59.045922,37.349351 59.3489261,37.1514702 59.6158141,36.9180927 L57.8742705,34.930543 Z M61.8752,39.5474967 L61.1690755,38.7331921 C60.6196315,39.1403444 60.0080465,39.6412715 58.5177228,39.6412715 C55.8817726,39.6412715 54.7366772,38.3424636 54.7366772,36.1670993 C54.7366772,34.8836556 55.6778224,33.9289536 56.5095568,33.381404 C56.1170589,32.9429934 55.4582041,32.1917351 55.4582041,31.0807417 C55.4582041,29.4375629 56.6032996,28.3106755 58.7373411,28.3106755 C60.7139054,28.3106755 61.859532,29.4688212 61.859532,31.1122649 C61.859532,31.9570331 61.451366,32.5048477 60.7611751,33.021404 C60.7611751,33.021404 60.2590008,33.4121325 59.9767104,33.6002119 L61.2946855,35.1186225 C61.6085776,34.7583576 61.7652581,34.0386225 61.8125278,33.5064371 L64.2283286,33.5064371 C64.1186523,34.9618013 63.742088,36.1045828 62.9260216,36.9962384 L65.1070672,39.5474967 L61.8752,39.5474967 Z" id="Fill-12" fill="#FFFFFF"></path>
                    <path d="M4.59666058,35.2282649 L2.74544066,35.2282649 L2.74544066,37.1845563 L4.59666058,37.1845563 C5.34952365,37.1845563 5.60074357,36.668 5.60074357,36.1983311 C5.60074357,35.7291921 5.34952365,35.2282649 4.59666058,35.2282649 M4.45564813,30.9556821 L2.74544066,30.9556821 L2.74544066,32.7710464 L4.45564813,32.7710464 C5.2085112,32.7710464 5.44379751,32.3013775 5.44379751,31.8632318 C5.44379751,31.425351 5.2085112,30.9556821 4.45564813,30.9556821 M4.86328299,39.641245 L7.96680498e-05,39.641245 L7.96680498e-05,28.4984636 L4.62799668,28.4984636 C6.95005477,28.4984636 8.18942407,29.7975364 8.18942407,31.7228344 C8.18942407,32.9903841 7.31068548,33.6944901 6.96572282,33.9291921 C7.42062739,34.2107815 8.34637012,34.7898543 8.34637012,36.3548874 C8.34637012,38.4833642 6.85578091,39.641245 4.86328299,39.641245" id="Fill-14" fill="#FFFFFF"></path>
                    <path d="M14.0737062,30.9557086 L12.5207104,30.9557086 L12.5207104,33.2094834 L14.0737062,33.2094834 C14.8265693,33.2094834 15.2663369,32.661404 15.2663369,32.0823311 C15.2663369,31.5029934 14.8265693,30.9557086 14.0737062,30.9557086 L14.0737062,30.9557086 Z M15.4230174,39.6412715 L13.4464531,35.4942517 L12.5207104,35.4942517 L12.5207104,39.6412715 L9.77481826,39.6412715 L9.77481826,28.4984901 L14.1993162,28.4984901 C16.6783203,28.4984901 18.0119635,30.2516026 18.0119635,32.0823311 C18.0119635,33.6002119 17.0702871,34.5549139 16.1918141,34.9933245 L18.6078805,39.6412715 L15.4230174,39.6412715 Z" id="Fill-16" fill="#FFFFFF"></path>
                    <g id="Group-20" transform="translate(19.120332, 28.344636)">
                        <mask id="mask-4" fill="white">
                            <use xlink:href="#path-3"></use>
                        </mask>
                        <g id="Clip-19"></g>
                        <path d="M5.40306058,2.98643709 C5.19884481,2.72047682 4.80687801,2.50140397 4.30470373,2.50140397 C3.80279502,2.50140397 3.41056266,2.72047682 3.20634689,2.98643709 C2.95539253,3.31517881 2.79844647,3.69054305 2.79844647,5.72524503 C2.79844647,7.75994702 2.95539253,8.11994702 3.20634689,8.44815894 C3.41056266,8.71438411 3.80279502,8.94908609 4.30470373,8.94908609 C4.80687801,8.94908609 5.19884481,8.71438411 5.40306058,8.44815894 C5.65401494,8.11994702 5.810961,7.75994702 5.810961,5.72524503 C5.810961,3.69054305 5.65401494,3.31517881 5.40306058,2.98643709 M7.42716017,10.138755 C6.61109378,10.9522649 5.66968299,11.3909404 4.30470373,11.3909404 C2.93972448,11.3909404 1.99831369,10.9522649 1.18251286,10.138755 C0.00581576763,8.96471523 0.0530854772,7.39994702 0.0530854772,5.72524503 C0.0530854772,4.05080795 0.00581576763,2.48550993 1.18251286,1.3122649 C1.99831369,0.498225166 2.93972448,0.0600794702 4.30470373,0.0600794702 C5.66968299,0.0600794702 6.61109378,0.498225166 7.42716017,1.3122649 C8.6035917,2.48550993 8.55658755,4.05080795 8.55658755,5.72524503 C8.55658755,7.39994702 8.6035917,8.96471523 7.42716017,10.138755" id="Fill-18" fill="#FFFFFF" mask="url(#mask-4)"></path>
                    </g>
                    <polygon id="Fill-21" fill="#FFFFFF" points="38.973849 39.641298 36.7303967 39.641298 34.9259154 34.1483179 33.1216996 39.641298 30.8939154 39.641298 27.8189942 28.4985166 30.6902307 28.4985166 32.1489527 34.382755 33.953434 28.4985166 35.8986622 28.4985166 37.702878 34.382755 39.1618656 28.4985166 42.0328365 28.4985166"></polygon>
                    <polygon id="Fill-23" fill="#FFFFFF" points="49.0157411 39.641298 45.4389112 34.038649 45.4389112 39.641298 42.6935502 39.641298 42.6935502 28.4985166 45.093683 28.4985166 48.6707784 34.1011656 48.6707784 28.4985166 51.416405 28.4985166 51.416405 39.641298"></polygon>
                    <polygon id="Fill-25" fill="#FFFFFF" points="70.7180083 30.9401854 70.7180083 32.8962119 74.8596846 32.8962119 74.8596846 35.3375364 70.7180083 35.3375364 70.7180083 39.6413775 67.9723817 39.6413775 67.9723817 28.4983311 75.5655436 28.4983311 75.5655436 30.9401854"></polygon>
                    <path d="M81.1513627,30.9557086 L79.5983668,30.9557086 L79.5983668,33.2094834 L81.1513627,33.2094834 C81.9042257,33.2094834 82.3437278,32.661404 82.3437278,32.0823311 C82.3437278,31.5029934 81.9042257,30.9557086 81.1513627,30.9557086 L81.1513627,30.9557086 Z M82.5006739,39.6412715 L80.5241095,35.4942517 L79.5983668,35.4942517 L79.5983668,39.6412715 L76.8527402,39.6412715 L76.8527402,28.4984901 L81.2769726,28.4984901 C83.7559768,28.4984901 85.0893544,30.2516026 85.0893544,32.0823311 C85.0893544,33.6002119 84.147678,34.5549139 83.2694705,34.9933245 L85.6852714,39.6412715 L82.5006739,39.6412715 Z" id="Fill-27" fill="#FFFFFF"></path>
                    <polygon id="Fill-29" fill="#FFFFFF" points="86.6124481 39.6410596 89.3578091 39.6410596 89.3578091 28.4982781 86.6124481 28.4982781"></polygon>
                    <polygon id="Fill-31" fill="#FFFFFF" points="91.1461975 39.641298 91.1461975 28.4985166 98.7396249 28.4985166 98.7396249 30.940106 93.8920896 30.940106 93.8920896 32.8023576 98.033766 32.8023576 98.033766 35.2436821 93.8920896 35.2436821 93.8920896 37.1999735 98.7396249 37.1999735 98.7396249 39.641298"></polygon>
                    <polygon id="Fill-32" fill="#FFFFFF" points="106.537773 39.641298 102.960943 34.038649 102.960943 39.641298 100.215051 39.641298 100.215051 28.4985166 102.615449 28.4985166 106.19281 34.1011656 106.19281 28.4985166 108.938437 28.4985166 108.938437 39.641298"></polygon>
                </g>
            </g>
        </g>
    </g>
</svg>