<?xml version="1.0" encoding="UTF-8"?>
<svg width="171px" height="172px" viewBox="0 0 171 172" version="1.1" xmlns="http://www.w3.org/2000/svg" xmlns:xlink="http://www.w3.org/1999/xlink">
    <!-- Generator: sketchtool 54.1 (76490) - https://sketchapp.com -->
    <title>06396B6A-4F4B-4376-9BBF-17FFE0EB1C20</title>
    <desc>Created with sketchtool.</desc>
    <defs>
        <polygon id="path-1" points="0.0001 0.385 170.078 0.385 170.078 170.4638 0.0001 170.4638"></polygon>
        <path d="M0,85.425 C0,132.391 38.074,170.464 85.039,170.464 L85.039,170.464 C132.006,170.464 170.078,132.391 170.078,85.425 L170.078,85.425 C170.078,38.459 132.006,0.386 85.039,0.386 L85.039,0.386 C38.074,0.386 0,38.459 0,85.425" id="path-3"></path>
        <path d="M0,85.425 C0,132.391 38.074,170.464 85.039,170.464 L85.039,170.464 C132.006,170.464 170.078,132.391 170.078,85.425 L170.078,85.425 C170.078,38.459 132.006,0.386 85.039,0.386 L85.039,0.386 C38.074,0.386 0,38.459 0,85.425" id="path-5"></path>
        <path d="M0,85.425 C0,132.391 38.074,170.464 85.039,170.464 L85.039,170.464 C132.006,170.464 170.078,132.391 170.078,85.425 L170.078,85.425 C170.078,38.459 132.006,0.386 85.039,0.386 L85.039,0.386 C38.074,0.386 0,38.459 0,85.425" id="path-7"></path>
        <path d="M0,85.425 C0,132.391 38.074,170.464 85.039,170.464 L85.039,170.464 C132.006,170.464 170.078,132.391 170.078,85.425 L170.078,85.425 C170.078,38.459 132.006,0.386 85.039,0.386 L85.039,0.386 C38.074,0.386 0,38.459 0,85.425" id="path-9"></path>
        <path d="M0,85.425 C0,132.391 38.074,170.464 85.039,170.464 L85.039,170.464 C132.006,170.464 170.078,132.391 170.078,85.425 L170.078,85.425 C170.078,38.459 132.006,0.386 85.039,0.386 L85.039,0.386 C38.074,0.386 0,38.459 0,85.425" id="path-11"></path>
        <path d="M0,85.425 C0,132.391 38.074,170.464 85.039,170.464 L85.039,170.464 C132.006,170.464 170.078,132.391 170.078,85.425 L170.078,85.425 C170.078,38.459 132.006,0.386 85.039,0.386 L85.039,0.386 C38.074,0.386 0,38.459 0,85.425" id="path-13"></path>
        <path d="M0,85.425 C0,132.391 38.074,170.464 85.039,170.464 L85.039,170.464 C132.006,170.464 170.078,132.391 170.078,85.425 L170.078,85.425 C170.078,38.459 132.006,0.386 85.039,0.386 L85.039,0.386 C38.074,0.386 0,38.459 0,85.425 L0,85.425 Z" id="path-15"></path>
        <path d="M0,85.425 C0,132.391 38.074,170.464 85.039,170.464 L85.039,170.464 C132.006,170.464 170.078,132.391 170.078,85.425 L170.078,85.425 C170.078,38.459 132.006,0.386 85.039,0.386 L85.039,0.386 C38.074,0.386 0,38.459 0,85.425" id="path-17"></path>
        <path d="M0,85.425 C0,132.391 38.074,170.464 85.039,170.464 L85.039,170.464 C132.006,170.464 170.078,132.391 170.078,85.425 L170.078,85.425 C170.078,38.459 132.006,0.386 85.039,0.386 L85.039,0.386 C38.074,0.386 0,38.459 0,85.425" id="path-19"></path>
        <path d="M0,85.425 C0,132.391 38.074,170.464 85.039,170.464 L85.039,170.464 C132.006,170.464 170.078,132.391 170.078,85.425 L170.078,85.425 C170.078,38.459 132.006,0.386 85.039,0.386 L85.039,0.386 C38.074,0.386 0,38.459 0,85.425" id="path-21"></path>
        <path d="M0,85.425 C0,132.391 38.074,170.464 85.039,170.464 L85.039,170.464 C132.006,170.464 170.078,132.391 170.078,85.425 L170.078,85.425 C170.078,38.459 132.006,0.386 85.039,0.386 L85.039,0.386 C38.074,0.386 0,38.459 0,85.425" id="path-23"></path>
        <path d="M0,85.425 C0,132.391 38.074,170.464 85.039,170.464 L85.039,170.464 C132.006,170.464 170.078,132.391 170.078,85.425 L170.078,85.425 C170.078,38.459 132.006,0.386 85.039,0.386 L85.039,0.386 C38.074,0.386 0,38.459 0,85.425" id="path-25"></path>
        <path d="M0,85.425 C0,132.391 38.074,170.464 85.039,170.464 L85.039,170.464 C132.006,170.464 170.078,132.391 170.078,85.425 L170.078,85.425 C170.078,38.459 132.006,0.386 85.039,0.386 L85.039,0.386 C38.074,0.386 0,38.459 0,85.425" id="path-27"></path>
        <path d="M0,85.425 C0,132.391 38.074,170.464 85.039,170.464 L85.039,170.464 C132.006,170.464 170.078,132.391 170.078,85.425 L170.078,85.425 C170.078,38.459 132.006,0.386 85.039,0.386 L85.039,0.386 C38.074,0.386 0,38.459 0,85.425" id="path-29"></path>
        <path d="M0,85.425 C0,132.391 38.074,170.464 85.039,170.464 L85.039,170.464 C132.006,170.464 170.078,132.391 170.078,85.425 L170.078,85.425 C170.078,38.459 132.006,0.386 85.039,0.386 L85.039,0.386 C38.074,0.386 0,38.459 0,85.425" id="path-31"></path>
        <path d="M0,85.425 C0,132.391 38.074,170.464 85.039,170.464 L85.039,170.464 C132.006,170.464 170.078,132.391 170.078,85.425 L170.078,85.425 C170.078,38.459 132.006,0.386 85.039,0.386 L85.039,0.386 C38.074,0.386 0,38.459 0,85.425 L0,85.425 Z" id="path-33"></path>
        <path d="M0,85.425 C0,132.391 38.074,170.464 85.039,170.464 L85.039,170.464 C132.006,170.464 170.078,132.391 170.078,85.425 L170.078,85.425 C170.078,38.459 132.006,0.386 85.039,0.386 L85.039,0.386 C38.074,0.386 0,38.459 0,85.425" id="path-35"></path>
        <path d="M0,85.425 C0,132.391 38.074,170.464 85.039,170.464 L85.039,170.464 C132.006,170.464 170.078,132.391 170.078,85.425 L170.078,85.425 C170.078,38.459 132.006,0.386 85.039,0.386 L85.039,0.386 C38.074,0.386 0,38.459 0,85.425" id="path-37"></path>
        <path d="M0,85.425 C0,132.391 38.074,170.464 85.039,170.464 L85.039,170.464 C132.006,170.464 170.078,132.391 170.078,85.425 L170.078,85.425 C170.078,38.459 132.006,0.386 85.039,0.386 L85.039,0.386 C38.074,0.386 0,38.459 0,85.425 L0,85.425 Z" id="path-39"></path>
    </defs>
    <g id="Symbols" stroke="none" stroke-width="1" fill="none" fill-rule="evenodd">
        <g id="Graphic/Character/BF/Moon">
            <g id="Group-64">
                <g id="Group-3" transform="translate(0.000000, 0.615000)">
                    <mask id="mask-2" fill="white">
                        <use xlink:href="#path-1"></use>
                    </mask>
                    <g id="Clip-2"></g>
                    <path d="M85.0391,0.3848 C38.0731,0.3848 0.0001,38.4578 0.0001,85.4248 C0.0001,132.3908 38.0731,170.4638 85.0391,170.4638 C132.0051,170.4638 170.0781,132.3908 170.0781,85.4248 C170.0781,38.4578 132.0051,0.3848 85.0391,0.3848" id="Fill-1" fill="#00AB6B" mask="url(#mask-2)"></path>
                </g>
                <g id="Group-63" transform="translate(0.000000, 0.615000)">
                    <g id="Group-6">
                        <mask id="mask-4" fill="white">
                            <use xlink:href="#path-3"></use>
                        </mask>
                        <g id="Clip-5"></g>
                        <path d="M60.9863,130.2637 C60.9863,130.2637 50.6343,136.2297 46.4913,154.5747 C43.0603,169.7587 42.7373,182.4677 42.7373,182.4677 C42.7373,182.4677 39.7273,192.0557 47.2573,196.9217 C54.5033,201.6037 62.1813,194.8957 62.1813,194.8957" id="Fill-4" fill="#FEFEFE" mask="url(#mask-4)"></path>
                    </g>
                    <g id="Group-9">
                        <mask id="mask-6" fill="white">
                            <use xlink:href="#path-5"></use>
                        </mask>
                        <g id="Clip-8"></g>
                        <path d="M52.7744,199.7324 C50.7974,199.7324 48.6954,199.2384 46.6244,197.8994 C39.0224,192.9864 41.2064,183.6644 41.5774,182.2894 C41.6284,180.8084 42.1364,168.5614 45.3554,154.3174 C49.5624,135.6894 59.9634,129.5084 60.4044,129.2534 C60.9644,128.9324 61.6754,129.1264 61.9964,129.6814 C62.3164,130.2384 62.1264,130.9494 61.5704,131.2704 C61.4714,131.3294 51.5934,137.2724 47.6274,154.8314 C44.2634,169.7164 43.9044,182.3714 43.9014,182.4974 C43.8994,182.6044 43.8804,182.7124 43.8494,182.8144 C43.7384,183.1724 41.2114,191.6284 47.8884,195.9424 C54.3214,200.1014 61.3454,194.0804 61.4154,194.0194 C61.9014,193.5954 62.6354,193.6464 63.0584,194.1294 C63.4814,194.6144 63.4314,195.3504 62.9474,195.7734 C62.8854,195.8274 58.3294,199.7324 52.7744,199.7324" id="Fill-7" fill="#161112" mask="url(#mask-6)"></path>
                    </g>
                    <g id="Group-12">
                        <mask id="mask-8" fill="white">
                            <use xlink:href="#path-7"></use>
                        </mask>
                        <g id="Clip-11"></g>
                        <path d="M110.0225,130.2637 C110.0225,130.2637 120.3745,136.2297 124.5175,154.5747 C127.9485,169.7587 128.2715,182.4677 128.2715,182.4677 C128.2715,182.4677 131.2815,192.0557 123.7515,196.9217 C116.5055,201.6037 108.8275,194.8957 108.8275,194.8957" id="Fill-10" fill="#FEFEFE" mask="url(#mask-8)"></path>
                    </g>
                    <g id="Group-15">
                        <mask id="mask-10" fill="white">
                            <use xlink:href="#path-9"></use>
                        </mask>
                        <g id="Clip-14"></g>
                        <path d="M118.2334,199.7324 C112.6794,199.7324 108.1224,195.8274 108.0604,195.7734 C107.5774,195.3504 107.5274,194.6174 107.9494,194.1314 C108.3714,193.6464 109.1074,193.5964 109.5914,194.0174 C109.8794,194.2674 116.7084,200.0864 123.1204,195.9424 C129.7974,191.6284 127.2704,183.1724 127.1594,182.8154 C127.1274,182.7124 127.1094,182.6044 127.1074,182.4974 C127.1034,182.3714 126.7444,169.7164 123.3814,154.8314 C119.4154,137.2724 109.5384,131.3294 109.4384,131.2704 C108.8834,130.9474 108.6944,130.2354 109.0164,129.6794 C109.3374,129.1244 110.0484,128.9334 110.6044,129.2534 C111.0454,129.5084 121.4464,135.6894 125.6544,154.3174 C128.8724,168.5614 129.3794,180.8084 129.4304,182.2894 C129.8034,183.6644 131.9864,192.9864 124.3834,197.8994 C122.3134,199.2384 120.2104,199.7324 118.2334,199.7324" id="Fill-13" fill="#161112" mask="url(#mask-10)"></path>
                    </g>
                    <g id="Group-18">
                        <mask id="mask-12" fill="white">
                            <use xlink:href="#path-11"></use>
                        </mask>
                        <g id="Clip-17"></g>
                        <path d="M85.3428,200.8232 L85.3428,236.6542 C85.3428,244.1332 77.6188,249.8382 68.4258,249.8362 C60.7998,249.8332 54.5608,248.5832 53.0498,242.4622 C51.4148,235.8362 55.5958,231.1992 55.5958,231.1992 C53.0618,190.4642 56.1548,152.2312 56.1548,152.2312 L59.2988,123.1622 L111.3188,123.1622 L114.6348,152.2312 C114.6348,152.2312 117.7288,190.4642 115.1948,231.1992 C115.1948,231.1992 119.3748,235.8362 117.7388,242.4622 C116.2288,248.5832 109.9888,249.8332 102.3638,249.8362 C93.1708,249.8382 85.4468,244.1332 85.4468,236.6542 L85.4468,200.8232" id="Fill-16" fill="#FEFEFE" mask="url(#mask-12)"></path>
                    </g>
                    <g id="Group-21">
                        <mask id="mask-14" fill="white">
                            <use xlink:href="#path-13"></use>
                        </mask>
                        <g id="Clip-20"></g>
                        <path d="M68.4326,251 L68.4246,251 C61.2706,250.998 53.7146,250.015 51.9186,242.741 C50.4166,236.654 53.3786,232.146 54.4046,230.816 C51.9456,190.632 54.9626,152.52 54.9936,152.138 C55.0456,151.496 55.6086,151.027 56.2476,151.07 C56.8896,151.123 57.3676,151.685 57.3156,152.325 C57.2846,152.707 54.2586,190.947 56.7576,231.127 C56.7776,231.439 56.6696,231.746 56.4606,231.979 C56.3096,232.148 52.7216,236.269 54.1806,242.183 C55.3176,246.788 59.4446,248.668 68.4256,248.671 L68.4326,248.671 C72.6656,248.671 76.6396,247.412 79.6226,245.126 C82.5606,242.874 84.1776,239.866 84.1776,236.654 L84.1776,200.823 C84.1776,200.18 84.6996,199.658 85.3426,199.658 C85.9856,199.658 86.5066,200.18 86.5066,200.823 L86.5066,236.654 C86.5066,240.607 84.5656,244.272 81.0396,246.975 C77.6526,249.57 73.1746,251 68.4326,251" id="Fill-19" fill="#161112" mask="url(#mask-14)"></path>
                    </g>
                    <g id="Group-24">
                        <mask id="mask-16" fill="white">
                            <use xlink:href="#path-15"></use>
                        </mask>
                        <g id="Clip-23"></g>
                        <path d="M102.3564,251 C97.6134,251 93.1364,249.57 89.7494,246.975 C86.2234,244.272 84.2824,240.607 84.2824,236.654 L84.2824,200.823 C84.2824,200.18 84.8034,199.658 85.4464,199.658 C86.0894,199.658 86.6114,200.18 86.6114,200.823 L86.6114,236.654 C86.6114,239.866 88.2294,242.874 91.1674,245.126 C94.1494,247.412 98.1234,248.671 102.3564,248.671 L102.3634,248.671 C111.3444,248.668 115.4714,246.788 116.6084,242.183 C118.0794,236.227 114.3664,232.021 114.3294,231.979 C114.1194,231.746 114.0114,231.439 114.0314,231.127 C116.5314,190.947 113.5044,152.707 113.4734,152.325 C113.4214,151.685 113.9004,151.123 114.5424,151.07 C115.1764,151.027 115.7454,151.496 115.7964,152.138 C115.8274,152.52 118.8434,190.632 116.3844,230.816 C117.4104,232.146 120.3724,236.654 118.8714,242.741 C117.0744,250.015 109.5184,250.998 102.3644,251 L102.3564,251 Z" id="Fill-22" fill="#161112" mask="url(#mask-16)"></path>
                    </g>
                    <g id="Group-27">
                        <mask id="mask-18" fill="white">
                            <use xlink:href="#path-17"></use>
                        </mask>
                        <g id="Clip-26"></g>
                        <path d="M139.0703,87.5557 C139.0703,117.3967 114.8793,141.5857 85.0383,141.5857 C55.1983,141.5857 31.0073,117.3967 31.0073,87.5557 C31.0073,57.7157 55.1983,33.5247 85.0383,33.5247 C114.8793,33.5247 139.0703,57.7157 139.0703,87.5557" id="Fill-25" fill="#FEFEFE" mask="url(#mask-18)"></path>
                    </g>
                    <g id="Group-30">
                        <mask id="mask-20" fill="white">
                            <use xlink:href="#path-19"></use>
                        </mask>
                        <g id="Clip-29"></g>
                        <path d="M85.0381,34.6895 C55.8881,34.6895 32.1731,58.4055 32.1731,87.5565 C32.1731,116.7065 55.8881,140.4205 85.0381,140.4205 C114.1881,140.4205 137.9051,116.7065 137.9051,87.5565 C137.9051,58.4055 114.1881,34.6895 85.0381,34.6895 M85.0381,142.7515 C54.6031,142.7515 29.8441,117.9915 29.8441,87.5565 C29.8441,57.1215 54.6031,32.3595 85.0381,32.3595 C115.4741,32.3595 140.2341,57.1215 140.2341,87.5565 C140.2341,117.9915 115.4741,142.7515 85.0381,142.7515" id="Fill-28" fill="#161112" mask="url(#mask-20)"></path>
                    </g>
                    <g id="Group-33">
                        <mask id="mask-22" fill="white">
                            <use xlink:href="#path-21"></use>
                        </mask>
                        <g id="Clip-32"></g>
                        <path d="M88.252,71.8945 C88.086,71.8945 87.918,71.8595 87.759,71.7845 C87.177,71.5115 86.925,70.8175 87.198,70.2355 L95.257,53.0425 C95.53,52.4595 96.226,52.2095 96.807,52.4825 C97.389,52.7555 97.64,53.4495 97.367,54.0315 L89.308,71.2235 C89.109,71.6465 88.689,71.8945 88.252,71.8945" id="Fill-31" fill="#161112" mask="url(#mask-22)"></path>
                    </g>
                    <g id="Group-36">
                        <mask id="mask-24" fill="white">
                            <use xlink:href="#path-23"></use>
                        </mask>
                        <g id="Clip-35"></g>
                        <path d="M81.8711,71.8945 C81.4341,71.8945 81.0161,71.6475 80.8161,71.2265 L72.7111,54.0345 C72.4361,53.4525 72.6851,52.7575 73.2671,52.4845 C73.8491,52.2075 74.5421,52.4575 74.8171,53.0405 L82.9241,70.2325 C83.1981,70.8145 82.9481,71.5085 82.3671,71.7835 C82.2061,71.8585 82.0371,71.8945 81.8711,71.8945" id="Fill-34" fill="#161112" mask="url(#mask-24)"></path>
                    </g>
                    <g id="Group-39">
                        <mask id="mask-26" fill="white">
                            <use xlink:href="#path-25"></use>
                        </mask>
                        <g id="Clip-38"></g>
                        <path d="M77.8867,96.7266 C77.7287,96.7266 77.5677,96.6946 77.4137,96.6246 C76.8257,96.3646 76.5617,95.6756 76.8237,95.0886 C79.1307,89.9016 81.6337,87.3196 84.4777,87.1906 C87.3917,87.0466 90.2607,89.5656 93.2077,94.8546 C93.5207,95.4166 93.3197,96.1256 92.7567,96.4396 C92.1957,96.7506 91.4867,96.5506 91.1717,95.9886 C88.7657,91.6686 86.4747,89.3936 84.5817,89.5186 C82.7577,89.5996 80.8117,91.8536 78.9507,96.0356 C78.7587,96.4686 78.3317,96.7266 77.8867,96.7266" id="Fill-37" fill="#161112" mask="url(#mask-26)"></path>
                    </g>
                    <g id="Group-42">
                        <mask id="mask-28" fill="white">
                            <use xlink:href="#path-27"></use>
                        </mask>
                        <g id="Clip-41"></g>
                        <path d="M123.2539,94.373 C123.2539,96.406 120.0889,98.053 116.1849,98.053 C112.2809,98.053 109.1149,96.406 109.1149,94.373 C109.1149,92.341 112.2809,90.691 116.1849,90.691 C120.0889,90.691 123.2539,92.341 123.2539,94.373" id="Fill-40" fill="#F8BFC6" mask="url(#mask-28)"></path>
                    </g>
                    <g id="Group-45">
                        <mask id="mask-30" fill="white">
                            <use xlink:href="#path-29"></use>
                        </mask>
                        <g id="Clip-44"></g>
                        <path d="M60.9609,94.373 C60.9609,96.406 57.7969,98.053 53.8939,98.053 C49.9879,98.053 46.8239,96.406 46.8239,94.373 C46.8239,92.341 49.9879,90.691 53.8939,90.691 C57.7969,90.691 60.9609,92.341 60.9609,94.373" id="Fill-43" fill="#F8BFC6" mask="url(#mask-30)"></path>
                    </g>
                    <g id="Group-48">
                        <mask id="mask-32" fill="white">
                            <use xlink:href="#path-31"></use>
                        </mask>
                        <g id="Clip-47"></g>
                        <path d="M106.6748,90.5352 C106.5148,90.5352 106.3528,90.5022 106.1958,90.4322 L91.4758,83.7932 C91.1268,83.6362 90.8778,83.3172 90.8088,82.9412 C90.7398,82.5652 90.8598,82.1802 91.1298,81.9082 L104.6648,68.3502 C105.1188,67.8962 105.8568,67.8942 106.3128,68.3482 C106.7678,68.8042 106.7678,69.5412 106.3138,69.9972 L93.9688,82.3622 L107.1538,88.3082 C107.7408,88.5732 108.0018,89.2632 107.7368,89.8492 C107.5428,90.2802 107.1178,90.5352 106.6748,90.5352" id="Fill-46" fill="#161112" mask="url(#mask-32)"></path>
                    </g>
                    <g id="Group-51">
                        <mask id="mask-34" fill="white">
                            <use xlink:href="#path-33"></use>
                        </mask>
                        <g id="Clip-50"></g>
                        <path d="M91.9531,83.8965 C91.4171,83.8965 90.9341,83.5245 90.8161,82.9795 C90.6801,82.3505 91.0781,81.7305 91.7061,81.5935 L109.0381,77.8195 C109.6591,77.6815 110.2861,78.0805 110.4241,78.7095 C110.5601,79.3375 110.1621,79.9585 109.5331,80.0955 L92.2021,83.8695 L91.9531,83.8965 Z" id="Fill-49" fill="#161112" mask="url(#mask-34)"></path>
                    </g>
                    <g id="Group-54">
                        <mask id="mask-36" fill="white">
                            <use xlink:href="#path-35"></use>
                        </mask>
                        <g id="Clip-53"></g>
                        <path d="M96.6162,100.7754 L73.4612,100.7754 C73.4612,100.7754 72.9762,110.0814 75.0692,117.9554 C76.6042,123.7264 79.5192,128.7264 85.0382,128.7264 C90.5572,128.7264 93.4742,123.7264 95.0092,117.9554 C97.1012,110.0814 96.6162,100.7754 96.6162,100.7754" id="Fill-52" fill="#DB4D28" mask="url(#mask-36)"></path>
                    </g>
                    <g id="Group-57">
                        <mask id="mask-38" fill="white">
                            <use xlink:href="#path-37"></use>
                        </mask>
                        <g id="Clip-56"></g>
                        <path d="M85.0381,128.7266 C90.5581,128.7266 93.4741,123.7246 95.0091,117.9556 C91.9501,114.7516 87.8601,113.9386 85.0381,113.9386 C82.2181,113.9386 77.7671,114.9596 75.0691,117.9556 C76.6041,123.7246 79.5191,128.7266 85.0381,128.7266" id="Fill-55" fill="#F38A93" mask="url(#mask-38)"></path>
                    </g>
                    <mask id="mask-40" fill="white">
                        <use xlink:href="#path-39"></use>
                    </mask>
                    <g id="Clip-59"></g>
                    <polygon id="Fill-58" fill="#FEFEFE" mask="url(#mask-40)" points="73.552 104.948 96.524 104.948 96.524 100.775 73.552 100.775"></polygon>
                    <path d="M74.5908,101.9404 C74.5148,105.9444 74.6548,119.7484 79.9318,125.3074 C81.3718,126.8254 83.0418,127.5624 85.0378,127.5624 C87.0348,127.5624 88.7058,126.8254 90.1468,125.3054 C95.4268,119.7404 95.5648,105.9424 95.4868,101.9404 L74.5908,101.9404 Z M85.0378,129.8914 C82.4048,129.8914 80.1178,128.8884 78.2408,126.9094 C71.3818,119.6794 72.2578,101.4854 72.2978,100.7134 C72.3308,100.0954 72.8418,99.6104 73.4618,99.6104 L96.6158,99.6104 C97.2368,99.6104 97.7468,100.0954 97.7798,100.7134 C97.8198,101.4854 98.6948,119.6784 91.8358,126.9094 C89.9588,128.8884 87.6708,129.8914 85.0378,129.8914 L85.0378,129.8914 Z" id="Fill-60" fill="#161112" mask="url(#mask-40)"></path>
                    <path d="M70.9453,70.0771 C70.9453,70.0771 67.6453,72.9031 67.5053,79.3751 C67.4323,82.6771 67.4963,88.0261 70.2163,89.3271 C72.8923,90.6041 74.7583,88.8851 75.5113,87.1711 C76.2633,85.4561 77.7063,79.4391 75.0533,73.6711 C73.4503,70.1851 70.9453,70.0771 70.9453,70.0771" id="Fill-61" fill="#161112" mask="url(#mask-40)"></path>
                    <path d="M71.3291,71.3516 C70.5331,72.2696 68.7691,74.8126 68.6701,79.4006 C68.6271,81.3326 68.4991,87.2146 70.7191,88.2766 C71.4651,88.6316 72.1471,88.6996 72.7471,88.4756 C73.4341,88.2196 74.0691,87.5566 74.4441,86.7026 C75.1191,85.1666 76.4841,79.5696 73.9951,74.1576 C73.1111,72.2336 71.9581,71.5756 71.3291,71.3516 M72.0211,90.9336 C71.2671,90.9336 70.4891,90.7476 69.7151,90.3786 C66.5621,88.8706 66.2401,83.9566 66.3401,79.3496 C66.4221,75.5916 67.5081,72.9556 68.5061,71.3116 C67.6541,71.4876 66.9141,71.8396 66.2831,72.3656 C63.9851,74.2816 63.7241,77.8506 63.7211,77.8866 C63.6791,78.5296 63.1151,79.0266 62.4821,78.9716 C61.8401,78.9296 61.3541,78.3736 61.3971,77.7326 C61.4091,77.5456 61.7351,73.1236 64.7921,70.5766 C66.4561,69.1886 68.5691,68.6276 71.0761,68.9186 L71.0791,68.9186 C71.1421,68.9186 74.2371,69.1096 76.1121,73.1836 C78.9721,79.4036 77.4181,85.7276 76.5771,87.6386 C75.9451,89.0806 74.8451,90.1806 73.5581,90.6596 C73.0651,90.8426 72.5501,90.9336 72.0211,90.9336" id="Fill-62" fill="#161112" mask="url(#mask-40)"></path>
                </g>
            </g>
        </g>
    </g>
</svg>