<svg xmlns="http://www.w3.org/2000/svg" xmlns:xlink="http://www.w3.org/1999/xlink" width="16" height="15" viewBox="0 0 16 15">
    <defs>
        <path id="a" d="M0 .273h15.767V14.4H0z"/>
    </defs>
    <g fill="none" fill-rule="evenodd">
        <path fill="#FEFEFE" d="M7.883.72C3.75.72.4 3.461.4 6.843c0 1.786.936 3.394 2.428 4.513l-.052 1.03-.083 1.66 1.41-.882 1.01-.633c.858.28 1.792.435 2.77.435 4.134 0 7.484-2.742 7.484-6.123 0-3.382-3.35-6.123-7.484-6.123"/>
        <g transform="translate(0 .047)">
            <mask id="b" fill="#fff">
                <use xlink:href="#a"/>
            </mask>
            <path fill="#161112" d="M12.922 10.816c-1.277 1.046-3.06 1.703-5.039 1.703a8.53 8.53 0 0 1-2.645-.415.4.4 0 0 0-.336.04l-1.012.634-.759.476.045-.894.051-1.03a.402.402 0 0 0-.159-.34C1.658 9.93.8 8.438.8 6.796c0-1.555.767-2.972 2.045-4.02 1.277-1.045 3.06-1.703 5.038-1.703 1.979 0 3.762.658 5.039 1.703 1.278 1.048 2.045 2.465 2.045 4.02 0 1.555-.767 2.973-2.045 4.02m.506-8.659C11.997.987 10.038.274 7.883.273c-2.155 0-4.113.713-5.545 1.884C.908 3.325 0 4.969 0 6.796c0 1.86.943 3.527 2.418 4.7l-.041.824-.083 1.66a.399.399 0 0 0 .611.36l1.41-.883.861-.54a9.337 9.337 0 0 0 2.707.402c2.156 0 4.114-.713 5.545-1.884 1.43-1.168 2.34-2.812 2.339-4.639 0-1.827-.908-3.47-2.339-4.639" mask="url(#b)"/>
        </g>
        <path fill="#161112" d="M4.553 5.953a.999.999 0 0 0 0 1.996.999.999 0 0 0 0-1.996M7.883 5.953a.999.999 0 0 0 0 1.996.999.999 0 0 0 0-1.996M11.213 5.953a.999.999 0 0 0 0 1.996.999.999 0 0 0 0-1.996"/>
    </g>
</svg>
