<svg xmlns="http://www.w3.org/2000/svg" xmlns:xlink="http://www.w3.org/1999/xlink" width="48" height="44" viewBox="0 0 48 44">
    <defs>
        <path id="a" d="M0 .82h47.3V43.2H0z"/>
    </defs>
    <g fill="none" fill-rule="evenodd">
        <path fill="#FEFEFE" d="M23.65 2.16c-12.4 0-22.45 8.223-22.45 18.369 0 5.36 2.808 10.181 7.283 13.54l-.154 3.09-.249 4.981 4.227-2.648 3.034-1.9a26.78 26.78 0 0 0 8.31 1.305c12.399 0 22.45-8.224 22.45-18.368C46.1 10.383 36.05 2.16 23.65 2.16"/>
        <g transform="translate(0 .14)">
            <mask id="b" fill="#fff">
                <use xlink:href="#a"/>
            </mask>
            <path fill="#161112" d="M38.765 32.449c-3.83 3.136-9.18 5.109-15.115 5.108a25.59 25.59 0 0 1-7.936-1.246 1.202 1.202 0 0 0-1.01.123l-3.034 1.901-2.277 1.426.134-2.682.155-3.09a1.207 1.207 0 0 0-.478-1.02c-4.232-3.182-6.804-7.654-6.805-12.58.002-4.665 2.303-8.917 6.136-12.06 3.831-3.137 9.181-5.11 15.115-5.109 5.935-.002 11.285 1.972 15.115 5.109 3.834 3.143 6.135 7.395 6.136 12.06-.001 4.664-2.302 8.917-6.136 12.06m1.52-25.978C35.99 2.959 30.115.821 23.65.821c-6.465 0-12.34 2.138-16.635 5.65C2.725 9.976-.002 14.908 0 20.388c0 5.58 2.829 10.58 7.254 14.1l-.124 2.47-.248 4.982a1.198 1.198 0 1 0 1.835 1.077l4.227-2.647 2.584-1.619a28.01 28.01 0 0 0 8.122 1.206c6.466-.002 12.34-2.14 16.635-5.65 4.291-3.506 7.017-8.438 7.016-13.919.001-5.48-2.725-10.412-7.016-13.917" mask="url(#b)"/>
        </g>
        <path fill="#161112" d="M13.66 17.86a2.997 2.997 0 0 0-2.993 2.993 2.996 2.996 0 0 0 2.993 2.993 2.996 2.996 0 0 0 2.994-2.993 2.997 2.997 0 0 0-2.994-2.994M23.65 17.86a2.997 2.997 0 0 0-2.993 2.993 2.996 2.996 0 0 0 2.993 2.993 2.996 2.996 0 0 0 2.994-2.993 2.997 2.997 0 0 0-2.994-2.994M33.64 17.86a2.997 2.997 0 0 0-2.993 2.993 2.996 2.996 0 0 0 2.993 2.993 2.996 2.996 0 0 0 2.994-2.993 2.997 2.997 0 0 0-2.994-2.994"/>
    </g>
</svg>
