<svg xmlns="http://www.w3.org/2000/svg" xmlns:xlink="http://www.w3.org/1999/xlink" width="48" height="48" viewBox="0 0 48 48">
    <defs>
        <path id="a" d="M.255.066h6.687v10.341H.254z"/>
        <path id="c" d="M0 .122h16.878V17H0z"/>
    </defs>
    <g fill="none" fill-rule="evenodd">
        <path fill="#000" d="M26.025 20.767v3.585h1.899c1.392 0 2.087-.575 2.087-1.726v-.24c0-.554-.167-.96-.501-1.224-.335-.264-.814-.395-1.438-.395h-2.047zm-1.324-1.15h3.444c.543 0 1.015.068 1.415.207.4.138.732.33.995.575.262.245.458.537.587.876.129.34.194.705.194 1.097v.281c0 .393-.07.76-.207 1.104-.138.343-.34.644-.607.903a2.913 2.913 0 0 1-.995.615c-.395.152-.856.227-1.38.227h-2.122v3.76H24.7v-9.645z"/>
        <path fill="#333" d="M36.846 25.93h-1.833c-.508 0-.872.099-1.09.295-.219.197-.327.468-.327.816v.187c0 .357.124.616.374.776.25.16.548.24.896.24.321 0 .6-.037.836-.112.236-.076.453-.19.65-.342.177-.133.304-.287.38-.461.076-.174.114-.4.114-.676v-.722zm-2.114 3.439c-.74 0-1.326-.183-1.759-.548-.432-.366-.648-.87-.648-1.512v-.361c0-.624.21-1.133.628-1.525.42-.393 1.097-.59 2.034-.59h1.86v-.427c0-.491-.12-.854-.355-1.09-.237-.237-.623-.355-1.158-.355-.428 0-.8.067-1.117.2a6.217 6.217 0 0 0-.983.536l-.642-.963c.357-.25.758-.466 1.204-.65.446-.182.963-.273 1.551-.273.411 0 .785.05 1.124.154.34.102.631.254.876.454.246.2.437.447.576.736.138.29.207.618.207.984v5.123h-1.244v-.883h-.014a1.385 1.385 0 0 1-.287.368c-.12.11-.252.207-.395.288a2.757 2.757 0 0 1-.635.247 3.37 3.37 0 0 1-.823.087z"/>
        <g transform="translate(39 21.878)">
            <mask id="b" fill="#fff">
                <use xlink:href="#a"/>
            </mask>
            <path fill="#333" d="M3.651 5.912L5.577.066h1.365L3.143 10.407l-1.176-.415.95-2.501L.255.066h1.404l1.94 5.846z" mask="url(#b)"/>
        </g>
        <g transform="translate(3 15.878)">
            <mask id="d" fill="#fff">
                <use xlink:href="#c"/>
            </mask>
            <path fill="#000" d="M12.658 12.424H9.781l-2.723-4v4H4.22V4.697H7.1l2.722 4v-4h2.837v7.727zM0 17h16.878V.122H0V17z" mask="url(#d)"/>
        </g>
    </g>
</svg>
