<?xml version="1.0" encoding="UTF-8"?>
<svg width="48px" height="44px" viewBox="0 0 48 44" version="1.1" xmlns="http://www.w3.org/2000/svg" xmlns:xlink="http://www.w3.org/1999/xlink">
    <!-- Generator: sketchtool 54.1 (76490) - https://sketchapp.com -->
    <title>4831D623-6182-4D93-A542-BEC4B2268893</title>
    <desc>Created with sketchtool.</desc>
    <defs>
        <polygon id="path-1" points="0.000382986578 0.820416 47.30016 0.820416 47.30016 43.2 0.000382986578 43.2"></polygon>
    </defs>
    <g id="M" stroke="none" stroke-width="1" fill="none" fill-rule="evenodd">
        <g id="M_03.2_REVIEW_02(empty_btn)" transform="translate(-681.000000, -1389.000000)">
            <g id="+-CONTENTS" transform="translate(318.000000, 738.000000)">
                <g id="BTN/H40/Primary/Normal" transform="translate(0.000000, 612.000000)">
                    <g id="icon" transform="translate(363.000000, 39.000000)">
                        <path d="M23.650272,2.16 C11.250912,2.16 1.199712,10.38336 1.199712,20.52864 C1.199712,25.88832 4.007712,30.7104 8.483232,34.06848 L8.328672,37.15872 L8.080032,42.14016 L12.306912,39.49248 L15.341472,37.59168 C17.912352,38.43072 20.713632,38.89728 23.650272,38.89728 C36.049632,38.89728 46.100832,30.67296 46.100832,20.52864 C46.100832,10.38336 36.049632,2.16 23.650272,2.16" id="Fill-1" fill="#FEFEFE"></path>
                        <g id="Group-5" transform="translate(0.000000, 0.139872)">
                            <mask id="mask-2" fill="white">
                                <use xlink:href="#path-1"></use>
                            </mask>
                            <g id="Clip-4"></g>
                            <path d="M38.765184,32.448576 C34.934784,35.584896 29.584704,37.557696 23.649984,37.556736 C20.841024,37.556736 18.164544,37.110336 15.713664,36.310656 C15.375744,36.200256 15.006144,36.246336 14.704704,36.434496 L11.670144,38.335296 L9.393024,39.760896 L9.527424,37.078656 L9.681984,33.988416 C9.701184,33.591936 9.520704,33.206976 9.203904,32.968896 C4.972224,29.787456 2.400384,25.314816 2.399424,20.388096 C2.401344,15.724416 4.701504,11.471616 8.534784,8.328576 C12.366144,5.192256 17.716224,3.218496 23.649984,3.220416 C29.584704,3.218496 34.934784,5.192256 38.765184,8.328576 C42.599424,11.471616 44.899584,15.724416 44.900544,20.388096 C44.899584,25.052736 42.599424,29.305536 38.765184,32.448576 M40.284864,6.470976 C35.989824,2.959296 30.115584,0.821376 23.649984,0.820416 C17.185344,0.821376 11.310144,2.959296 7.015104,6.470976 C2.724864,9.975936 -0.001536,14.908416 0.000384,20.388096 C-0.000576,25.968576 2.828544,30.968256 7.254144,34.487616 L7.130304,36.958656 L6.881664,41.940096 C6.858624,42.387456 7.086144,42.807936 7.472064,43.034496 C7.858944,43.262016 8.337024,43.254336 8.716224,43.017216 L12.944064,40.369536 L15.528384,38.750976 C18.065664,39.518976 20.794944,39.956736 23.649984,39.956736 C30.115584,39.954816 35.989824,37.817856 40.284864,34.306176 C44.576064,30.801216 47.302464,25.868736 47.300544,20.388096 C47.302464,14.908416 44.576064,9.975936 40.284864,6.470976" id="Fill-3" fill="#161112" mask="url(#mask-2)"></path>
                        </g>
                        <path d="M13.66032,17.85936 C12.01008,17.85936 10.66704,19.2024 10.66704,20.85264 C10.66704,22.50384 12.01008,23.84592 13.66032,23.84592 C15.31056,23.84592 16.6536,22.50384 16.6536,20.85264 C16.6536,19.2024 15.31056,17.85936 13.66032,17.85936" id="Fill-6" fill="#161112"></path>
                        <path d="M23.650272,17.85936 C22.000032,17.85936 20.656992,19.2024 20.656992,20.85264 C20.656992,22.50384 22.000032,23.84592 23.650272,23.84592 C25.300512,23.84592 26.643552,22.50384 26.643552,20.85264 C26.643552,19.2024 25.300512,17.85936 23.650272,17.85936" id="Fill-8" fill="#161112"></path>
                        <path d="M33.64032,17.85936 C31.99008,17.85936 30.64704,19.2024 30.64704,20.85264 C30.64704,22.50384 31.99008,23.84592 33.64032,23.84592 C35.29056,23.84592 36.6336,22.50384 36.6336,20.85264 C36.6336,19.2024 35.29056,17.85936 33.64032,17.85936" id="Fill-10" fill="#161112"></path>
                    </g>
                </g>
            </g>
        </g>
    </g>
</svg>