<?xml version="1.0" encoding="UTF-8"?>
<svg width="19px" height="19px" viewBox="0 0 19 19" version="1.1" xmlns="http://www.w3.org/2000/svg" xmlns:xlink="http://www.w3.org/1999/xlink">
    <!-- Generator: Sketch 54.1 (76490) - https://sketchapp.com -->
    <title>Fill 1</title>
    <desc>Created with Sketch.</desc>
    <g id="M" stroke="none" stroke-width="1" fill="none" fill-rule="evenodd">
        <g id="08_mob_mypage_review-(edit)" transform="translate(-20.000000, -740.000000)" fill="#666666">
            <g id="Con" transform="translate(20.000000, 161.000000)">
                <g id="정보" transform="translate(0.000000, 578.000000)">
                    <path d="M0.93084436,10.5 C0.93084436,15.2248924 4.77494224,19.0685231 9.5,19.0685231 C14.2250578,19.0685231 18.0691556,15.2248924 18.0691556,10.5 C18.0691556,5.77544019 14.2250578,1.93147688 9.5,1.93147688 C4.77494224,1.93147688 0.93084436,5.77544019 0.93084436,10.5 Z M0,10.5 C0,5.26198061 4.26179724,1 9.5,1 C14.7382028,1 19,5.26198061 19,10.5 C19,15.7383519 14.7382028,20 9.5,20 C4.26179724,20 0,15.7383519 0,10.5 Z M9.00115522,14.7398992 C9.00115522,15.0152519 9.22430512,15.2387265 9.5,15.2387265 C9.77569488,15.2387265 9.99884478,15.0152519 9.99884478,14.7398992 L9.99884478,9.23218049 C9.99884478,8.95682781 9.77569488,8.73335317 9.5,8.73335317 C9.22430512,8.73335317 9.00115522,8.95682781 9.00115522,9.23218049 L9.00115522,14.7398992 Z M9.50003326,7.7080635 C9.83991283,7.7080635 10.1156077,7.43204572 10.1156077,7.09217804 C10.1156077,6.75264291 9.83991283,6.47662513 9.50003326,6.47662513 C9.15982112,6.47662513 8.8844588,6.75264291 8.8844588,7.09217804 C8.8844588,7.43204572 9.15982112,7.7080635 9.50003326,7.7080635 Z" id="Fill-1"></path>
                </g>
            </g>
        </g>
    </g>
</svg>