<svg xmlns="http://www.w3.org/2000/svg" width="24" height="24" viewBox="0 0 24 24">
    <g fill="none" fill-rule="evenodd">
        <path d="M0 0h24v24H0z"/>
        <path fill="#00D664" d="M18.926 10.43c.331 0 .6.244.6.544 0 .3-.269.544-.6.544h-1.673v.973h1.673c.33 0 .6.244.6.544 0 .3-.27.544-.6.544h-2.273c-.331 0-.6-.244-.6-.544V8.912c0-.3.269-.544.6-.544h2.273c.331 0 .6.244.6.544 0 .3-.269.544-.6.544h-1.673v.974h1.673zm-3.452 2.605c0 .235-.166.442-.413.516a.66.66 0 0 1-.19.028.63.63 0 0 1-.482-.218l-2.341-2.876v2.55c0 .3-.27.544-.603.544-.333 0-.603-.244-.603-.544V8.913c0-.235.166-.442.412-.516a.662.662 0 0 1 .191-.029c.189 0 .369.082.482.218l2.341 2.877v-2.55c0-.3.27-.544.603-.544.332 0 .603.244.603.544v4.122zm-5.21 0c0 .3-.26.544-.58.544-.32 0-.579-.244-.579-.544V8.912c0-.3.26-.544.58-.544.319 0 .578.244.578.544v4.123zm-2.338.544H5.653c-.331 0-.6-.244-.6-.544V8.912c0-.3.269-.544.6-.544.33 0 .6.244.6.544v3.579h1.673c.331 0 .6.244.6.544 0 .3-.269.544-.6.544zM23 10.875C23 5.982 18.065 2 12 2S1 5.982 1 10.875c0 4.388 3.913 8.062 9.2 8.757.358.077.845.235.968.54.112.276.073.709.036.988 0 0-.128.772-.157.937-.048.276-.221 1.081.953.59 1.174-.492 6.335-3.71 8.642-6.35C22.236 14.597 23 12.833 23 10.874z"/>
    </g>
</svg>
