<svg xmlns="http://www.w3.org/2000/svg" xmlns:xlink="http://www.w3.org/1999/xlink" width="24" height="24" viewBox="0 0 24 24">
    <defs>
        <path id="a" d="M0 11.965c0 6.554 5.344 11.866 11.935 11.866 6.592 0 11.936-5.312 11.936-11.866C23.87 5.412 18.527.1 11.935.1 5.344.1 0 5.412 0 11.965"/>
        <path id="c" d="M0 11.965c0 6.554 5.344 11.866 11.935 11.866 6.592 0 11.936-5.312 11.936-11.866C23.87 5.412 18.527.1 11.935.1 5.344.1 0 5.412 0 11.965z"/>
        <path id="e" d="M0 11.965c0 6.554 5.344 11.866 11.935 11.866 6.592 0 11.936-5.312 11.936-11.866C23.87 5.412 18.527.1 11.935.1 5.344.1 0 5.412 0 11.965"/>
        <path id="g" d="M0 11.965c0 6.554 5.344 11.866 11.935 11.866 6.592 0 11.936-5.312 11.936-11.866C23.87 5.412 18.527.1 11.935.1 5.344.1 0 5.412 0 11.965"/>
        <path id="i" d="M0 11.965c0 6.554 5.344 11.866 11.935 11.866 6.592 0 11.936-5.312 11.936-11.866C23.87 5.412 18.527.1 11.935.1 5.344.1 0 5.412 0 11.965"/>
        <path id="k" d="M0 11.965c0 6.554 5.344 11.866 11.935 11.866 6.592 0 11.936-5.312 11.936-11.866C23.87 5.412 18.527.1 11.935.1 5.344.1 0 5.412 0 11.965"/>
        <path id="m" d="M0 11.965c0 6.554 5.344 11.866 11.935 11.866 6.592 0 11.936-5.312 11.936-11.866C23.87 5.412 18.527.1 11.935.1 5.344.1 0 5.412 0 11.965"/>
        <path id="o" d="M0 11.965c0 6.554 5.344 11.866 11.935 11.866 6.592 0 11.936-5.312 11.936-11.866C23.87 5.412 18.527.1 11.935.1 5.344.1 0 5.412 0 11.965"/>
        <path id="q" d="M0 11.965c0 6.554 5.344 11.866 11.935 11.866 6.592 0 11.936-5.312 11.936-11.866C23.87 5.412 18.527.1 11.935.1 5.344.1 0 5.412 0 11.965"/>
        <path id="s" d="M0 11.965c0 6.554 5.344 11.866 11.935 11.866 6.592 0 11.936-5.312 11.936-11.866C23.87 5.412 18.527.1 11.935.1 5.344.1 0 5.412 0 11.965"/>
        <path id="u" d="M0 11.965c0 6.554 5.344 11.866 11.935 11.866 6.592 0 11.936-5.312 11.936-11.866C23.87 5.412 18.527.1 11.935.1 5.344.1 0 5.412 0 11.965z"/>
        <path id="w" d="M0 11.965c0 6.554 5.344 11.866 11.935 11.866 6.592 0 11.936-5.312 11.936-11.866C23.87 5.412 18.527.1 11.935.1 5.344.1 0 5.412 0 11.965"/>
        <path id="y" d="M0 11.965c0 6.554 5.344 11.866 11.935 11.866 6.592 0 11.936-5.312 11.936-11.866C23.87 5.412 18.527.1 11.935.1 5.344.1 0 5.412 0 11.965"/>
        <path id="A" d="M0 11.965c0 6.554 5.344 11.866 11.935 11.866 6.592 0 11.936-5.312 11.936-11.866C23.87 5.412 18.527.1 11.935.1 5.344.1 0 5.412 0 11.965"/>
        <path id="C" d="M0 11.96c0 6.55 5.341 11.86 11.93 11.86 6.589 0 11.93-5.31 11.93-11.86S18.519.1 11.93.1C5.34.1 0 5.41 0 11.96"/>
    </defs>
    <g fill="none" fill-rule="evenodd">
        <path fill="#FFCA05" d="M11.935.13C5.344.13 0 5.441 0 11.994c0 6.554 5.344 11.866 11.935 11.866 6.592 0 11.936-5.312 11.936-11.866C23.87 5.442 18.527.13 11.935.13"/>
        <g transform="translate(0 .03)">
            <mask id="b" fill="#fff">
                <use xlink:href="#a"/>
            </mask>
            <path fill="#A76651" d="M14.192 22.46s.264 4.273 2.207 4.237c1.612-.03 2.128-1.548 1.632-3.844-.528-2.446-1.977-3.863-1.977-3.863s-.767-.441-1.409.585c-.666 1.067-.453 2.885-.453 2.885" mask="url(#b)"/>
        </g>
        <g transform="translate(0 .03)">
            <mask id="d" fill="#fff">
                <use xlink:href="#c"/>
            </mask>
            <path fill="#161112" d="M16.373 26.857c-2.048 0-2.33-4.207-2.342-4.387a.16.16 0 0 1 .151-.17.162.162 0 0 1 .171.15c.003.041.274 4.086 2.021 4.086h.022c.527-.01.935-.191 1.213-.539.475-.596.569-1.7.264-3.11-.51-2.366-1.918-3.769-1.932-3.783a.16.16 0 0 1-.001-.227.162.162 0 0 1 .228-.001c.06.059 1.489 1.479 2.021 3.944.33 1.527.217 2.695-.327 3.377-.34.426-.832.648-1.46.66h-.029z" mask="url(#d)"/>
        </g>
        <g transform="translate(0 .03)">
            <mask id="f" fill="#fff">
                <use xlink:href="#e"/>
            </mask>
            <path fill="#A76651" d="M9.678 22.46s-.263 4.273-2.206 4.237c-1.612-.03-2.128-1.548-1.633-3.844.528-2.446 1.977-3.863 1.977-3.863s.768-.441 1.41.585c.666 1.067.452 2.885.452 2.885" mask="url(#f)"/>
        </g>
        <g transform="translate(0 .03)">
            <mask id="h" fill="#fff">
                <use xlink:href="#g"/>
            </mask>
            <path fill="#161112" d="M7.497 26.857H7.47c-.629-.012-1.12-.234-1.46-.66-.544-.682-.657-1.85-.328-3.377.533-2.465 1.961-3.885 2.022-3.944a.162.162 0 0 1 .228.001.16.16 0 0 1-.002.227c-.014.014-1.42 1.417-1.932 3.783-.304 1.41-.21 2.515.265 3.11.277.348.685.53 1.213.54h.021c1.748 0 2.019-4.046 2.021-4.087a.162.162 0 0 1 .323.02c-.012.18-.295 4.387-2.343 4.387" mask="url(#h)"/>
        </g>
        <g transform="translate(0 .03)">
            <mask id="j" fill="#fff">
                <use xlink:href="#i"/>
            </mask>
            <path fill="#A76651" d="M16.03 30.62c.544-3.458.14-9.035.14-9.035l-.592-2.795H8.143l-.442 2.795s-.404 5.577.14 9.035c0 0-.57.566-.35 1.375.221.808 1.216.914 2.125.914 1.022 0 2.32-.536 2.32-1.671 0 1.135 1.296 1.671 2.319 1.671.908 0 1.904-.106 2.124-.914.22-.809-.349-1.375-.349-1.375" mask="url(#j)"/>
        </g>
        <g transform="translate(0 .03)">
            <mask id="l" fill="#fff">
                <use xlink:href="#k"/>
            </mask>
            <path fill="#161112" d="M9.616 33.07c-.93 0-2.03-.118-2.28-1.033-.201-.737.182-1.286.333-1.467-.522-3.442-.133-8.941-.129-8.997a.162.162 0 0 1 .173-.148.161.161 0 0 1 .15.171c-.005.056-.397 5.6.137 9a.16.16 0 0 1-.046.137c-.02.02-.499.515-.306 1.22.19.701 1.102.796 1.968.796.896 0 2.158-.469 2.158-1.511v-3.835c0-.089.072-.16.161-.16.09 0 .162.071.162.16v3.835c0 1.19-1.279 1.832-2.481 1.832" mask="url(#l)"/>
        </g>
        <g transform="translate(0 .03)">
            <mask id="n" fill="#fff">
                <use xlink:href="#m"/>
            </mask>
            <path fill="#161112" d="M14.255 33.07c-1.203 0-2.481-.642-2.481-1.832v-3.835a.161.161 0 1 1 .323 0v3.835c0 1.042 1.262 1.51 2.158 1.51.866 0 1.777-.094 1.968-.795.194-.71-.302-1.215-.307-1.22a.16.16 0 0 1-.045-.138c.534-3.4.141-8.943.137-8.999a.16.16 0 0 1 .15-.171c.089-.005.166.06.172.148.004.056.394 5.555-.129 8.997.152.18.535.73.334 1.467-.25.915-1.35 1.033-2.28 1.033" mask="url(#n)"/>
        </g>
        <g transform="translate(0 .03)">
            <mask id="p" fill="#fff">
                <use xlink:href="#o"/>
            </mask>
            <path fill="#A76651" d="M17.703 8.021c.12-.35.313-1.044.064-1.794a1.862 1.862 0 0 0-2.09-1.232c-.93.152-1.333.852-1.535 1.321-.681-.118-1.114-.188-2.204-.204-1.09.015-1.523.085-2.204.202-.202-.47-.604-1.17-1.535-1.322a1.862 1.862 0 0 0-2.09 1.23c-.25.751-.057 1.445.063 1.795-.601.535-2.7 2.174-2.568 5.516.134 3.375 3.55 6.849 8.32 6.832 4.78.028 8.205-3.447 8.342-6.825.135-3.343-1.963-4.983-2.563-5.519" mask="url(#p)"/>
        </g>
        <g transform="translate(0 .03)">
            <mask id="r" fill="#fff">
                <use xlink:href="#q"/>
            </mask>
            <path fill="#7A4938" d="M16.547 5.828c.789.402.62 1.491.307 1.993 0 0-.328-.266-1.004-.636-.676-.37-1.057-.505-1.057-.505.145-.417.78-1.348 1.754-.852" mask="url(#r)"/>
        </g>
        <g transform="translate(0 .03)">
            <mask id="t" fill="#fff">
                <use xlink:href="#s"/>
            </mask>
            <path fill="#7A4938" d="M7.324 5.828c-.79.402-.62 1.491-.308 1.993 0 0 .328-.266 1.004-.636.677-.37 1.057-.505 1.057-.505-.145-.417-.78-1.348-1.753-.852" mask="url(#t)"/>
        </g>
        <g transform="translate(0 .03)">
            <mask id="v" fill="#fff">
                <use xlink:href="#u"/>
            </mask>
            <path fill="#161112" d="M11.924 20.205h.056c4.701 0 7.994-3.44 8.125-6.672.125-3.089-1.71-4.693-2.401-5.296l-.11-.096a.16.16 0 0 1-.044-.172c.211-.614.233-1.183.064-1.692a1.7 1.7 0 0 0-1.91-1.124c-.642.105-1.104.506-1.414 1.227a.162.162 0 0 1-.176.095c-.703-.123-1.119-.187-2.179-.203-1.055.015-1.47.08-2.173.2a.162.162 0 0 1-.176-.095c-.31-.72-.772-1.122-1.413-1.227a1.701 1.701 0 0 0-1.911 1.123c-.169.508-.148 1.077.063 1.692a.16.16 0 0 1-.045.171l-.11.096c-.691.604-2.527 2.207-2.404 5.295.128 3.23 3.422 6.678 8.125 6.678h.033zm.056.321h-.09c-2.246 0-4.366-.775-5.971-2.184-1.505-1.322-2.407-3.072-2.476-4.803-.129-3.24 1.791-4.917 2.514-5.548l.029-.025c-.202-.644-.213-1.247-.03-1.794.312-.94 1.267-1.502 2.27-1.338.721.118 1.248.544 1.604 1.3.632-.107 1.089-.168 2.106-.182 1.02.014 1.478.076 2.11.185.356-.757.882-1.183 1.606-1.3 1.002-.165 1.957.399 2.269 1.34.181.547.17 1.15-.032 1.794l.028.024c.722.632 2.641 2.31 2.51 5.551-.07 1.732-.975 3.484-2.484 4.804-1.604 1.404-3.72 2.176-5.963 2.176z" mask="url(#v)"/>
        </g>
        <g transform="translate(0 .03)">
            <mask id="x" fill="#fff">
                <use xlink:href="#w"/>
            </mask>
            <path fill="#FCD5B4" d="M13.698 15.498c0 1.189-.79 2.153-1.763 2.153-.973 0-1.762-.964-1.762-2.153s.79-2.152 1.762-2.152c.974 0 1.763.963 1.763 2.152" mask="url(#x)"/>
        </g>
        <g transform="translate(0 .03)">
            <mask id="z" fill="#fff">
                <use xlink:href="#y"/>
            </mask>
            <path fill="#161112" d="M11.415 16.8a.16.16 0 0 1-.149-.223l.508-1.215v-1.006a.16.16 0 0 1 .162-.16c.089 0 .161.071.161.16v.98l.618.758a.16.16 0 0 1-.024.226.162.162 0 0 1-.227-.024l-.483-.592-.417.996a.161.161 0 0 1-.149.1" mask="url(#z)"/>
        </g>
        <g transform="translate(0 .03)">
            <mask id="B" fill="#fff">
                <use xlink:href="#A"/>
            </mask>
            <path fill="#161112" d="M11.935 14.688c-.32 0-.707-.563-.654-.788.054-.226.4-.222.654-.222.255 0 .601-.004.655.222.053.225-.334.788-.655.788" mask="url(#B)"/>
        </g>
        <g transform="translate(0 .03)">
            <mask id="D" fill="#fff">
                <use xlink:href="#C"/>
            </mask>
            <path fill="#161112" d="M13.516 12.756a.554.554 0 0 1-.556.552.554.554 0 0 1-.555-.552c0-.305.248-.552.555-.552.307 0 .556.247.556.552" mask="url(#D)"/>
        </g>
        <path fill="#161112" d="M11.466 12.786a.554.554 0 0 1-.555.552.554.554 0 0 1-.556-.552c0-.306.249-.553.556-.553.307 0 .555.247.555.553"/>
    </g>
</svg>
