<?xml version="1.0" encoding="UTF-8"?>
<svg width="14px" height="14px" viewBox="0 0 14 14" version="1.1" xmlns="http://www.w3.org/2000/svg" xmlns:xlink="http://www.w3.org/1999/xlink">
    <!-- Generator: sketchtool 54.1 (76490) - https://sketchapp.com -->
    <title>698F7C85-D0BF-4F5A-B056-4F15FAF44457</title>
    <desc>Created with sketchtool.</desc>
    <g id="ETC" stroke="none" stroke-width="1" fill="none" fill-rule="evenodd">
        <g id="02.1_STORE_01" transform="translate(-370.000000, -1196.000000)" fill="#878B8F">
            <g id="Icon/call" transform="translate(369.999954, 1196.000000)">
                <path d="M3.14495979,1.05178307 C2.91442645,1.06158307 2.69649312,1.15864973 2.53455979,1.32338307 L1.55455979,2.30058307 C1.27829312,2.5647164 1.10935979,2.92124973 1.08042645,3.30204973 C1.05662645,3.94838307 1.17329312,4.5919164 1.42295979,5.1883164 C1.92135979,6.46698307 2.63955979,7.64858307 3.54535979,8.6799164 C4.74049312,10.0990497 6.22495979,11.2470497 7.89935979,12.0473831 C8.63109312,12.4230497 9.42675979,12.6573164 10.2448265,12.7380497 L10.3932265,12.7380497 C10.8496265,12.7534497 11.2915598,12.5779831 11.6135598,12.2545831 L11.6135598,12.2471164 L11.6653598,12.1967164 C11.8230931,12.0165831 11.9906265,11.8448497 12.1665598,11.6824497 L12.2029598,11.6483831 C12.3242931,11.5331164 12.4456265,11.4164497 12.5641598,11.2932497 C12.7363598,11.1313164 12.8390265,10.9091831 12.8516265,10.6725831 C12.8404265,10.4415831 12.7382265,10.2245831 12.5655598,10.0696497 L10.9681598,8.48298307 C10.6909598,8.15304973 10.1986265,8.11058307 9.86869312,8.38778307 C9.83275979,8.4181164 9.79962645,8.4517164 9.76975979,8.48764973 L8.57135979,9.6683164 L8.00389312,9.36964973 C7.88722645,9.31178307 7.77709312,9.25624973 7.68189312,9.19838307 C6.72662645,8.58704973 5.87729312,7.82358307 5.16749312,6.93924973 C4.82822645,6.53184973 4.54122645,6.08338307 4.31349312,5.60458307 L4.15295979,5.25364973 L4.44042645,4.99324973 C4.64575979,4.80658307 4.83709312,4.6199164 5.02375979,4.43324973 L5.33735979,4.11964973 C5.67569312,3.8569164 5.73729312,3.3697164 5.47455979,3.03138307 C5.43489312,2.98004973 5.38869312,2.9343164 5.33735979,2.89418307 L4.54775979,2.1139164 C4.44602645,2.0131164 4.35362645,1.92164973 4.26775979,1.8339164 C4.10629312,1.6687164 3.93175979,1.4923164 3.75069312,1.32804973 C3.59435979,1.1577164 3.37549312,1.05784973 3.14402645,1.05178307 L3.14495979,1.05178307 Z M10.3880931,13.8076497 C10.3222931,13.8076497 10.2504265,13.8076497 10.1794931,13.8011164 C9.22142645,13.7119831 8.28809312,13.4427164 7.42989312,13.0082497 C5.61689312,12.1435164 4.00969312,10.9026497 2.71469312,9.36778307 C1.73002645,8.2445164 0.949759788,6.95698307 0.409359788,5.56444973 C0.103693121,4.82104973 -0.0339735454,4.01884973 0.00709312127,3.21618307 C0.0570264546,2.5857164 0.335626455,1.9949164 0.790159788,1.55484973 L1.77202645,0.576716398 C2.50329312,-0.176483602 3.70729312,-0.194216935 4.46049312,0.537049732 C4.47075979,0.547316398 4.48055979,0.557116398 4.49082645,0.567383065 C4.67749312,0.732583065 4.86415979,0.922983065 5.04335979,1.10684973 C5.12829312,1.20018307 5.21322645,1.28044973 5.29535979,1.36164973 L6.09615979,2.15218307 C6.84982645,2.8265164 6.91375979,3.9843164 6.23942645,4.73798307 C6.19415979,4.78838307 6.14655979,4.83598307 6.09615979,4.88124973 L5.78815979,5.18924973 C5.68175979,5.29564973 5.57349312,5.4039164 5.46242645,5.51218307 C5.62295979,5.78424973 5.80402645,6.04324973 6.00469312,6.28684973 C6.63889312,7.0797164 7.39815979,7.76338307 8.25215979,8.31218307 C8.28762645,8.3327164 8.32729312,8.35418307 8.37069312,8.37658307 L9.00722645,7.74938307 C9.72402645,6.9971164 10.9149598,6.96818307 11.6676931,7.6845164 C11.6914931,7.7083164 11.7157598,7.7321164 11.7390931,7.75684973 L13.3252931,9.32858307 C13.7037598,9.67858307 13.9216931,10.1685831 13.9272931,10.6837831 C13.9193598,11.1961831 13.7084265,11.6843164 13.3406931,12.0408497 C13.2109598,12.1743164 13.0784265,12.3021831 12.9486931,12.4258497 L12.9141598,12.4580497 C12.7704265,12.5943164 12.6341598,12.7249831 12.5202931,12.8556497 L12.4549598,12.9321831 C11.9243598,13.5085164 11.1711598,13.8272497 10.3880931,13.8076497 L10.3880931,13.8076497 Z"></path>
            </g>
        </g>
    </g>
</svg>