<svg xmlns="http://www.w3.org/2000/svg" width="34" height="23" viewBox="0 0 34 23">
    <g fill="none" fill-rule="evenodd" stroke="#333" stroke-linecap="round" stroke-linejoin="round" stroke-width="1.5">
        <path d="M24.06 19.4h-5.233V5.297h8.407c.38 0 .747.149 1.015.413l4.437 4.386c.263.26.412.613.412.98v6.93c0 .77-.64 1.394-1.427 1.394h-1.797M9.79 19.4c0 1.558-1.293 2.821-2.888 2.821s-2.888-1.263-2.888-2.82c0-1.559 1.293-2.821 2.888-2.821S9.79 17.842 9.79 19.4z"/>
        <path d="M29.836 19.4c0 1.558-1.293 2.821-2.888 2.821s-2.888-1.263-2.888-2.82c0-1.559 1.293-2.821 2.888-2.821s2.888 1.262 2.888 2.82zM.75 16.133v-11.6c0-1.54 1.278-2.789 2.854-2.789h12.369c1.575 0 2.853 1.248 2.853 2.788V19.4H9.79M4.013 19.4H.75v-3.267"/>
    </g>
</svg>
