<?xml version="1.0" encoding="UTF-8"?>
<svg width="13px" height="17px" viewBox="0 0 13 17" version="1.1" xmlns="http://www.w3.org/2000/svg" xmlns:xlink="http://www.w3.org/1999/xlink">
    <!-- Generator: sketchtool 54.1 (76490) - https://sketchapp.com -->
    <title>87CD3AB9-B5D4-4FD1-A2BC-BACC7086E8E0</title>
    <desc>Created with sketchtool.</desc>
    <g id="ETC" stroke="none" stroke-width="1" fill="none" fill-rule="evenodd">
        <g id="02.1_STORE_01" transform="translate(-371.000000, -1142.000000)" fill="#878B8F">
            <g id="Icon/place" transform="translate(371.000000, 1142.000000)">
                <path d="M6.49433441,4.76835185 C5.58361218,4.7645 4.8421307,5.49996296 4.83851959,6.41068519 C4.83466774,7.32140741 5.5701307,8.06288889 6.48085293,8.0665 C7.39157515,8.07011111 8.13281589,7.33488889 8.13666774,6.42416667 L8.13666774,6.41983333 C8.13811218,5.5107963 7.40385293,4.7722037 6.49481589,4.76835185 L6.49433441,4.76835185 Z M6.49433441,9.18353704 C4.96659367,9.18859259 3.7241307,7.95407407 3.71907515,6.42657407 C3.71401959,4.89883333 4.94829737,3.65637037 6.47603811,3.65131481 C8.00377885,3.64625926 9.24624181,4.88053704 9.25129737,6.40827778 L9.25129737,6.41983333 C9.25057515,7.943 8.01798256,9.17872222 6.49481589,9.18353704 L6.49433441,9.18353704 Z M6.49433441,1.09946296 C3.4966307,1.09055556 1.04733441,3.49001852 0.994371444,6.48724074 C1.03890848,7.5647963 1.34826033,8.61490741 1.89474181,9.54464815 C3.42585293,12.2361296 5.61274181,14.5665 6.44955663,15.5725556 C8.29266774,13.6812963 9.89287144,11.5673519 11.2128529,9.27983333 C11.7005937,8.34768519 11.9817789,7.32116667 12.0371492,6.27057407 C12.0371492,3.29501852 9.46218626,1.09946296 6.49481589,1.09946296 L6.49433441,1.09946296 Z M6.51744552,16.8195926 C6.36481589,16.822963 6.21796404,16.7618148 6.11300107,16.6513148 C4.10401959,14.7056481 2.36033441,12.5040741 0.926482555,10.1029259 C0.312112185,9.00081481 -0.00686929677,7.75859259 0.000112184712,6.49687037 C0.000112184712,2.90862963 2.90874181,7.10542736e-15 6.49698256,7.10542736e-15 C10.0852233,7.10542736e-15 12.9938529,2.90862963 12.9938529,6.49687037 C13.0042048,7.64953704 12.7307233,8.78727778 12.197964,9.80946296 C10.3254826,13.3002037 7.02348256,16.5116852 6.88385293,16.6462593 C6.79020478,16.751463 6.65803811,16.8140556 6.51744552,16.8195926 L6.51744552,16.8195926 Z"></path>
            </g>
        </g>
    </g>
</svg>