<svg xmlns="http://www.w3.org/2000/svg" width="30" height="29" viewBox="0 0 30 29">
    <g fill="none" fill-rule="evenodd">
        <path stroke="#333" stroke-linecap="round" stroke-linejoin="round" stroke-width="1.5" d="M6.627 23.81c-2.709-.11-4.89-2.32-4.89-5.01V6.747c0-2.757 2.295-5.013 5.101-5.013h16.348c2.806 0 5.101 2.256 5.101 5.013v12.055c0 2.758-2.295 5.013-5.1 5.013h-10.44"/>
        <path stroke="#333" stroke-linecap="round" stroke-linejoin="round" stroke-width="1.5" d="M6.668 23.814v4.41l6.12-4.41"/>
        <path fill="#333" d="M10.786 12.774c0 .643-.53 1.164-1.184 1.164-.654 0-1.184-.521-1.184-1.164 0-.643.53-1.164 1.184-1.164.654 0 1.184.52 1.184 1.164M16.196 12.774c0 .643-.53 1.164-1.184 1.164-.654 0-1.184-.521-1.184-1.164 0-.643.53-1.164 1.184-1.164.654 0 1.184.52 1.184 1.164M21.606 12.774c0 .643-.53 1.164-1.184 1.164-.654 0-1.184-.521-1.184-1.164 0-.643.53-1.164 1.184-1.164.654 0 1.184.52 1.184 1.164"/>
    </g>
</svg>
