<?xml version="1.0" encoding="UTF-8"?>
<svg width="104px" height="16px" viewBox="0 0 104 16" version="1.1" xmlns="http://www.w3.org/2000/svg" xmlns:xlink="http://www.w3.org/1999/xlink">
    <!-- Generator: Sketch 54.1 (76490) - https://sketchapp.com -->
    <title>star</title>
    <desc>Created with Sketch.</desc>
    <g id="PC" stroke="none" stroke-width="1" fill="none" fill-rule="evenodd">
        <g id="03.2_REVIEW_03(list)" transform="translate(-490.000000, -323.000000)">
            <g id="+-CONTENTS" transform="translate(490.000000, 208.000000)">
                <g id="list" transform="translate(0.000000, 91.000000)">
                    <g id="Group-6">
                        <g id="star" transform="translate(0.000000, 24.000000)">
                            <g id="Icon/Star/Off">
                                <rect id="Rectangle" fill="#FFFFFF" opacity="0" x="9.09494702e-13" y="0" width="16" height="16"></rect>
                                <polygon id="Fill-1" fill="#DDDDDD" points="8 8.8817842e-15 5.24456417 4.61856199 0 5.81207107 3.54101725 9.86056058 3.05612212 15.216471 8 13.0998653 12.9438779 15.216471 12.4584696 9.86056058 16 5.81207107 10.7554358 4.61856199"></polygon>
                            </g>
                            <g id="Icon/Star/Off" transform="translate(22.000000, 0.000000)">
                                <rect id="Rectangle" fill="#FFFFFF" opacity="0" x="9.09494702e-13" y="0" width="16" height="16"></rect>
                                <polygon id="Fill-1" fill="#DDDDDD" points="8 8.8817842e-15 5.24456417 4.61856199 0 5.81207107 3.54101725 9.86056058 3.05612212 15.216471 8 13.0998653 12.9438779 15.216471 12.4584696 9.86056058 16 5.81207107 10.7554358 4.61856199"></polygon>
                            </g>
                            <g id="Icon/Star/Off" transform="translate(44.000000, 0.000000)">
                                <rect id="Rectangle" fill="#FFFFFF" opacity="0" x="9.09494702e-13" y="0" width="16" height="16"></rect>
                                <polygon id="Fill-1" fill="#DDDDDD" points="8 8.8817842e-15 5.24456417 4.61856199 0 5.81207107 3.54101725 9.86056058 3.05612212 15.216471 8 13.0998653 12.9438779 15.216471 12.4584696 9.86056058 16 5.81207107 10.7554358 4.61856199"></polygon>
                            </g>
                            <g id="Icon/Star/Off" transform="translate(66.000000, 0.000000)">
                                <rect id="Rectangle" fill="#FFFFFF" opacity="0" x="9.09494702e-13" y="0" width="16" height="16"></rect>
                                <polygon id="Fill-1" fill="#DDDDDD" points="8 8.8817842e-15 5.24456417 4.61856199 0 5.81207107 3.54101725 9.86056058 3.05612212 15.216471 8 13.0998653 12.9438779 15.216471 12.4584696 9.86056058 16 5.81207107 10.7554358 4.61856199"></polygon>
                            </g>
                            <g id="Icon/Star/Off" transform="translate(88.000000, 0.000000)">
                                <rect id="Rectangle" fill="#FFFFFF" opacity="0" x="9.09494702e-13" y="0" width="16" height="16"></rect>
                                <polygon id="Fill-1" fill="#DDDDDD" points="8 8.8817842e-15 5.24456417 4.61856199 0 5.81207107 3.54101725 9.86056058 3.05612212 15.216471 8 13.0998653 12.9438779 15.216471 12.4584696 9.86056058 16 5.81207107 10.7554358 4.61856199"></polygon>
                            </g>
                        </g>
                    </g>
                </g>
            </g>
        </g>
    </g>
</svg>