<?xml version="1.0" encoding="UTF-8"?>
<svg width="14px" height="14px" viewBox="0 0 14 14" version="1.1" xmlns="http://www.w3.org/2000/svg" xmlns:xlink="http://www.w3.org/1999/xlink">
    <!-- Generator: sketchtool 54.1 (76490) - https://sketchapp.com -->
    <title>F2E21D4F-4696-444B-92D6-E1A6948C4BF8</title>
    <desc>Created with sketchtool.</desc>
    <g id="ETC" stroke="none" stroke-width="1" fill="none" fill-rule="evenodd">
        <g id="02.1_STORE_01" transform="translate(-370.000000, -1113.000000)" fill="#878B8F">
            <g id="Icon/store" transform="translate(370.000000, 1113.000000)">
                <path d="M9.37783015,13.0092396 L9.37783015,9.12632589 C9.35933148,7.83936015 8.32115563,6.80058065 7.03524748,6.78181657 C5.72234126,6.7628023 4.64291836,7.81259006 4.62366974,9.12632589 L4.62366974,13.0092396 L1.00042854,13.0092396 L1.00042854,7.00473384 L7.06499536,1.15534444 L12.9453253,6.7995799 L12.9995715,13.0092396 L9.37783015,13.0092396 Z M8.32340547,13.0092396 L5.67859439,13.0092396 L5.67859439,9.12632589 C5.67859439,8.3955275 6.27080209,7.80258255 7.00099993,7.80258255 C7.73144775,7.80258255 8.32340547,8.3955275 8.32340547,9.12632589 L8.32340547,13.0092396 Z M13.7720163,6.14408801 L7.59020784,0.209634778 C7.29197914,-0.0718264311 6.82601243,-0.0695747414 6.53053353,0.214638533 L0.222484108,6.39427575 C0.0802442683,6.53187901 0,6.72177151 0,6.91967001 L0,13.2544236 C0.00299978573,13.6689847 0.340975645,14.0027352 0.754946075,13.9999831 L4.62366974,13.9999831 L5.67859439,13.9999831 L8.32340547,13.9999831 L9.37783015,13.9999831 L13.2453039,13.9999831 C13.6592743,14.0027352 13.9972502,13.6689847 14,13.2544236 L14,6.67448602 C13.9995,6.47383546 13.9172559,6.28219165 13.7720163,6.14408801 L13.7720163,6.14408801 Z" id="Fill-1"></path>
            </g>
        </g>
    </g>
</svg>