<?xml version="1.0" encoding="UTF-8"?>
<svg width="14px" height="14px" viewBox="0 0 14 14" version="1.1" xmlns="http://www.w3.org/2000/svg" xmlns:xlink="http://www.w3.org/1999/xlink">
    <!-- Generator: sketchtool 54.1 (76490) - https://sketchapp.com -->
    <title>EA1228B1-CB04-4B26-98E9-BF4EAC6DF680</title>
    <desc>Created with sketchtool.</desc>
    <g id="ETC" stroke="none" stroke-width="1" fill="none" fill-rule="evenodd">
        <g id="02.1_STORE_01" transform="translate(-370.000000, -1227.000000)" fill="#878B8F">
            <g id="Icon/time" transform="translate(370.000000, 1227.000000)">
                <path d="M6.99818,12.93404 C3.71984667,12.9335733 1.06264667,10.2759067 1.06311333,6.99710667 C1.06358,3.71877333 3.72171333,1.06157333 7.00004667,1.06204 C10.2760467,1.06577333 12.93138,3.72064 12.9351133,6.99710667 L12.9351133,6.99897333 C12.9346467,10.2777733 10.2765133,12.9345067 6.99818,12.93404 M7.00004667,-9.33333333e-05 C3.13418,-9.33333333e-05 4.66666667e-05,3.13404 4.66666667e-05,6.99990667 C4.66666667e-05,10.8657733 3.13418,13.9999067 7.00004667,13.9999067 C10.86358,13.99384 13.9935133,10.86344 14.0000467,6.99990667 C14.0000467,3.13404 10.8659133,-9.33333333e-05 7.00004667,-9.33333333e-05" id="Fill-2"></path>
                <polyline id="Fill-1" points="6.30844667 7.90827333 10.4151133 7.90827333 10.4151133 7.90734 10.4151133 6.83960667 7.37338 6.83960667 7.37338 3.92107333 6.30378 3.92107333"></polyline>
            </g>
        </g>
    </g>
</svg>