<svg xmlns="http://www.w3.org/2000/svg" xmlns:xlink="http://www.w3.org/1999/xlink" width="171" height="172" viewBox="0 0 171 172">
    <defs>
        <path id="a" d="M85 170c46.945 0 85-38.056 85-85S131.945 0 85 0C38.057 0 0 38.056 0 85s38.057 85 85 85z"/>
        <path id="c" d="M0 .216h141.54V85.14H0z"/>
    </defs>
    <g fill="none" fill-rule="evenodd">
        <mask id="b" fill="#fff">
            <use xlink:href="#a"/>
        </mask>
        <use fill="#63BFAA" xlink:href="#a"/>
        <g mask="url(#b)">
            <path fill="#231F20" d="M21 117h128V56H21z"/>
            <path fill="#FEFEFE" d="M63.09 76.552h8.644v27.667h8.081V76.552h8.644V68.78H63.09z"/>
            <g fill="#FEFEFE">
                <path d="M50.975 95.722c0 .484-.377.878-.843.878h-8.018v-6.725h6.968c1.045 0 1.893.885 1.893 1.973v3.874zm-8.861-19.17h7.679c.46 0 .832.388.832.866v3.065c0 1.085-.852 1.972-1.892 1.972h-6.62v-5.903zm14.655 9.426c.96-.826 1.796-2.269 1.796-4.63v-5.286c0-4.015-3.134-7.281-6.988-7.281H34.26v35.438h17.666c3.853 0 6.989-3.267 6.989-7.282v-5.955c0-2.357-.8-4.135-2.147-5.004zM133.121 68.781h-11.71v7.77h3.772v19.897h-3.772v7.771h15.48v-7.77h-3.77zM100.57 95.358c0-2.503 2.671-3.456 6.95-5.612 4.539-2.29 8.69-3.631 8.69-8.807v-4.877c0-4.02-3.128-7.281-6.989-7.281h-9.555c-3.86 0-6.989 3.259-6.989 7.28v4.206h7.852v-2.848c0-.479.373-.867.832-.867h6.166c.46 0 .831.388.831.867v2.608c0 2.03-2.754 2.756-7.158 4.733-6.58 2.955-8.28 5.006-8.897 8.45a8.935 8.935 0 0 0-.133 1.587v9.422h24.654v-7.77H100.57v-1.091z"/>
            </g>
        </g>
        <g mask="url(#b)">
            <g transform="translate(15 43.644)">
                <mask id="d" fill="#fff">
                    <use xlink:href="#c"/>
                </mask>
                <path fill="#63BFAA" d="M140.792 40.482c1.449-20.755 1.502-27.998-6.633-33.313-8.078-5.277-20.805-4.003-32.537-3.954-11.73.047-25.064 2.86-43.444 1.909C46.663 4.528 36.209.197 23.773.216 12.638.234 6.59 5.726 3.64 13.636.63 21.709 3.048 32.067.98 46.455-1.552 64.066-.258 83.85 18.038 84.914c16.436.958 28.05-1.415 38.098-1.793 16.344-.614 28.63-.117 44.539.346 15.888.464 31.571 3.102 37.718-8.375 5.897-11.007 1.53-22.164 2.399-34.61" mask="url(#d)"/>
            </g>
            <path fill="#FEFEFE" d="M46.208 72.128s.365 12.975 9.671 13.277c0 0 9.268.922 10.566-11.448 1.36-12.96-4.52-12.659-4.52-12.659s-2.953-.097-3.35 3.892a190 190 0 0 1-.69 5.836c-.152 1.088-.153 1.18-.28 1.768-.408 1.911-1.13 3.968-2.343 3.938 0 0-.958-.02-.776-1.787 0 0 .78-9.18-.344-12.076-1.022-2.628-3.514-4.23-5.604-3.133-.212.111-1.309.864-1.776 2.293-.518 1.59-.81 4.437-.554 10.099M99.336 83.066s3.338 2.471 7.668 1.677c0 0 .21-.04.324.298.207.616.63 1.686 2.505 1.684 0 0 2.323 0 2.547-5.12 0 0 .157-2.74-.293-5 0 0-.137-.669-.082-.85.08-.21.255-.15.493-.31.634-.428.923-2.227-.154-3.294-1.082-1.071-5.773-2.826-8.45-.179-1.224 1.487-.533 3.1.46 3.558.64.349 2.063.413 2.063.413s.137.19.099.65c-.035.411-.489.903-1.47.763 0 0-1.712-.267-3.003-2.147-.717-1.042-.878-2.465-.604-3.723.264-1.213 1.21-2.523 3.036-2.733 3.365-.388 5.347.608 6.678-1.059 0 0 1.647-2.247-.078-5.393-1.724-3.147-8.205-3.496-11.705-2.019-4.408 1.772-5.435 5.725-5.435 5.725s-3.526 10.567 5.401 17.06M35.172 86.013c8.92-.776 8.895-8.175 9.363-12.687.466-4.497-.131-12.12-.312-14.7-.033-.456.227-.892.657-1.037.823-.28 2.06-1.003 2.06-2.812 0-2.712-2.59-3.293-7.77-3.197-5.179.097-9.278 1.946-8.92 4.942.231 1.937 1.603 2.368 2.492 2.44.439.035.797.36.828.803.115 1.636.371 5.413.517 8.576.191 4.166.67 8.624-.672 8.817-1.343.194-1.727-1.55-2.11-2.907-.384-1.356-1.502-7.058-6.044-6.2-4.068.769-2.876 6.976-2.397 9.107.48 2.131 3.387 9.63 12.308 8.855M39.39 88.391c-3.805-1.174-7.063-.262-8.337.195-1.002.36-2.686.983-3.633 2.01-1.102 1.193-1.541 2.538-1.966 5.757-.85 6.437-1.012 16.977 1.402 20.732 1.881 2.93 5.15 5.087 11.247 3.39 6.02-1.677 9.903-8.423 3.406-14.552 0 0 4.355-1.46 4.82-6.905.463-5.446-1.25-8.87-6.94-10.627m-6.035 9.077c.44-1.755 2.05-1.677 2.94-1.238 1.89.933 1.66 4.232-.354 4.453-2.016.219-3.03-1.45-2.586-3.215m2.797 16.787c-1.957.228-2.852-1.663-2.552-3.52.322-1.992 1.992-1.737 2.857-1.282 1.836.966 1.653 4.574-.305 4.802M140.486 86.946s7.171.601 8.522-3.788c1.342-4.36-5.964-4.112-7.013-4.054-.17.012-.295-.06-.354-.403-.04-.234-.206-1.186.064-1.647.127-.214.31-.155.732-.182 0 0 4.586-.02 6.357-1.847 1.244-1.283 1.789-4.053-.196-5.287-1.703-1.06-5.905-.246-6.78-.058-.341.056-.394-.472-.403-.659-.022-.445-.079-1.747.316-1.84.185-.044.407-.08.647-.103.211-.02 1.397-.152 1.957-.243 1.216-.199 3.415-.679 4.642-2.56 1.939-2.973-.422-4.413-1.135-4.692-.84-.327-6.68-2.323-11.26.862-.325.227-.906.69-1.507 1.725-.163.28-.298.655-.459 1.093-.68 1.845-1.43 5.035-1.32 9.975 0 0-.543 12.979 7.19 13.708"/>
            <path fill="#FEFEFE" d="M121.137 87.978c4.194.749 10.931-.431 12.18-4.633 1.25-4.202-4.043-3.931-4.043-3.931s-2.593.199-4.177.544c-.532.116-.81.323-.765-.745.006-.162.01-2.265-.068-4.922-.148-5.023-.603-12.982-2.331-15.674-1.311-2.044-3.884-1.502-3.884-1.502s-2.727.316-3.42 4.523c-.077.46-.213 2.173-.281 3.276-.216 3.534-.469 11.729 1.222 18.23 0 0 1.372 4.086 5.567 4.834M80.033 88.84c-2.898 1.22-4.97 3.285-6.276 8.656-1.306 5.373-1.332 14.925 6.053 19.73 0 0 8.53 5.12 13.712-6.451 5.347-11.937-3.595-26.103-13.49-21.935m3.122 19.249c-2.016-.096-1.955-2.459-1.526-4.794.484-2.63 1.885-3.487 3.066-2.85 2.078 1.118.312 7.733-1.54 7.644M148.405 91.113s-3.736-1.685-5.241 3.22c-1.49 4.146-2.07 9.787-2.058 10.464-.064-.347-.444-1.93-.65-2.79-.756-3.147-1.585-7.78-4.915-9.935-3.68-2.384-6.445-.024-6.445-.024s-.894.516-1.456 2.134c-1.137 3.266-.922 16.628-.17 20.293 0 0 .474 3.803 4.236 3.435 0 0 2.932.025 3.167-4.829l.274-5.049s1.913 7.75 6.984 8.944c5.842 1.376 7.622-8.124 7.622-8.124.37-1.482 2.365-16.173-1.348-17.74M75.826 81.529l.273-5.05s1.909 7.772 6.984 8.945c5.452 1.26 7.622-8.125 7.622-8.125.37-1.482 2.365-16.173-1.348-17.739 0 0-3.736-1.685-5.24 3.22-1.491 4.145-2.07 9.786-2.059 10.464-.064-.348-.444-1.93-.65-2.79-.756-3.146-1.585-7.78-4.915-9.935-3.679-2.383-6.445-.023-6.445-.023s-.892.516-1.456 2.133c-1.138 3.267-.923 16.628-.17 20.293 0 0 .475 3.804 4.235 3.436 0 0 2.975-.447 3.169-4.83M65.634 90.431c-3.797-2.554-10.26-3.089-13.34-1.976-2.85 1.029-3.905 2.185-4.24 4.638-.362 2.658.146 20.4.172 24.2.025 3.8 6.226 4.264 8.226 1.65 1.426-1.865 1.033-6.521 1.033-6.521s.64 2.34.986 3.927c.427 1.955 1.262 3.6 4.738 3.67 3.475.069 5.05-1.72 4.427-4.45-.624-2.731-1.908-5.559-1.908-5.559s.465-.15.753-.315c.685-.393 4.766-2.208 5.046-7.555.28-5.348-2.203-9.226-5.893-11.709m-7.492 12.947c-2.142.27-2.261-3.077-2.01-5.076.265-2.107 1.6-1.867 2.572-1.358 2.636 1.381 1.64 6.157-.562 6.434M123.602 92.99s-4.794-1.62-8.884 7.712c0 0 .315-8.513-3.133-9.12-3.678-.646-5.923 6.412-6.53 8.612-.111.403-.167.643-.167.643l.005-.788a723.202 723.202 0 0 0-.01-6.312c-.026-4.492-2.004-5.68-4.698-5.342-3.197.403-3.187 4.31-3.394 8.205 0 0-.92 18.188 3.494 20.68 3.604 2.036 6.784-.817 9.302-6.753 0 0-1.484 7.527 2.694 8.232 3.373.57 8.403-3.994 10.898-10.623 1.246-3.311 2.382-7.23 2.38-10.478 0-2.63-1.045-4.2-1.957-4.669"/>
        </g>
    </g>
</svg>
